<?xml version="1.0" standalone="no"?>
<!DOCTYPE svg PUBLIC "-//W3C//DTD SVG 1.1//EN" "http://www.w3.org/Graphics/SVG/1.1/DTD/svg11.dtd" >
<svg>
<metadata>
Created by FontForge 20090622 at Tue May 16 08:44:59 2017
 By deploy user
Copyright 2011 Monotype Imaging Inc. All rights reserved.
</metadata>
<defs>
<font id="HarmoniaSansProCyr-FFTitle" horiz-adv-x="411" >
  <font-face 
    font-family="Harmonia Sans Pro Cyr FF Title"
    font-weight="900"
    font-stretch="normal"
    units-per-em="1000"
    panose-1="2 11 10 2 3 4 2 2 2 4"
    ascent="730"
    descent="-270"
    x-height="479"
    cap-height="682"
    bbox="-223 -258 1309 988"
    underline-thickness="50"
    underline-position="-50"
    unicode-range="U+0020-U+FB04"
  />
<missing-glyph horiz-adv-x="500" 
d="M12 665h475v-665h-475v665zM250 375l161 243h-323zM60 91l40 61l80 120l41 61l-161 242v-484zM278 333l162 -243v485zM250 290l-162 -242h323z" />
    <glyph glyph-name="IJ" unicode="IJ" horiz-adv-x="718" 
d="M64 682h179v-682h-179v682zM477 682h181v-455q0 -136 -56 -193t-178 -57q-60 0 -113 20v147q43 -16 85 -16q44 0 62.5 21t18.5 67v466z" />
    <glyph glyph-name="ij" unicode="ij" horiz-adv-x="570" 
d="M58 721h169v-151h-169v151zM343 721h169v-151h-169v151zM58 479h169v-479h-169v479zM512 -18q0 -119 -52.5 -176t-147.5 -57q-60 0 -99 13v143q23 -7 59 -7t53.5 19t17.5 66v496h169v-497z" />
    <glyph glyph-name="napostrophe" unicode="&#x27;n" horiz-adv-x="746" 
d="M-20 720h184v-80q0 -116 -62 -213h-90q38 58 45 125h-77v168zM206 479h166v-60h4q20 36 56.5 55.5t80.5 19.5q89 0 134.5 -58t45.5 -164v-272h-169v262q0 84 -71 84q-33 0 -55.5 -24.5t-22.5 -69.5v-252h-169v479z" />
    <glyph glyph-name="f_f" unicode="ff" horiz-adv-x="679" 
d="M244 0h-169v337h-67v142h67v66q0 89 47 135t137 46q56 0 97 -12v-138q-30 8 -54 8q-32 0 -45 -14.5t-13 -45.5v-45h167v66q0 89 47 135t137 46q56 0 97 -12v-138q-30 8 -54 8q-32 0 -45 -14.5t-13 -45.5v-45h100v-142h-100v-337h-169v337h-167v-337z" />
    <glyph glyph-name="fi" unicode="fi" horiz-adv-x="638" 
d="M8 479h67v66q0 89 47 135t137 46q56 0 97 -12v-138q-30 8 -54 8q-32 0 -45 -14.5t-13 -45.5v-45h100v-142h-100v-337h-169v337h-67v142zM411 721h169v-151h-169v151zM411 479h169v-479h-169v479z" />
    <glyph glyph-name="fl" unicode="fl" horiz-adv-x="638" 
d="M8 479h67v66q0 89 47 135t137 46q56 0 97 -12v-138q-30 8 -54 8q-32 0 -45 -14.5t-13 -45.5v-45h100v-142h-100v-337h-169v337h-67v142zM411 720h169v-720h-169v720z" />
    <glyph glyph-name="f_f_i" unicode="ffi" horiz-adv-x="974" 
d="M244 0h-169v337h-67v142h67v66q0 89 47 135t137 46q56 0 97 -12v-138q-30 8 -54 8q-32 0 -45 -14.5t-13 -45.5v-45h167v66q0 89 47 135t137 46q56 0 97 -12v-138q-30 8 -54 8q-32 0 -45 -14.5t-13 -45.5v-45h100v-142h-100v-337h-169v337h-167v-337zM747 721h169v-151
h-169v151zM747 479h169v-479h-169v479z" />
    <glyph glyph-name="f_f_l" unicode="ffl" horiz-adv-x="974" 
d="M244 0h-169v337h-67v142h67v66q0 89 47 135t137 46q56 0 97 -12v-138q-30 8 -54 8q-32 0 -45 -14.5t-13 -45.5v-45h167v66q0 89 47 135t137 46q56 0 97 -12v-138q-30 8 -54 8q-32 0 -45 -14.5t-13 -45.5v-45h100v-142h-100v-337h-169v337h-167v-337zM747 720h169v-720
h-169v720z" />
    <glyph glyph-name=".notdef" horiz-adv-x="500" 
d="M12 665h475v-665h-475v665zM250 375l161 243h-323zM60 91l40 61l80 120l41 61l-161 242v-484zM278 333l162 -243v485zM250 290l-162 -242h323z" />
    <glyph glyph-name=".null" horiz-adv-x="0" 
 />
    <glyph glyph-name="nonmarkingreturn" horiz-adv-x="333" 
 />
    <glyph glyph-name="space" unicode=" " horiz-adv-x="250" 
 />
    <glyph glyph-name="exclam" unicode="!" horiz-adv-x="304" 
d="M244 682l-18 -457h-148l-18 457h184zM65 153h174v-153h-174v153z" />
    <glyph glyph-name="quotedbl" unicode="&#x22;" horiz-adv-x="489" 
d="M199 721l-10 -257h-130l-9 257h149zM439 721l-10 -257h-130l-9 257h149z" />
    <glyph glyph-name="numbersign" unicode="#" horiz-adv-x="625" 
d="M615 496l-24 -102h-96l-23 -110h98l-21 -102h-99l-40 -182h-120l40 182h-104l-41 -182h-120l41 182h-96l22 102h94l24 110h-97l22 102h98l40 186h120l-40 -186h104l40 186h120l-40 -186h98zM270 394l-24 -110h106l23 110h-105z" />
    <glyph glyph-name="dollar" unicode="$" horiz-adv-x="580" 
d="M355 467q0 32 -17.5 51t-47.5 19q-23 0 -38.5 -13t-15.5 -35q0 -23 22 -37t85 -39q92 -36 135 -84.5t43 -115.5q0 -62 -44 -116t-126 -72v-100h-130v100q-79 16 -122.5 71t-43.5 139h163q0 -41 18.5 -65t56.5 -24q27 0 44.5 16t17.5 40q0 29 -24.5 47.5t-82.5 40.5
q-95 37 -135 86t-40 113t41.5 107t106.5 59v88h130v-84q78 -15 119 -66.5t41 -125.5h-156z" />
    <glyph glyph-name="percent" unicode="%" horiz-adv-x="856" 
d="M30 509q0 93 54.5 143.5t123.5 50.5q30 0 59 -11t55 -32.5t42 -60t16 -88.5q0 -54 -17.5 -95t-45 -62.5t-56 -31.5t-56.5 -10q-68 0 -121.5 49t-53.5 148zM721 682l-477 -682h-109l477 682h109zM265 508q0 46 -16 72.5t-44 26.5q-26 0 -43 -25.5t-17 -72.5
q0 -49 16.5 -75t44.5 -26q25 0 42 26t17 74zM476 176q0 93 54.5 143.5t123.5 50.5q30 0 59 -11t55 -32.5t42 -60t16 -88.5q0 -54 -17.5 -95t-45 -62.5t-56 -31.5t-56.5 -10q-68 0 -121.5 49t-53.5 148zM711 175q0 46 -16 72.5t-44 26.5q-26 0 -43 -25.5t-17 -72.5
q0 -49 16.5 -75t44.5 -26q25 0 42 26t17 74z" />
    <glyph glyph-name="ampersand" unicode="&#x26;" horiz-adv-x="662" 
d="M463 348h150v-8q0 -115 -67 -196q32 -27 62 -27q17 0 31 4v-131q-27 -8 -59 -8q-78 0 -136 60q-88 -60 -186 -60q-114 0 -171 53t-57 137q0 67 32 113.5t103 86.5q-59 86 -59 161q0 68 52.5 118.5t157.5 50.5q90 0 145.5 -45t55.5 -116q0 -123 -145 -198l72 -89
q19 38 19 86v8zM266 536q0 -53 33 -96q72 36 72 93q0 17 -15 32t-41 15q-24 0 -36.5 -14t-12.5 -30zM265 106q41 0 80 33l-106 132q-49 -39 -49 -92q0 -30 20.5 -51.5t54.5 -21.5z" />
    <glyph glyph-name="quotesingle" unicode="'" horiz-adv-x="249" 
d="M199 721l-10 -257h-130l-9 257h149z" />
    <glyph glyph-name="parenleft" unicode="(" horiz-adv-x="385" 
d="M209 -215q-72 99 -110.5 226.5t-38.5 251.5q0 125 38 252.5t111 227.5h159q-144 -189 -144 -480q0 -129 35 -255.5t109 -222.5h-159z" />
    <glyph glyph-name="parenright" unicode=")" horiz-adv-x="385" 
d="M17 -215q74 96 109 222.5t35 255.5q0 291 -144 480h159q73 -100 111 -227.5t38 -252.5q0 -124 -38.5 -251.5t-110.5 -226.5h-159z" />
    <glyph glyph-name="asterisk" unicode="*" horiz-adv-x="466" 
d="M51 625l131 -48l-7 144h113l-8 -144l130 48l36 -103l-134 -36l90 -113l-98 -63l-73 118l-74 -118l-98 63l90 113l-129 32z" />
    <glyph glyph-name="plus" unicode="+" horiz-adv-x="672" 
d="M396 205v-205h-120v205h-199v120h199v205h120v-205h199v-120h-199z" />
    <glyph glyph-name="comma" unicode="," horiz-adv-x="304" 
d="M55 178h194v-70q0 -126 -74 -243h-93q43 78 55 135h-82v178z" />
    <glyph glyph-name="hyphen" unicode="-" horiz-adv-x="461" 
d="M73 204v120h322v-120h-322z" />
    <glyph glyph-name="period" unicode="." horiz-adv-x="304" 
d="M154 -7q-40 0 -68.5 28.5t-28.5 68.5t28.5 68t68.5 28t68 -28t28 -68t-28 -68.5t-68 -28.5z" />
    <glyph glyph-name="slash" unicode="/" horiz-adv-x="449" 
d="M438 720l-324 -834h-139l323 834h140z" />
    <glyph glyph-name="zero" unicode="0" horiz-adv-x="580" 
d="M28 344q0 94 24 166.5t64 113t86 60.5t96 20q46 0 88.5 -18t81 -57t61.5 -111.5t23 -170.5q0 -86 -18 -153.5t-45 -107t-63.5 -65.5t-69 -35t-65.5 -9q-48 0 -91.5 18t-83.5 57.5t-64 114.5t-24 177zM377 344q0 103 -23.5 157t-62.5 54q-36 0 -62 -51.5t-26 -156.5
q0 -112 25.5 -166.5t64.5 -54.5q34 0 59 53.5t25 164.5z" />
    <glyph glyph-name="one" unicode="1" horiz-adv-x="580" 
d="M217 532h-106v150h277v-682h-171v532z" />
    <glyph glyph-name="two" unicode="2" horiz-adv-x="580" 
d="M61 121l195 220q29 33 45.5 53.5t32.5 51t16 53.5q0 25 -16.5 40.5t-42.5 15.5q-34 0 -50 -25t-16 -63h-172q0 105 58 171t184 66q105 0 168.5 -55.5t63.5 -145.5q0 -62 -35.5 -121t-124.5 -150l-81 -82h251v-150h-476v121z" />
    <glyph glyph-name="three" unicode="3" horiz-adv-x="580" 
d="M51 486q0 101 63 159.5t170 58.5q112 0 173.5 -51t61.5 -132q0 -52 -30.5 -92.5t-70.5 -52.5v-3q59 -19 90.5 -64t31.5 -108q0 -93 -67.5 -157.5t-190.5 -64.5q-122 0 -185 60.5t-67 170.5h164q1 -43 23.5 -68t63.5 -25q40 0 62.5 25t22.5 71q0 41 -28.5 62.5t-77.5 21.5
h-43v131h52q37 0 56.5 20t19.5 54q0 26 -17.5 44.5t-47.5 18.5q-32 0 -48 -22t-16 -57h-165z" />
    <glyph glyph-name="four" unicode="4" horiz-adv-x="580" 
d="M468 104v-104h-165v104h-282v135l279 443h168v-438h88v-140h-88zM164 244h139v144q0 59 1 87h-3q-19 -44 -53 -99z" />
    <glyph glyph-name="five" unicode="5" horiz-adv-x="580" 
d="M263 445l9 1h13q111 0 176.5 -62.5t65.5 -167.5q0 -99 -68 -168.5t-176 -69.5q-113 0 -174 61.5t-65 152.5h178q5 -61 62 -61q26 0 44 21.5t18 56.5q0 41 -29.5 65.5t-86.5 24.5q-69 0 -147 -13l37 396h360v-150h-208z" />
    <glyph glyph-name="six" unicode="6" horiz-adv-x="580" 
d="M24 229q0 64 27 124t79 136l132 193h190l-140 -204l25 -1q95 -7 157 -75t62 -173q0 -106 -74 -178.5t-194 -72.5t-192 69.5t-72 181.5zM198 228q0 -46 26.5 -73.5t64.5 -27.5q40 0 66.5 27.5t26.5 73.5q0 45 -26.5 74t-66.5 29q-39 0 -65 -28t-26 -75z" />
    <glyph glyph-name="seven" unicode="7" horiz-adv-x="580" 
d="M518 542l-236 -542h-190l249 532h-287v150h464v-140z" />
    <glyph glyph-name="eight" unicode="8" horiz-adv-x="580" 
d="M549 195q0 -88 -67.5 -152.5t-190.5 -64.5q-125 0 -192.5 60.5t-67.5 150.5q0 63 31 109.5t85 69.5v2q-96 43 -96 140q0 83 64 138.5t176 55.5q107 0 172 -53.5t65 -128.5q0 -56 -27 -96t-72 -56v-2q120 -44 120 -173zM218 493q0 -34 21 -56t50 -22q32 0 52 22.5t20 55.5
q0 34 -20.5 54.5t-51.5 20.5q-30 0 -50.5 -20.5t-20.5 -54.5zM207 206q0 -39 24 -64.5t62 -25.5q37 0 60.5 25t23.5 65q0 41 -23.5 66.5t-60.5 25.5t-61.5 -25.5t-24.5 -66.5z" />
    <glyph glyph-name="nine" unicode="9" horiz-adv-x="580" 
d="M556 453q0 -64 -27 -124t-79 -136l-132 -193h-190l140 204l-25 1q-99 5 -159 73t-60 175q0 106 74 178.5t194 72.5t192 -69.5t72 -181.5zM382 454q0 46 -26.5 73.5t-64.5 27.5q-40 0 -66.5 -27.5t-26.5 -73.5q0 -45 26.5 -74t66.5 -29q39 0 65 28t26 75z" />
    <glyph glyph-name="colon" unicode=":" horiz-adv-x="324" 
d="M65 479h194v-178h-194v178zM65 178h194v-178h-194v178z" />
    <glyph glyph-name="semicolon" unicode=";" horiz-adv-x="324" 
d="M65 479h194v-178h-194v178zM65 178h194v-70q0 -126 -74 -243h-93q43 78 55 135h-82v178z" />
    <glyph glyph-name="less" unicode="&#x3c;" horiz-adv-x="672" 
d="M90 213v104l492 223v-135l-324 -139v-2l324 -138v-136z" />
    <glyph glyph-name="equal" unicode="=" horiz-adv-x="672" 
d="M77 316v120h518v-120h-518zM77 94v120h518v-120h-518z" />
    <glyph glyph-name="greater" unicode="&#x3e;" horiz-adv-x="672" 
d="M90 -10v135l324 139v2l-324 138v136l492 -223v-104z" />
    <glyph glyph-name="question" unicode="?" horiz-adv-x="486" 
d="M351 329q-41 -34 -41 -104h-148q0 59 9 93t37 64q32 34 43.5 47.5t20.5 33.5t9 43q0 20 -14.5 34.5t-32.5 14.5q-24 0 -38.5 -18t-14.5 -52h-161q2 104 58.5 161.5t160.5 57.5q96 0 156.5 -52.5t60.5 -137.5q0 -51 -24 -94.5t-81 -90.5zM149 153h174v-153h-174v153z" />
    <glyph glyph-name="at" unicode="@" horiz-adv-x="927" 
d="M887 356q0 -116 -60 -191t-148 -75q-126 0 -138 98h-3q-46 -98 -146 -98q-75 0 -113 50t-38 125q0 100 56 178.5t151 78.5q63 0 93 -59h5l8 51h129l-33 -221q-7 -51 -7 -59q0 -48 47 -48q40 0 63.5 45.5t23.5 119.5q0 257 -304 257q-78 0 -141 -26.5t-102 -72t-59.5 -102
t-20.5 -119.5q0 -128 86 -205.5t231 -77.5q127 0 202 36l34 -78q-84 -54 -244 -54q-186 0 -302.5 104t-116.5 276q0 177 122.5 296t315.5 119q188 0 298.5 -95.5t110.5 -252.5zM526 352q0 30 -13.5 49t-39.5 19q-40 0 -68 -42.5t-28 -103.5q0 -40 13 -61t35 -21
q49 0 75 45.5t26 114.5z" />
    <glyph glyph-name="A" unicode="A" horiz-adv-x="681" 
d="M265 682h169l240 -682h-180l-44 137h-222l-44 -137h-177zM266 256h146l-47 146q-11 32 -23 83h-5q-16 -60 -24 -84z" />
    <glyph glyph-name="B" unicode="B" horiz-adv-x="579" 
d="M65 682h211q112 0 178 -42.5t66 -128.5q0 -54 -36.5 -92.5t-91.5 -49.5v-2q74 -12 115.5 -59t41.5 -107q0 -92 -68.5 -146.5t-176.5 -54.5h-239v682zM345 493q0 29 -20 46.5t-60 17.5h-34v-136h39q41 0 58 18t17 54zM370 216q0 36 -25 59.5t-68 23.5h-46v-171h46
q44 0 68.5 22.5t24.5 65.5z" />
    <glyph glyph-name="C" unicode="C" horiz-adv-x="765" 
d="M385 704q136 0 227.5 -80.5t105.5 -184.5h-191q-7 46 -46.5 80t-96.5 34q-81 0 -126.5 -60.5t-45.5 -150.5q0 -87 48.5 -150t124.5 -63q63 0 99.5 37.5t47.5 87.5h198q-26 -118 -117 -197t-232 -79q-157 0 -254 103.5t-97 261.5q0 156 100 258.5t255 102.5z" />
    <glyph glyph-name="D" unicode="D" horiz-adv-x="713" 
d="M306 682q178 0 277.5 -97.5t99.5 -243.5q0 -144 -102.5 -242.5t-276.5 -98.5h-239v682h241zM296 156q102 0 153.5 52t51.5 133q0 85 -52 135t-153 50h-52v-370h52z" />
    <glyph glyph-name="E" unicode="E" horiz-adv-x="556" 
d="M492 529h-249v-106h240v-143h-240v-127h259v-153h-438v682h428v-153z" />
    <glyph glyph-name="F" unicode="F" horiz-adv-x="530" 
d="M493 529h-249v-126h239v-143h-239v-260h-180v682h429v-153z" />
    <glyph glyph-name="G" unicode="G" horiz-adv-x="767" 
d="M737 390v-47q0 -48 -11.5 -96t-38 -96.5t-65.5 -86t-100 -60.5t-136 -23q-155 0 -255.5 101t-100.5 253q0 163 100 264.5t255 101.5q122 0 210 -57.5t123 -163.5h-193q-41 70 -134 70q-73 0 -126.5 -55t-53.5 -157q0 -97 51 -151.5t137 -54.5q57 0 97.5 33.5t49.5 81.5
h-196v143h387z" />
    <glyph glyph-name="H" unicode="H" horiz-adv-x="700" 
d="M456 275h-212v-275h-179v682h179v-254h212v254h179v-682h-179v275z" />
    <glyph glyph-name="I" unicode="I" horiz-adv-x="307" 
d="M64 682h179v-682h-179v682z" />
    <glyph glyph-name="J" unicode="J" 
d="M170 682h181v-455q0 -136 -56 -193t-178 -57q-60 0 -113 20v147q43 -16 85 -16q44 0 62.5 21t18.5 67v466z" />
    <glyph glyph-name="K" unicode="K" horiz-adv-x="684" 
d="M268 269l-24 -25v-244h-179v682h179v-226l212 226h221l-288 -298l320 -384h-223z" />
    <glyph glyph-name="L" unicode="L" horiz-adv-x="506" 
d="M64 682h179v-529h259v-153h-438v682z" />
    <glyph glyph-name="M" unicode="M" horiz-adv-x="827" 
d="M797 0h-172l-30 297q-10 104 -12 131h-8q-5 -18 -15 -64t-16 -67l-78 -297h-118l-81 298q-22 82 -30 130h-10q-1 -57 -9 -128l-30 -300h-158l81 682h192l72 -252q30 -99 36 -125h3l35 125l68 252h191z" />
    <glyph glyph-name="N" unicode="N" horiz-adv-x="683" 
d="M210 419q4 -116 4 -122v-297h-150v682h151l170 -272q24 -37 40 -66.5t27.5 -53.5t16.5 -33h3q-3 90 -3 110v315h150v-682h-150l-145 231q-42 67 -74.5 125t-35.5 63h-4z" />
    <glyph glyph-name="O" unicode="O" horiz-adv-x="783" 
d="M30 341q0 149 104 256t260 107q162 0 260.5 -107t98.5 -256q0 -150 -103.5 -256.5t-257.5 -106.5q-90 0 -161.5 32.5t-114 86t-64.5 116.5t-22 128zM212 341q0 -86 51.5 -144t127.5 -58q77 0 128.5 58t51.5 144t-49 144t-129 58q-77 0 -129 -58t-52 -144z" />
    <glyph glyph-name="P" unicode="P" horiz-adv-x="578" 
d="M64 682h230q116 0 190 -57.5t74 -167.5q0 -107 -67.5 -167t-199.5 -60h-48v-230h-179v682zM378 455q0 37 -22.5 62.5t-70.5 25.5h-42v-174h40q95 0 95 86z" />
    <glyph glyph-name="Q" unicode="Q" horiz-adv-x="783" 
d="M530 5q-68 -27 -140 -27q-90 0 -161.5 32.5t-114 86t-64.5 116.5t-22 128q0 149 104 256t260 107q162 0 260.5 -107t98.5 -256q0 -150 -103 -256l90 -114l-111 -88zM209 341q0 -86 52 -144t128 -58q17 0 33 3l-86 109l111 88l91 -115q31 51 31 117q0 86 -49 144t-129 58
q-77 0 -129.5 -58t-52.5 -144z" />
    <glyph glyph-name="R" unicode="R" horiz-adv-x="631" 
d="M642 0h-208l-173 258h-18v-258h-179v682h222q275 0 275 -213q0 -70 -35 -117t-92 -67zM378 460q0 39 -22.5 61t-63.5 22h-49v-163h50q38 0 61.5 21t23.5 59z" />
    <glyph glyph-name="S" unicode="S" horiz-adv-x="572" 
d="M356 481q0 37 -18 58.5t-50 21.5q-24 0 -40 -14.5t-16 -39.5q0 -29 26.5 -47t84.5 -38q186 -65 186 -228q0 -85 -61.5 -150.5t-180.5 -65.5q-112 0 -178.5 65t-66.5 177h171q0 -99 77 -99q29 0 47.5 17t18.5 46q0 33 -24.5 53.5t-84.5 41.5q-186 64 -186 224q0 93 66 147
t163 54q105 0 167 -59.5t62 -163.5h-163z" />
    <glyph glyph-name="T" unicode="T" horiz-adv-x="494" 
d="M157 529h-153v153h486v-153h-153v-529h-180v529z" />
    <glyph glyph-name="U" unicode="U" horiz-adv-x="641" 
d="M321 -22q-124 0 -195.5 69t-71.5 222v413h179v-423q0 -130 87 -130q89 0 89 130v423h178v-411q0 -150 -70 -221.5t-196 -71.5z" />
    <glyph glyph-name="V" unicode="V" horiz-adv-x="644" 
d="M399 0h-159l-245 682h191l98 -308q30 -97 40 -157h4q10 63 40 158l98 307h186z" />
    <glyph glyph-name="W" unicode="W" horiz-adv-x="894" 
d="M469 314q-14 71 -19 145h-4q-10 -100 -19 -142l-62 -317h-194l-167 682h175l70 -330q10 -48 22 -126h4q4 26 26 135l65 321h168l75 -328q5 -20 23 -128h4q7 63 20 127l64 329h170l-161 -682h-192z" />
    <glyph glyph-name="X" unicode="X" horiz-adv-x="646" 
d="M278 558q6 -9 48 -82h3q36 66 48 84l76 122h188l-225 -325l235 -357h-195l-82 133q-3 5 -54 95h-2q-10 -15 -28 -48.5t-28 -48.5l-79 -131h-188l234 351l-226 331h196z" />
    <glyph glyph-name="Y" unicode="Y" horiz-adv-x="637" 
d="M230 268l-226 414h193l90 -175q23 -44 36 -89h2q13 41 36 88l84 176h188l-224 -413v-269h-179v268z" />
    <glyph glyph-name="Z" unicode="Z" horiz-adv-x="630" 
d="M53 682h525v-144l-314 -385h330v-153h-558v143l314 386h-297v153z" />
    <glyph glyph-name="bracketleft" unicode="[" horiz-adv-x="385" 
d="M335 598h-105v-668h105v-130h-255v928h255v-130z" />
    <glyph glyph-name="backslash" unicode="\" horiz-adv-x="449" 
d="M335 -114l-324 834h140l323 -834h-139z" />
    <glyph glyph-name="bracketright" unicode="]" horiz-adv-x="385" 
d="M50 728h255v-928h-255v130h105v668h-105v130z" />
    <glyph glyph-name="asciicircum" unicode="^" horiz-adv-x="662" 
d="M478 326l-146 251h-3l-145 -251h-140l225 378h123l226 -378h-140z" />
    <glyph glyph-name="underscore" unicode="_" horiz-adv-x="550" 
d="M0 -128h550v-110h-550v110z" />
    <glyph glyph-name="grave" unicode="`" horiz-adv-x="318" 
d="M89 773l175 -130l-61 -90l-185 114z" />
    <glyph glyph-name="a" unicode="a" horiz-adv-x="599" 
d="M538 0h-160v57h-6q-53 -73 -144 -73q-30 0 -62 13t-65 40.5t-54 80.5t-21 122q0 113 64 182t151 69q89 0 131 -69h6v57h160v-479zM197 239q0 -47 23.5 -78t68.5 -31q36 0 62 30.5t26 77.5q0 49 -25 79.5t-63 30.5q-44 0 -68 -32.5t-24 -76.5z" />
    <glyph glyph-name="b" unicode="b" horiz-adv-x="599" 
d="M61 720h161v-291h5q60 62 144 62q29 0 61 -13t65 -40.5t54.5 -80.5t21.5 -122q0 -113 -65.5 -182t-153.5 -69q-80 0 -124 63h-5v-47h-164v720zM402 236q0 47 -23.5 78t-68.5 31q-36 0 -62 -30.5t-26 -77.5q0 -49 25 -79.5t63 -30.5q44 0 68 32.5t24 76.5z" />
    <glyph glyph-name="c" unicode="c" horiz-adv-x="553" 
d="M284 495q96 0 158 -58.5t74 -137.5h-163q-5 25 -24.5 40t-46.5 15q-44 0 -64.5 -32t-20.5 -82t22 -82.5t66 -32.5q28 0 47.5 16.5t26.5 42.5h166q-22 -91 -83.5 -146t-159.5 -55q-107 0 -181.5 71t-74.5 187q0 108 70 181t188 73z" />
    <glyph glyph-name="d" unicode="d" horiz-adv-x="599" 
d="M538 0h-161v45h-5q-60 -62 -144 -62q-22 0 -47.5 7.5t-53.5 26.5t-50 47.5t-36.5 74t-14.5 101.5q0 114 65.5 184.5t153.5 70.5q80 0 124 -63h5v288h164v-720zM197 239q0 -47 23.5 -78.5t68.5 -31.5q36 0 62 31t26 78q0 49 -25 81.5t-63 32.5q-44 0 -68 -34t-24 -79z" />
    <glyph glyph-name="e" unicode="e" horiz-adv-x="557" 
d="M278 495q110 0 179 -70.5t69 -183.5q0 -22 -2 -40h-336q0 -41 28 -69.5t69 -28.5q56 0 79 45h156q-25 -75 -84 -120t-154 -45q-107 0 -181.5 71t-74.5 187q0 110 66.5 182t185.5 72zM276 386q-37 0 -60 -22.5t-27 -55.5h174q-4 34 -27.5 56t-59.5 22z" />
    <glyph glyph-name="f" unicode="f" horiz-adv-x="343" 
d="M8 479h67v66q0 89 47 135t137 46q56 0 97 -12v-138q-30 8 -54 8q-32 0 -45 -14.5t-13 -45.5v-45h100v-142h-100v-337h-169v337h-67v142z" />
    <glyph glyph-name="g" unicode="g" horiz-adv-x="599" 
d="M540 15q0 -137 -63.5 -204.5t-199.5 -67.5q-102 0 -166.5 52.5t-77.5 145.5h168q11 -63 86 -63q98 0 98 115v60h-3q-55 -60 -140 -60q-92 0 -153 68t-61 181q0 107 64 179t161 72q83 0 126 -65h6v51h155v-464zM199 244q0 -43 22.5 -73.5t67.5 -30.5q39 0 64.5 29t25.5 74
q0 47 -25.5 76t-63.5 29q-42 0 -66.5 -31t-24.5 -73z" />
    <glyph glyph-name="h" unicode="h" horiz-adv-x="598" 
d="M58 720h169v-301h4q41 75 136 75q88 0 133 -58t45 -164v-272h-169v262q0 84 -71 84q-33 0 -55.5 -24.5t-22.5 -69.5v-252h-169v720z" />
    <glyph glyph-name="i" unicode="i" horiz-adv-x="285" 
d="M58 721h169v-151h-169v151zM58 479h169v-479h-169v479z" />
    <glyph glyph-name="j" unicode="j" horiz-adv-x="285" 
d="M58 721h169v-151h-169v151zM227 -18q0 -119 -52.5 -176t-147.5 -57q-60 0 -99 13v143q23 -7 59 -7t53.5 19t17.5 66v496h169v-497z" />
    <glyph glyph-name="k" unicode="k" horiz-adv-x="576" 
d="M248 178l-21 -21v-157h-169v720h169v-379l123 138h203l-188 -198l215 -281h-202z" />
    <glyph glyph-name="l" unicode="l" horiz-adv-x="285" 
d="M58 720h169v-720h-169v720z" />
    <glyph glyph-name="m" unicode="m" horiz-adv-x="876" 
d="M58 479h166v-60h2q49 75 136 75q48 0 82.5 -23.5t49.5 -55.5q19 32 61 55.5t88 23.5q84 0 132 -57.5t48 -164.5v-272h-169v262q0 36 -15.5 60t-45.5 24q-29 0 -48.5 -24t-19.5 -70v-252h-169v262q0 37 -16.5 60.5t-44.5 23.5q-32 0 -50 -25t-18 -69v-252h-169v479z" />
    <glyph glyph-name="n" unicode="n" horiz-adv-x="598" 
d="M58 479h166v-60h4q20 36 56.5 55.5t80.5 19.5q89 0 134.5 -58t45.5 -164v-272h-169v262q0 84 -71 84q-33 0 -55.5 -24.5t-22.5 -69.5v-252h-169v479z" />
    <glyph glyph-name="o" unicode="o" horiz-adv-x="564" 
d="M26 240q0 111 72.5 183t183.5 72q113 0 184.5 -72.5t71.5 -182.5q0 -108 -72.5 -182.5t-183.5 -74.5q-110 0 -183 74t-73 183zM195 239q0 -47 24 -77t63 -30q41 0 64 30t23 77q0 46 -22.5 76.5t-64.5 30.5t-64.5 -29.5t-22.5 -77.5z" />
    <glyph glyph-name="p" unicode="p" horiz-adv-x="599" 
d="M61 479h161v-50h5q51 62 139 62q23 0 48.5 -7.5t54 -26.5t51.5 -47t38 -73.5t15 -101.5q0 -113 -65.5 -182t-153.5 -69q-80 0 -124 63h-5v-282h-164v714zM402 236q0 47 -23.5 78t-68.5 31q-36 0 -62 -30.5t-26 -77.5q0 -49 25 -79.5t63 -30.5q44 0 68 32.5t24 76.5z" />
    <glyph glyph-name="q" unicode="q" horiz-adv-x="599" 
d="M538 -235h-161v280h-5q-54 -62 -144 -62q-22 0 -47.5 7.5t-53.5 26.5t-50 47.5t-36.5 74t-14.5 101.5q0 114 63.5 184.5t150.5 70.5q85 0 129 -63h5v47h164v-714zM197 239q0 -47 23.5 -78.5t68.5 -31.5q36 0 62 31t26 78q0 49 -25 81.5t-63 32.5q-44 0 -68 -34t-24 -79z
" />
    <glyph glyph-name="r" unicode="r" horiz-adv-x="441" 
d="M419 330q-38 6 -74 6q-62 0 -90 -31.5t-28 -84.5v-220h-169v479h163v-82h5q54 95 147 95q27 0 46 -4v-158z" />
    <glyph glyph-name="s" unicode="s" horiz-adv-x="451" 
d="M265 341q0 48 -42 48q-15 0 -24 -8.5t-9 -19.5q0 -20 18 -32.5t76 -32.5q72 -24 104.5 -61t32.5 -92q0 -70 -52 -115t-146 -45q-97 0 -145 44t-48 121h146q0 -59 49 -59q17 0 28.5 11.5t11.5 27.5q0 20 -19.5 34.5t-67.5 30.5q-70 23 -105 59t-35 93q0 70 52.5 110
t134.5 40q81 0 129.5 -42t53.5 -112h-143z" />
    <glyph glyph-name="t" unicode="t" horiz-adv-x="359" 
d="M8 479h55v153h169v-153h105v-142h-105v-147q0 -32 11 -43t41 -11q25 0 57 8v-136q-52 -15 -105 -15q-90 0 -131.5 44t-41.5 130v170h-55v142z" />
    <glyph glyph-name="u" unicode="u" horiz-adv-x="588" 
d="M530 0h-166v60h-4q-50 -75 -137 -75q-31 0 -59 10t-54 32t-41.5 64.5t-15.5 100.5v287h169v-262q0 -40 18 -62t48 -22q34 0 53.5 24t19.5 70v252h169v-479z" />
    <glyph glyph-name="v" unicode="v" horiz-adv-x="478" 
d="M313 0h-148l-177 479h175l47 -166q15 -54 31 -137h4q14 81 31 137l50 166h164z" />
    <glyph glyph-name="w" unicode="w" horiz-adv-x="746" 
d="M390 167q-18 86 -19 104h-3q-4 -34 -23 -124l-32 -147h-187l-118 479h164l45 -196q8 -36 17 -95h4q8 64 17 100l49 191h144l48 -195q9 -40 13 -96h4q6 58 15 95l46 196h164l-124 -479h-189z" />
    <glyph glyph-name="x" unicode="x" horiz-adv-x="517" 
d="M167 239l-163 240h186l47 -85q12 -22 22 -52h4q14 42 18 50l43 87h185l-162 -237l167 -242h-193l-46 85q-17 33 -19 54h-4q-6 -22 -22 -55l-46 -84h-189z" />
    <glyph glyph-name="y" unicode="y" horiz-adv-x="488" 
d="M239 -235h-159l89 241l-173 473h175l50 -166q23 -74 33 -127h4q9 54 30 127l48 166h164z" />
    <glyph glyph-name="z" unicode="z" horiz-adv-x="488" 
d="M40 479h406v-135l-203 -205h215v-139h-430v135l204 205h-192v139z" />
    <glyph glyph-name="braceleft" unicode="{" horiz-adv-x="385" 
d="M345 613q-43 0 -62.5 -18t-19.5 -55v-147q0 -47 -23.5 -81.5t-65.5 -47.5v-2q39 -9 64 -42.5t25 -84.5v-147q0 -37 19.5 -55t62.5 -18v-130q-124 0 -178 45.5t-54 131.5v151q0 36 -22 60.5t-61 24.5v130q39 0 61 24.5t22 59.5v162q0 169 232 169v-130z" />
    <glyph glyph-name="bar" unicode="|" horiz-adv-x="370" 
d="M125 -210v1000h120v-1000h-120z" />
    <glyph glyph-name="braceright" unicode="}" horiz-adv-x="385" 
d="M40 743q232 0 232 -169v-162q0 -35 22 -59.5t61 -24.5v-130q-39 0 -61 -24.5t-22 -60.5v-151q0 -93 -59.5 -135t-172.5 -42v130q43 0 62.5 18t19.5 55v147q0 51 25 84.5t64 42.5v2q-42 13 -65.5 47.5t-23.5 81.5v147q0 37 -19.5 55t-62.5 18v130z" />
    <glyph glyph-name="asciitilde" unicode="~" horiz-adv-x="662" 
d="M642 295q-39 -69 -86.5 -104t-113.5 -35q-70 0 -126 41q-66 49 -101 49q-28 0 -49 -18.5t-46 -61.5l-100 61q67 139 193 139q65 0 126 -41q43 -28 64.5 -38.5t43.5 -10.5q28 0 49.5 19.5t45.5 60.5z" />
    <glyph glyph-name="uni00A0" unicode="&#xa0;" horiz-adv-x="250" 
 />
    <glyph glyph-name="exclamdown" unicode="&#xa1;" horiz-adv-x="304" 
d="M239 529h-174v153h174v-153zM60 0l18 457h148l18 -457h-184z" />
    <glyph glyph-name="cent" unicode="&#xa2;" horiz-adv-x="580" 
d="M234 95q-85 19 -139 86t-54 165q0 92 51.5 159.5t141.5 87.5v89h120v-88q73 -16 119.5 -70.5t57.5 -119.5h-163q-5 25 -24.5 40t-46.5 15q-44 0 -64.5 -32t-20.5 -82t22 -82.5t66 -32.5q28 0 47.5 16.5t26.5 42.5h166q-19 -77 -65.5 -129t-120.5 -67v-93h-120v95z" />
    <glyph glyph-name="sterling" unicode="&#xa3;" horiz-adv-x="580" 
d="M414 293h-125q9 -34 9 -59q0 -49 -31 -77q19 0 50 -11q43 -16 54 -16q39 0 40 58h159q-2 -114 -51 -162t-137 -48q-41 0 -119 26q-70 24 -104 24q-62 0 -126 -41v147q52 9 77 36.5t25 60.5q0 29 -12 62h-90v120h57q-16 50 -16 96q0 81 57.5 138.5t169.5 57.5
q101 0 162.5 -56t66.5 -147h-169q-2 29 -17.5 46t-42.5 17q-28 0 -43 -20t-15 -54q0 -30 14 -78h157v-120z" />
    <glyph glyph-name="currency" unicode="&#xa4;" horiz-adv-x="608" 
d="M488 102l-70 68q-51 -31 -114 -31q-64 0 -114 31l-70 -68l-73 74l70 67q-32 56 -32 111q0 60 32 111l-70 68l73 74l70 -68q51 31 114 31t114 -31l70 68l73 -74l-70 -68q32 -52 32 -111q0 -57 -32 -111l70 -67zM419 355q0 47 -35 79.5t-80 32.5q-48 0 -81.5 -32.5
t-33.5 -79.5q0 -46 34 -79.5t81 -33.5t81 33.5t34 79.5z" />
    <glyph glyph-name="yen" unicode="&#xa5;" horiz-adv-x="580" 
d="M44 383h117l-157 299h178l76 -155q25 -48 36 -86h2q6 18 36 85l71 156h173l-157 -299h117v-114h-161v-56h161v-114h-161v-99h-169v99h-162v114h162v56h-162v114z" />
    <glyph glyph-name="brokenbar" unicode="&#xa6;" horiz-adv-x="370" 
d="M125 390v300h120v-300h-120zM125 -110v300h120v-300h-120z" />
    <glyph glyph-name="section" unicode="&#xa7;" horiz-adv-x="454" 
d="M412 331q0 -78 -65 -114q58 -49 58 -122q0 -66 -45 -108.5t-134 -42.5q-82 0 -129 41t-55 116h133q2 -26 16 -40.5t38 -14.5q23 0 37 13.5t14 34.5q0 15 -6 27t-19 21.5t-22 14.5t-28 13t-23 10q-60 28 -93.5 63t-33.5 90q0 78 65 114q-58 44 -58 116q0 60 45.5 100.5
t126.5 40.5q70 0 115 -39.5t49 -106.5h-121q0 16 -12.5 29.5t-34.5 13.5q-18 0 -30.5 -11.5t-12.5 -28.5q0 -19 13.5 -33t29.5 -21.5t58 -24.5q60 -24 92 -59t32 -92zM293 320q0 23 -21 38.5t-62 29.5q-36 -11 -36 -44q0 -23 20 -38.5t63 -29.5q36 11 36 44z" />
    <glyph glyph-name="dieresis" unicode="&#xa8;" horiz-adv-x="318" 
d="M0 714h128v-126h-128v126zM190 714h128v-126h-128v126z" />
    <glyph glyph-name="copyright" unicode="&#xa9;" horiz-adv-x="816" 
d="M45 341q0 150 106.5 256.5t256.5 106.5q151 0 257 -106.5t106 -256.5t-106 -256.5t-257 -106.5q-150 0 -256.5 106.5t-106.5 256.5zM119 341q0 -120 85 -204.5t204 -84.5q121 0 205 84.5t84 204.5t-84.5 204.5t-204.5 84.5q-119 0 -204 -85t-85 -204zM406 562
q78 0 128 -47.5t63 -107.5h-118q-16 51 -77 51q-46 0 -71 -32t-25 -80q0 -50 26.5 -81.5t73.5 -31.5q27 0 48 17t29 43h118q-19 -70 -71 -116.5t-124 -46.5q-94 0 -152.5 61.5t-58.5 156.5q0 92 60.5 153t150.5 61z" />
    <glyph glyph-name="ordfeminine" unicode="&#xaa;" horiz-adv-x="398" 
d="M377 325q-16 -7 -43 -7q-31 0 -54 14.5t-28 39.5q-18 -28 -48.5 -42.5t-64.5 -14.5q-60 0 -89 31t-29 72q0 64 57 104.5t159 49.5v5q0 23 -11.5 33t-37.5 10q-50 0 -55 -32h-101q6 52 49 84t111 32q74 0 114 -35.5t40 -106.5v-108q0 -37 19 -37q6 0 12 2v-94zM237 496
q-49 -4 -76.5 -21.5t-27.5 -42.5q0 -29 36 -29q27 0 47.5 22t20.5 55v16z" />
    <glyph glyph-name="guillemotleft" unicode="&#xab;" horiz-adv-x="524" 
d="M170 463l99 -54l-83 -161l83 -161l-99 -54l-133 215zM390 463l99 -54l-83 -161l83 -161l-99 -54l-133 215z" />
    <glyph glyph-name="logicalnot" unicode="&#xac;" horiz-adv-x="672" 
d="M475 91v187h-399v120h519v-307h-120z" />
    <glyph glyph-name="uni00AD" unicode="&#xad;" horiz-adv-x="461" 
d="M73 204v120h322v-120h-322z" />
    <glyph glyph-name="registered" unicode="&#xae;" horiz-adv-x="522" 
d="M30 472q0 96 68.5 164t163.5 68t162.5 -67.5t67.5 -164.5q0 -95 -67.5 -162.5t-162.5 -67.5t-163.5 67.5t-68.5 162.5zM86 472q0 -73 51.5 -123.5t124.5 -50.5q74 0 124 50t50 124q0 73 -50.5 124.5t-123.5 51.5t-124.5 -51.5t-51.5 -124.5zM385 354h-84l-51 78h-7v-78
h-78v242h112q48 0 73.5 -23t25.5 -58q0 -26 -14.5 -46t-37.5 -28zM296 512q0 28 -37 28h-16v-55h16q37 0 37 27z" />
    <glyph glyph-name="macron" unicode="&#xaf;" horiz-adv-x="318" 
d="M5 586v105h308v-105h-308z" />
    <glyph glyph-name="degree" unicode="&#xb0;" horiz-adv-x="384" 
d="M48 552q0 59 42 101.5t102 42.5t102 -42.5t42 -101.5t-42 -101.5t-102 -42.5t-102 42.5t-42 101.5zM117 552q0 -32 21.5 -53.5t53.5 -21.5q31 0 53 22t22 53t-22 53t-53 22q-32 0 -53.5 -21.5t-21.5 -53.5z" />
    <glyph glyph-name="plusminus" unicode="&#xb1;" horiz-adv-x="672" 
d="M396 312v-160h-120v160h-199v120h199v160h120v-160h199v-120h-199zM77 0v119h518v-119h-518z" />
    <glyph glyph-name="uni00B2" unicode="&#xb2;" 
d="M51 504l130 139q55 61 55 93q0 15 -9.5 24.5t-23.5 9.5q-38 0 -38 -49h-121q0 66 40.5 108.5t124.5 42.5q68 0 112.5 -37.5t44.5 -95.5q0 -39 -21 -73.5t-80 -94.5l-42 -42h149v-104h-321v79z" />
    <glyph glyph-name="uni00B3" unicode="&#xb3;" 
d="M44 734q0 64 42 101t116 37q76 0 117 -31.5t41 -83.5q0 -34 -20 -59.5t-49 -32.5v-3q40 -11 61.5 -40t21.5 -69q0 -60 -45.5 -101t-128.5 -41q-165 0 -170 149h120q2 -53 50 -53q20 0 33.5 15t13.5 40q0 21 -14.5 34.5t-42.5 13.5h-32v92h34q41 0 41 39q0 14 -9 24.5
t-25 10.5q-35 0 -35 -42h-120z" />
    <glyph glyph-name="acute" unicode="&#xb4;" horiz-adv-x="318" 
d="M229 773l71 -106l-185 -114l-61 90z" />
    <glyph glyph-name="uni00B5" unicode="&#xb5;" horiz-adv-x="605" 
d="M53 479h169v-262q0 -84 61 -84q78 0 78 104v242h169v-283q0 -30 8 -40.5t25 -10.5q10 0 22 3v-148q-34 -12 -77 -12q-109 0 -134 72h-4q-29 -75 -102 -75q-12 0 -29.5 5t-24.5 10l-3 -2q11 -44 11 -122v-89h-169v692z" />
    <glyph glyph-name="paragraph" unicode="&#xb6;" horiz-adv-x="551" 
d="M454 582v-582h-115v582h-60v-582h-115v374q-60 2 -101.5 46.5t-41.5 109.5q0 70 48 111t109 41h331v-100h-55z" />
    <glyph glyph-name="periodcentered" unicode="&#xb7;" horiz-adv-x="304" 
d="M55 438h194v-178h-194v178z" />
    <glyph glyph-name="cedilla" unicode="&#xb8;" horiz-adv-x="318" 
d="M202 0l-16 -39q46 -6 71.5 -35.5t25.5 -67.5q0 -52 -35.5 -83.5t-107.5 -31.5q-55 0 -118 21l30 86q35 -15 77 -15q44 0 44 25q0 36 -93 36l40 104h82z" />
    <glyph glyph-name="uni00B9" unicode="&#xb9;" 
d="M151 755h-69v104h194v-434h-125v330z" />
    <glyph glyph-name="ordmasculine" unicode="&#xba;" horiz-adv-x="448" 
d="M25 510q0 88 57.5 141t141.5 53q86 0 142.5 -54t56.5 -140q0 -83 -57 -139t-142 -56q-84 0 -141.5 53.5t-57.5 141.5zM140 509q0 -38 24.5 -63.5t59.5 -25.5q37 0 60.5 24.5t23.5 64.5q0 39 -23.5 64.5t-60.5 25.5t-60.5 -23.5t-23.5 -66.5z" />
    <glyph glyph-name="guillemotright" unicode="&#xbb;" horiz-adv-x="524" 
d="M134 33l-99 54l83 161l-83 161l99 54l133 -215zM354 33l-99 54l83 161l-83 161l99 54l133 -215z" />
    <glyph glyph-name="onequarter" unicode="&#xbc;" horiz-adv-x="968" 
d="M151 580h-69v104h194v-434h-125v330zM782 682l-477 -682h-109l477 682h109zM884 58v-58h-120v58h-193v87l190 289h123v-288h61v-88h-61zM659 146h105v117q0 12 2 48h-3q-10 -23 -39 -66z" />
    <glyph glyph-name="onehalf" unicode="&#xbd;" horiz-adv-x="998" 
d="M151 580h-69v104h194v-434h-125v330zM782 682l-477 -682h-109l477 682h109zM638 79l130 139q55 61 55 93q0 15 -9.5 24.5t-23.5 9.5q-38 0 -38 -49h-121q0 66 40.5 108.5t124.5 42.5q68 0 112.5 -37.5t44.5 -95.5q0 -39 -21 -73.5t-80 -94.5l-42 -42h149v-104h-321v79z
" />
    <glyph glyph-name="threequarters" unicode="&#xbe;" horiz-adv-x="988" 
d="M44 559q0 64 42 101t116 37q76 0 117 -31.5t41 -83.5q0 -34 -20 -59.5t-49 -32.5v-3q40 -11 61.5 -40t21.5 -69q0 -60 -45.5 -101t-128.5 -41q-165 0 -170 149h120q2 -53 50 -53q20 0 33.5 15t13.5 40q0 21 -14.5 34.5t-42.5 13.5h-32v92h34q41 0 41 39q0 14 -9 24.5
t-25 10.5q-35 0 -35 -42h-120zM802 682l-477 -682h-109l477 682h109zM904 58v-58h-120v58h-193v87l190 289h123v-288h61v-88h-61zM679 146h105v117q0 12 2 48h-3q-10 -23 -39 -66z" />
    <glyph glyph-name="questiondown" unicode="&#xbf;" horiz-adv-x="486" 
d="M337 529h-174v153h174v-153zM135 353q41 34 41 104h148q0 -59 -9 -93t-37 -64q-32 -34 -43.5 -47.5t-20.5 -33.5t-9 -43q0 -20 14.5 -34.5t32.5 -14.5q24 0 38.5 18t14.5 52h161q-2 -104 -58.5 -161.5t-160.5 -57.5q-96 0 -156.5 52.5t-60.5 137.5q0 51 24 94.5t81 90.5z
" />
    <glyph glyph-name="Agrave" unicode="&#xc0;" horiz-adv-x="681" 
d="M249 922l198 -92l-42 -100l-204 74zM265 682h169l240 -682h-180l-44 137h-222l-44 -137h-177zM266 256h146l-47 146q-11 32 -23 83h-5q-16 -60 -24 -84z" />
    <glyph glyph-name="Aacute" unicode="&#xc1;" horiz-adv-x="681" 
d="M499 804l-204 -74l-42 100l198 92zM265 682h169l240 -682h-180l-44 137h-222l-44 -137h-177zM266 256h146l-47 146q-11 32 -23 83h-5q-16 -60 -24 -84z" />
    <glyph glyph-name="Acircumflex" unicode="&#xc2;" horiz-adv-x="681" 
d="M531 812l-40 -84l-141 61l-142 -61l-39 84l181 106zM265 682h169l240 -682h-180l-44 137h-222l-44 -137h-177zM266 256h146l-47 146q-11 32 -23 83h-5q-16 -60 -24 -84z" />
    <glyph glyph-name="Atilde" unicode="&#xc3;" horiz-adv-x="681" 
d="M166 764q3 70 33.5 110t82.5 40q36 0 74 -25t59 -25q28 0 29 40h90q-6 -150 -118 -150q-42 0 -79 25t-53 25q-11 0 -19 -10.5t-9 -29.5h-90zM265 682h169l240 -682h-180l-44 137h-222l-44 -137h-177zM266 256h146l-47 146q-11 32 -23 83h-5q-16 -60 -24 -84z" />
    <glyph glyph-name="Adieresis" unicode="&#xc4;" horiz-adv-x="681" 
d="M189 894h128v-126h-128v126zM379 894h128v-126h-128v126zM265 682h169l240 -682h-180l-44 137h-222l-44 -137h-177zM266 256h146l-47 146q-11 32 -23 83h-5q-16 -60 -24 -84z" />
    <glyph glyph-name="Aring" unicode="&#xc5;" horiz-adv-x="681" 
d="M215 848q0 56 38.5 95t95.5 39q55 0 94.5 -39t39.5 -95t-39.5 -95t-94.5 -39q-57 0 -95.5 39t-38.5 95zM300 848q0 -20 14.5 -34.5t34.5 -14.5t34.5 14.5t14.5 34.5t-14.5 34.5t-34.5 14.5t-34.5 -14.5t-14.5 -34.5zM265 682h169l240 -682h-180l-44 137h-222l-44 -137
h-177zM266 256h146l-47 146q-11 32 -23 83h-5q-16 -60 -24 -84z" />
    <glyph glyph-name="AE" unicode="&#xc6;" horiz-adv-x="946" 
d="M882 529h-249v-106h240v-143h-240v-127h259v-153h-433v137h-202l-68 -137h-197l370 682h520v-153zM311 256h148v273h-10z" />
    <glyph glyph-name="Ccedilla" unicode="&#xc7;" horiz-adv-x="765" 
d="M385 704q136 0 227.5 -80.5t105.5 -184.5h-191q-7 46 -46.5 80t-96.5 34q-81 0 -126.5 -60.5t-45.5 -150.5q0 -87 48.5 -150t124.5 -63q63 0 99.5 37.5t47.5 87.5h198q-24 -110 -106 -187t-209 -87l-7 -19q46 -6 71.5 -35.5t25.5 -67.5q0 -52 -35.5 -83.5t-107.5 -31.5
q-55 0 -118 21l30 86q35 -15 77 -15q44 0 44 25q0 36 -93 36l32 85q-138 16 -221 116.5t-83 245.5q0 156 100 258.5t255 102.5z" />
    <glyph glyph-name="Egrave" unicode="&#xc8;" horiz-adv-x="556" 
d="M190 922l198 -92l-42 -100l-204 74zM492 529h-249v-106h240v-143h-240v-127h259v-153h-438v682h428v-153z" />
    <glyph glyph-name="Eacute" unicode="&#xc9;" horiz-adv-x="556" 
d="M415 804l-204 -74l-42 100l198 92zM492 529h-249v-106h240v-143h-240v-127h259v-153h-438v682h428v-153z" />
    <glyph glyph-name="Ecircumflex" unicode="&#xca;" horiz-adv-x="556" 
d="M462 812l-40 -84l-141 61l-142 -61l-39 84l181 106zM492 529h-249v-106h240v-143h-240v-127h259v-153h-438v682h428v-153z" />
    <glyph glyph-name="Edieresis" unicode="&#xcb;" horiz-adv-x="556" 
d="M116 894h128v-126h-128v126zM306 894h128v-126h-128v126zM492 529h-249v-106h240v-143h-240v-127h259v-153h-438v682h428v-153z" />
    <glyph glyph-name="Igrave" unicode="&#xcc;" horiz-adv-x="307" 
d="M54 922l198 -92l-42 -100l-204 74zM64 682h179v-682h-179v682z" />
    <glyph glyph-name="Iacute" unicode="&#xcd;" horiz-adv-x="307" 
d="M301 804l-204 -74l-42 100l198 92zM64 682h179v-682h-179v682z" />
    <glyph glyph-name="Icircumflex" unicode="&#xce;" horiz-adv-x="307" 
d="M335 812l-40 -84l-141 61l-142 -61l-39 84l181 106zM64 682h179v-682h-179v682z" />
    <glyph glyph-name="Idieresis" unicode="&#xcf;" horiz-adv-x="307" 
d="M-6 894h128v-126h-128v126zM184 894h128v-126h-128v126zM64 682h179v-682h-179v682z" />
    <glyph glyph-name="Eth" unicode="&#xd0;" horiz-adv-x="740" 
d="M15 412h77v270h241q178 0 277.5 -97.5t99.5 -243.5q0 -144 -102.5 -242.5t-276.5 -98.5h-239v286h-77v126zM323 151q102 0 153.5 54t51.5 136q0 85 -52 137.5t-153 52.5h-52v-119h120v-126h-120v-135h52z" />
    <glyph glyph-name="Ntilde" unicode="&#xd1;" horiz-adv-x="683" 
d="M151 764q3 70 33.5 110t82.5 40q37 0 74 -25q38 -25 59 -25q28 0 29 40h90q-6 -150 -118 -150q-42 0 -79 25t-53 25q-11 0 -19 -10.5t-9 -29.5h-90zM210 419q4 -116 4 -122v-297h-150v682h151l170 -272q24 -37 40 -66.5t27.5 -53.5t16.5 -33h3q-3 90 -3 110v315h150v-682
h-150l-145 231q-42 67 -74.5 125t-35.5 63h-4z" />
    <glyph glyph-name="Ograve" unicode="&#xd2;" horiz-adv-x="783" 
d="M318 922l198 -92l-42 -100l-204 74zM30 341q0 149 104 256t260 107q162 0 260.5 -107t98.5 -256q0 -150 -103.5 -256.5t-257.5 -106.5q-90 0 -161.5 32.5t-114 86t-64.5 116.5t-22 128zM212 341q0 -86 51.5 -144t127.5 -58q77 0 128.5 58t51.5 144t-49 144t-129 58
q-77 0 -129 -58t-52 -144z" />
    <glyph glyph-name="Oacute" unicode="&#xd3;" horiz-adv-x="783" 
d="M528 804l-204 -74l-42 100l198 92zM30 341q0 149 104 256t260 107q162 0 260.5 -107t98.5 -256q0 -150 -103.5 -256.5t-257.5 -106.5q-90 0 -161.5 32.5t-114 86t-64.5 116.5t-22 128zM212 341q0 -86 51.5 -144t127.5 -58q77 0 128.5 58t51.5 144t-49 144t-129 58
q-77 0 -129 -58t-52 -144z" />
    <glyph glyph-name="Ocircumflex" unicode="&#xd4;" horiz-adv-x="783" 
d="M580 812l-40 -84l-141 61l-142 -61l-39 84l181 106zM30 341q0 149 104 256t260 107q162 0 260.5 -107t98.5 -256q0 -150 -103.5 -256.5t-257.5 -106.5q-90 0 -161.5 32.5t-114 86t-64.5 116.5t-22 128zM212 341q0 -86 51.5 -144t127.5 -58q77 0 128.5 58t51.5 144
t-49 144t-129 58q-77 0 -129 -58t-52 -144z" />
    <glyph glyph-name="Otilde" unicode="&#xd5;" horiz-adv-x="783" 
d="M215 764q3 70 33.5 110t82.5 40q37 0 74 -25t59 -25q28 0 29 40h90q-6 -150 -118 -150q-42 0 -79 25t-53 25q-11 0 -19 -10.5t-9 -29.5h-90zM30 341q0 149 104 256t260 107q162 0 260.5 -107t98.5 -256q0 -150 -103.5 -256.5t-257.5 -106.5q-90 0 -161.5 32.5t-114 86
t-64.5 116.5t-22 128zM212 341q0 -86 51.5 -144t127.5 -58q77 0 128.5 58t51.5 144t-49 144t-129 58q-77 0 -129 -58t-52 -144z" />
    <glyph glyph-name="Odieresis" unicode="&#xd6;" horiz-adv-x="783" 
d="M240 894h128v-126h-128v126zM430 894h128v-126h-128v126zM30 341q0 149 104 256t260 107q162 0 260.5 -107t98.5 -256q0 -150 -103.5 -256.5t-257.5 -106.5q-90 0 -161.5 32.5t-114 86t-64.5 116.5t-22 128zM212 341q0 -86 51.5 -144t127.5 -58q77 0 128.5 58t51.5 144
t-49 144t-129 58q-77 0 -129 -58t-52 -144z" />
    <glyph glyph-name="multiply" unicode="&#xd7;" horiz-adv-x="672" 
d="M507 9l-171 171l-175 -175l-85 85l175 175l-171 171l85 85l171 -171l175 175l85 -85l-175 -175l171 -171z" />
    <glyph glyph-name="Oslash" unicode="&#xd8;" horiz-adv-x="783" 
d="M30 341q0 149 104 256t260 107q113 0 199 -56l91 98l91 -80l-94 -102q72 -97 72 -223q0 -150 -103.5 -256.5t-257.5 -106.5q-116 0 -201 53l-91 -98l-91 80l93 101q-72 98 -72 227zM202 341q0 -52 20 -97l262 285q-42 24 -91 24q-81 0 -136 -60.5t-55 -151.5zM581 341
q0 48 -18 95l-261 -284q40 -23 89 -23q81 0 135.5 61t54.5 151z" />
    <glyph glyph-name="Ugrave" unicode="&#xd9;" horiz-adv-x="641" 
d="M225 922l198 -92l-42 -100l-204 74zM321 -22q-124 0 -195.5 69t-71.5 222v413h179v-423q0 -130 87 -130q89 0 89 130v423h178v-411q0 -150 -70 -221.5t-196 -71.5z" />
    <glyph glyph-name="Uacute" unicode="&#xda;" horiz-adv-x="641" 
d="M462 804l-204 -74l-42 100l198 92zM321 -22q-124 0 -195.5 69t-71.5 222v413h179v-423q0 -130 87 -130q89 0 89 130v423h178v-411q0 -150 -70 -221.5t-196 -71.5z" />
    <glyph glyph-name="Ucircumflex" unicode="&#xdb;" horiz-adv-x="641" 
d="M501 812l-40 -84l-141 61l-142 -61l-39 84l181 106zM321 -22q-124 0 -195.5 69t-71.5 222v413h179v-423q0 -130 87 -130q89 0 89 130v423h178v-411q0 -150 -70 -221.5t-196 -71.5z" />
    <glyph glyph-name="Udieresis" unicode="&#xdc;" horiz-adv-x="641" 
d="M161 894h128v-126h-128v126zM351 894h128v-126h-128v126zM321 -22q-124 0 -195.5 69t-71.5 222v413h179v-423q0 -130 87 -130q89 0 89 130v423h178v-411q0 -150 -70 -221.5t-196 -71.5z" />
    <glyph glyph-name="Yacute" unicode="&#xdd;" horiz-adv-x="637" 
d="M468 804l-204 -74l-42 100l198 92zM230 268l-226 414h193l90 -175q23 -44 36 -89h2q13 41 36 88l84 176h188l-224 -413v-269h-179v268z" />
    <glyph glyph-name="Thorn" unicode="&#xde;" horiz-adv-x="578" 
d="M64 682h179v-111h51q111 0 182.5 -55t71.5 -165q0 -106 -65 -164t-192 -58h-48v-129h-179v682zM368 349q0 36 -20.5 59.5t-62.5 23.5h-42v-164h40q85 0 85 81z" />
    <glyph glyph-name="germandbls" unicode="&#xdf;" horiz-adv-x="654" 
d="M554 545q0 -79 -87 -128q-40 -23 -53.5 -34t-13.5 -25q0 -17 18.5 -29.5t75.5 -32.5q80 -27 108.5 -65.5t28.5 -87.5q0 -67 -50.5 -113.5t-147.5 -46.5q-95 0 -144 43.5t-49 121.5h146q0 -59 49 -59q18 0 29 11.5t11 27.5q0 22 -19 35t-68 30q-77 27 -108.5 63t-31.5 89
q0 85 85 130q56 30 56 64q0 23 -19.5 38.5t-57.5 15.5q-85 0 -85 -98v-495h-169v500q0 109 69.5 167t189.5 58q102 0 169.5 -49t67.5 -131z" />
    <glyph glyph-name="agrave" unicode="&#xe0;" horiz-adv-x="599" 
d="M220 773l175 -130l-61 -90l-185 114zM538 0h-160v57h-6q-53 -73 -144 -73q-30 0 -62 13t-65 40.5t-54 80.5t-21 122q0 113 64 182t151 69q89 0 131 -69h6v57h160v-479zM197 239q0 -47 23.5 -78t68.5 -31q36 0 62 30.5t26 77.5q0 49 -25 79.5t-63 30.5q-44 0 -68 -32.5
t-24 -76.5z" />
    <glyph glyph-name="aacute" unicode="&#xe1;" horiz-adv-x="599" 
d="M360 773l71 -106l-185 -114l-61 90zM538 0h-160v57h-6q-53 -73 -144 -73q-30 0 -62 13t-65 40.5t-54 80.5t-21 122q0 113 64 182t151 69q89 0 131 -69h6v57h160v-479zM197 239q0 -47 23.5 -78t68.5 -31q36 0 62 30.5t26 77.5q0 49 -25 79.5t-63 30.5q-44 0 -68 -32.5
t-24 -76.5z" />
    <glyph glyph-name="acircumflex" unicode="&#xe2;" horiz-adv-x="599" 
d="M469 631l-53 -83l-126 75l-126 -75l-53 83l179 127zM538 0h-160v57h-6q-53 -73 -144 -73q-30 0 -62 13t-65 40.5t-54 80.5t-21 122q0 113 64 182t151 69q89 0 131 -69h6v57h160v-479zM197 239q0 -47 23.5 -78t68.5 -31q36 0 62 30.5t26 77.5q0 49 -25 79.5t-63 30.5
q-44 0 -68 -32.5t-24 -76.5z" />
    <glyph glyph-name="atilde" unicode="&#xe3;" horiz-adv-x="599" 
d="M106 584q3 70 33.5 110t82.5 40q36 0 74 -25t59 -25q28 0 29 40h90q-6 -150 -118 -150q-42 0 -79 25t-53 25q-11 0 -19 -10.5t-9 -29.5h-90zM538 0h-160v57h-6q-53 -73 -144 -73q-30 0 -62 13t-65 40.5t-54 80.5t-21 122q0 113 64 182t151 69q89 0 131 -69h6v57h160v-479
zM197 239q0 -47 23.5 -78t68.5 -31q36 0 62 30.5t26 77.5q0 49 -25 79.5t-63 30.5q-44 0 -68 -32.5t-24 -76.5z" />
    <glyph glyph-name="adieresis" unicode="&#xe4;" horiz-adv-x="599" 
d="M131 714h128v-126h-128v126zM321 714h128v-126h-128v126zM538 0h-160v57h-6q-53 -73 -144 -73q-30 0 -62 13t-65 40.5t-54 80.5t-21 122q0 113 64 182t151 69q89 0 131 -69h6v57h160v-479zM197 239q0 -47 23.5 -78t68.5 -31q36 0 62 30.5t26 77.5q0 49 -25 79.5t-63 30.5
q-44 0 -68 -32.5t-24 -76.5z" />
    <glyph glyph-name="aring" unicode="&#xe5;" horiz-adv-x="599" 
d="M158 663q0 56 38.5 95t95.5 39q56 0 95 -39.5t39 -94.5t-39 -94.5t-95 -39.5q-57 0 -95.5 39t-38.5 95zM243 663q0 -20 14.5 -34.5t34.5 -14.5t34.5 14.5t14.5 34.5t-14.5 34.5t-34.5 14.5t-34.5 -14.5t-14.5 -34.5zM538 0h-160v57h-6q-53 -73 -144 -73q-30 0 -62 13
t-65 40.5t-54 80.5t-21 122q0 113 64 182t151 69q89 0 131 -69h6v57h160v-479zM197 239q0 -47 23.5 -78t68.5 -31q36 0 62 30.5t26 77.5q0 49 -25 79.5t-63 30.5q-44 0 -68 -32.5t-24 -76.5z" />
    <glyph glyph-name="ae" unicode="&#xe6;" horiz-adv-x="867" 
d="M593 495q115 -1 179 -74t64 -180q0 -26 -2 -38h-336q0 -39 26 -69.5t71 -30.5q57 0 79 45h156q-57 -165 -238 -165q-126 0 -192 86q-75 -86 -190 -86q-90 0 -138 43.5t-48 113.5q0 166 255 166h66v14q0 33 -22 50t-58 17q-37 0 -58 -14.5t-23 -34.5h-142q5 64 60.5 110
t156.5 46q123 0 167 -63q61 64 167 64zM590 386q-37 0 -63 -23.5t-28 -56.5h174q-2 33 -23.5 56.5t-59.5 23.5zM280 203q-55 0 -76.5 -15t-21.5 -45q0 -24 12.5 -37.5t35.5 -13.5q45 0 78 30t37 81h-65z" />
    <glyph glyph-name="ccedilla" unicode="&#xe7;" horiz-adv-x="553" 
d="M284 495q96 0 158 -58.5t74 -137.5h-163q-5 25 -24.5 40t-46.5 15q-44 0 -64.5 -32t-20.5 -82t22 -82.5t66 -32.5q28 0 47.5 16.5t26.5 42.5h166q-20 -83 -72.5 -136t-133.5 -63l-10 -24q46 -6 71.5 -35.5t25.5 -67.5q0 -52 -35.5 -83.5t-107.5 -31.5q-55 0 -118 21
l30 86q35 -15 77 -15q44 0 44 25q0 36 -93 36l34 90q-91 13 -151 82t-60 173q0 108 70 181t188 73z" />
    <glyph glyph-name="egrave" unicode="&#xe8;" horiz-adv-x="557" 
d="M204 773l175 -130l-61 -90l-185 114zM278 495q110 0 179 -70.5t69 -183.5q0 -22 -2 -40h-336q0 -41 28 -69.5t69 -28.5q56 0 79 45h156q-25 -75 -84 -120t-154 -45q-107 0 -181.5 71t-74.5 187q0 110 66.5 182t185.5 72zM276 386q-37 0 -60 -22.5t-27 -55.5h174
q-4 34 -27.5 56t-59.5 22z" />
    <glyph glyph-name="eacute" unicode="&#xe9;" horiz-adv-x="557" 
d="M344 773l71 -106l-185 -114l-61 90zM278 495q110 0 179 -70.5t69 -183.5q0 -22 -2 -40h-336q0 -41 28 -69.5t69 -28.5q56 0 79 45h156q-25 -75 -84 -120t-154 -45q-107 0 -181.5 71t-74.5 187q0 110 66.5 182t185.5 72zM276 386q-37 0 -60 -22.5t-27 -55.5h174
q-4 34 -27.5 56t-59.5 22z" />
    <glyph glyph-name="ecircumflex" unicode="&#xea;" horiz-adv-x="557" 
d="M453 631l-53 -83l-126 75l-126 -75l-53 83l179 127zM278 495q110 0 179 -70.5t69 -183.5q0 -22 -2 -40h-336q0 -41 28 -69.5t69 -28.5q56 0 79 45h156q-25 -75 -84 -120t-154 -45q-107 0 -181.5 71t-74.5 187q0 110 66.5 182t185.5 72zM276 386q-37 0 -60 -22.5
t-27 -55.5h174q-4 34 -27.5 56t-59.5 22z" />
    <glyph glyph-name="edieresis" unicode="&#xeb;" horiz-adv-x="557" 
d="M115 714h128v-126h-128v126zM305 714h128v-126h-128v126zM278 495q110 0 179 -70.5t69 -183.5q0 -22 -2 -40h-336q0 -41 28 -69.5t69 -28.5q56 0 79 45h156q-25 -75 -84 -120t-154 -45q-107 0 -181.5 71t-74.5 187q0 110 66.5 182t185.5 72zM276 386q-37 0 -60 -22.5
t-27 -55.5h174q-4 34 -27.5 56t-59.5 22z" />
    <glyph glyph-name="igrave" unicode="&#xec;" horiz-adv-x="285" 
d="M73 773l175 -130l-61 -90l-185 114zM58 479h169v-479h-169v479z" />
    <glyph glyph-name="iacute" unicode="&#xed;" horiz-adv-x="285" 
d="M213 773l71 -106l-185 -114l-61 90zM58 479h169v-479h-169v479z" />
    <glyph glyph-name="icircumflex" unicode="&#xee;" horiz-adv-x="285" 
d="M322 631l-53 -83l-126 75l-126 -75l-53 83l179 127zM58 479h169v-479h-169v479z" />
    <glyph glyph-name="idieresis" unicode="&#xef;" horiz-adv-x="285" 
d="M-16 714h128v-126h-128v126zM174 714h128v-126h-128v126zM58 479h169v-479h-169v479z" />
    <glyph glyph-name="eth" unicode="&#xf0;" horiz-adv-x="564" 
d="M114 592l73 40q-40 43 -97 88h176q19 -12 44 -31l85 47l50 -93l-55 -30q76 -87 112 -167.5t36 -191.5q0 -118 -71.5 -194.5t-184.5 -76.5q-110 0 -183 74t-73 183q0 110 74.5 179.5t186.5 69.5q11 0 17 -2l3 4q-25 39 -48 60l-95 -51zM194 239q0 -47 24.5 -77t63.5 -30
q42 0 65 30t23 77q0 46 -23 76.5t-65 30.5t-65 -29.5t-23 -77.5z" />
    <glyph glyph-name="ntilde" unicode="&#xf1;" horiz-adv-x="598" 
d="M113 584q3 70 33.5 110t82.5 40q37 0 74 -25t59 -25q28 0 29 40h90q-6 -150 -118 -150q-42 0 -79 25t-53 25q-11 0 -19 -10.5t-9 -29.5h-90zM58 479h166v-60h4q20 36 56.5 55.5t80.5 19.5q89 0 134.5 -58t45.5 -164v-272h-169v262q0 84 -71 84q-33 0 -55.5 -24.5
t-22.5 -69.5v-252h-169v479z" />
    <glyph glyph-name="ograve" unicode="&#xf2;" horiz-adv-x="564" 
d="M225 773l175 -130l-61 -90l-185 114zM26 240q0 111 72.5 183t183.5 72q113 0 184.5 -72.5t71.5 -182.5q0 -108 -72.5 -182.5t-183.5 -74.5q-110 0 -183 74t-73 183zM195 239q0 -47 24 -77t63 -30q41 0 64 30t23 77q0 46 -22.5 76.5t-64.5 30.5t-64.5 -29.5t-22.5 -77.5z
" />
    <glyph glyph-name="oacute" unicode="&#xf3;" horiz-adv-x="564" 
d="M339 773l71 -106l-185 -114l-61 90zM26 240q0 111 72.5 183t183.5 72q113 0 184.5 -72.5t71.5 -182.5q0 -108 -72.5 -182.5t-183.5 -74.5q-110 0 -183 74t-73 183zM195 239q0 -47 24 -77t63 -30q41 0 64 30t23 77q0 46 -22.5 76.5t-64.5 30.5t-64.5 -29.5t-22.5 -77.5z
" />
    <glyph glyph-name="ocircumflex" unicode="&#xf4;" horiz-adv-x="564" 
d="M461 631l-53 -83l-126 75l-126 -75l-53 83l179 127zM26 240q0 111 72.5 183t183.5 72q113 0 184.5 -72.5t71.5 -182.5q0 -108 -72.5 -182.5t-183.5 -74.5q-110 0 -183 74t-73 183zM195 239q0 -47 24 -77t63 -30q41 0 64 30t23 77q0 46 -22.5 76.5t-64.5 30.5t-64.5 -29.5
t-22.5 -77.5z" />
    <glyph glyph-name="otilde" unicode="&#xf5;" horiz-adv-x="564" 
d="M98 584q3 70 33.5 110t82.5 40q36 0 74 -25t59 -25q28 0 29 40h90q-6 -150 -118 -150q-42 0 -79 25t-53 25q-11 0 -19 -10.5t-9 -29.5h-90zM26 240q0 111 72.5 183t183.5 72q113 0 184.5 -72.5t71.5 -182.5q0 -108 -72.5 -182.5t-183.5 -74.5q-110 0 -183 74t-73 183z
M195 239q0 -47 24 -77t63 -30q41 0 64 30t23 77q0 46 -22.5 76.5t-64.5 30.5t-64.5 -29.5t-22.5 -77.5z" />
    <glyph glyph-name="odieresis" unicode="&#xf6;" horiz-adv-x="564" 
d="M123 714h128v-126h-128v126zM313 714h128v-126h-128v126zM26 240q0 111 72.5 183t183.5 72q113 0 184.5 -72.5t71.5 -182.5q0 -108 -72.5 -182.5t-183.5 -74.5q-110 0 -183 74t-73 183zM195 239q0 -47 24 -77t63 -30q41 0 64 30t23 77q0 46 -22.5 76.5t-64.5 30.5
t-64.5 -29.5t-22.5 -77.5z" />
    <glyph glyph-name="divide" unicode="&#xf7;" horiz-adv-x="672" 
d="M420 456q0 -37 -24.5 -60t-58.5 -23t-59 24.5t-25 56.5q0 36 24 60.5t60 24.5t59.5 -23.5t23.5 -59.5zM77 204v119h518v-119h-518zM420 72q0 -37 -25 -61.5t-58 -24.5q-34 0 -59 25.5t-25 59.5t24 58.5t60 24.5t59.5 -24t23.5 -58z" />
    <glyph glyph-name="oslash" unicode="&#xf8;" horiz-adv-x="564" 
d="M26 240q0 111 72.5 183t183.5 72q71 0 128 -31l64 72l77 -69l-62 -71q49 -68 49 -156q0 -108 -72.5 -182.5t-183.5 -74.5q-67 0 -127 31l-63 -71l-79 68l63 72q-50 67 -50 157zM184 239q0 -22 7 -48l136 154q-20 11 -45 11q-47 0 -72.5 -32.5t-25.5 -84.5zM380 239
q0 27 -7 48l-136 -154q20 -11 45 -11q46 0 72 32.5t26 84.5z" />
    <glyph glyph-name="ugrave" unicode="&#xf9;" horiz-adv-x="588" 
d="M220 773l175 -130l-61 -90l-185 114zM530 0h-166v60h-4q-50 -75 -137 -75q-31 0 -59 10t-54 32t-41.5 64.5t-15.5 100.5v287h169v-262q0 -40 18 -62t48 -22q34 0 53.5 24t19.5 70v252h169v-479z" />
    <glyph glyph-name="uacute" unicode="&#xfa;" horiz-adv-x="588" 
d="M360 773l71 -106l-185 -114l-61 90zM530 0h-166v60h-4q-50 -75 -137 -75q-31 0 -59 10t-54 32t-41.5 64.5t-15.5 100.5v287h169v-262q0 -40 18 -62t48 -22q34 0 53.5 24t19.5 70v252h169v-479z" />
    <glyph glyph-name="ucircumflex" unicode="&#xfb;" horiz-adv-x="588" 
d="M469 631l-53 -83l-126 75l-126 -75l-53 83l179 127zM530 0h-166v60h-4q-50 -75 -137 -75q-31 0 -59 10t-54 32t-41.5 64.5t-15.5 100.5v287h169v-262q0 -40 18 -62t48 -22q34 0 53.5 24t19.5 70v252h169v-479z" />
    <glyph glyph-name="udieresis" unicode="&#xfc;" horiz-adv-x="588" 
d="M131 714h128v-126h-128v126zM321 714h128v-126h-128v126zM530 0h-166v60h-4q-50 -75 -137 -75q-31 0 -59 10t-54 32t-41.5 64.5t-15.5 100.5v287h169v-262q0 -40 18 -62t48 -22q34 0 53.5 24t19.5 70v252h169v-479z" />
    <glyph glyph-name="yacute" unicode="&#xfd;" horiz-adv-x="488" 
d="M326 773l71 -106l-185 -114l-61 90zM239 -235h-159l89 241l-173 473h175l50 -166q23 -74 33 -127h4q9 54 30 127l48 166h164z" />
    <glyph glyph-name="thorn" unicode="&#xfe;" horiz-adv-x="599" 
d="M59 720h164v-291h5q51 62 137 62q29 0 62 -13t66.5 -40.5t55.5 -80.5t22 -122q0 -113 -65.5 -182t-153.5 -69q-80 0 -124 63h-5v-282h-164v955zM400 236q0 47 -23.5 78t-68.5 31q-36 0 -62 -30.5t-26 -77.5q0 -49 25 -79.5t63 -30.5q44 0 68 32.5t24 76.5z" />
    <glyph glyph-name="ydieresis" unicode="&#xff;" horiz-adv-x="488" 
d="M97 714h128v-126h-128v126zM287 714h128v-126h-128v126zM239 -235h-159l89 241l-173 473h175l50 -166q23 -74 33 -127h4q9 54 30 127l48 166h164z" />
    <glyph glyph-name="Amacron" unicode="&#x100;" horiz-adv-x="681" 
d="M201 766v105h308v-105h-308zM265 682h169l240 -682h-180l-44 137h-222l-44 -137h-177zM266 256h146l-47 146q-11 32 -23 83h-5q-16 -60 -24 -84z" />
    <glyph glyph-name="amacron" unicode="&#x101;" horiz-adv-x="599" 
d="M136 586v105h308v-105h-308zM538 0h-160v57h-6q-53 -73 -144 -73q-30 0 -62 13t-65 40.5t-54 80.5t-21 122q0 113 64 182t151 69q89 0 131 -69h6v57h160v-479zM197 239q0 -47 23.5 -78t68.5 -31q36 0 62 30.5t26 77.5q0 49 -25 79.5t-63 30.5q-44 0 -68 -32.5t-24 -76.5z
" />
    <glyph glyph-name="Abreve" unicode="&#x102;" horiz-adv-x="681" 
d="M522 899q-4 -71 -53 -111.5t-121 -40.5q-79 0 -124.5 40.5t-49.5 111.5h104q2 -22 21 -34.5t49 -12.5q31 0 50 12.5t20 34.5h104zM265 682h169l240 -682h-180l-44 137h-222l-44 -137h-177zM266 256h146l-47 146q-11 32 -23 83h-5q-16 -60 -24 -84z" />
    <glyph glyph-name="abreve" unicode="&#x103;" horiz-adv-x="599" 
d="M454 734q-4 -79 -53 -123t-121 -44q-78 0 -124 43t-50 124h104q3 -26 21 -41.5t49 -15.5t49.5 16t20.5 41h104zM538 0h-160v57h-6q-53 -73 -144 -73q-30 0 -62 13t-65 40.5t-54 80.5t-21 122q0 113 64 182t151 69q89 0 131 -69h6v57h160v-479zM197 239q0 -47 23.5 -78
t68.5 -31q36 0 62 30.5t26 77.5q0 49 -25 79.5t-63 30.5q-44 0 -68 -32.5t-24 -76.5z" />
    <glyph glyph-name="Aogonek" unicode="&#x104;" horiz-adv-x="681" 
d="M660 -228q-24 -7 -71 -7q-60 0 -92 33.5t-32 83.5q0 36 22.5 68.5t56.5 49.5h-50l-44 137h-222l-44 -137h-177l258 682h169l240 -682h-10q-31 0 -57 -25t-26 -60q0 -40 46 -40q15 0 33 4v-107zM266 256h146l-39 122q-21 64 -31 107h-5q-16 -60 -24 -84z" />
    <glyph glyph-name="aogonek" unicode="&#x105;" horiz-adv-x="599" 
d="M538 -228q-24 -7 -71 -7q-60 0 -92 33.5t-32 83.5q0 36 22.5 68.5t56.5 49.5h-44v57h-6q-39 -53 -94 -67q-22 -6 -50 -6q-30 0 -62 13t-65 40.5t-54 80.5t-21 122q0 113 64 182t151 69q25 0 46 -6q55 -15 85 -63h6v57h160v-479q-33 0 -56 -26.5t-23 -58.5q0 -40 46 -40
q15 0 33 4v-107zM197 239q0 -47 23.5 -78t68.5 -31q36 0 62 30.5t26 77.5q0 49 -25 79.5t-63 30.5q-44 0 -68 -32.5t-24 -76.5z" />
    <glyph glyph-name="Cacute" unicode="&#x106;" horiz-adv-x="765" 
d="M543 804l-204 -74l-42 100l198 92zM385 704q136 0 227.5 -80.5t105.5 -184.5h-191q-7 46 -46.5 80t-96.5 34q-81 0 -126.5 -60.5t-45.5 -150.5q0 -87 48.5 -150t124.5 -63q63 0 99.5 37.5t47.5 87.5h198q-26 -118 -117 -197t-232 -79q-157 0 -254 103.5t-97 261.5
q0 156 100 258.5t255 102.5z" />
    <glyph glyph-name="cacute" unicode="&#x107;" horiz-adv-x="553" 
d="M350 773l71 -106l-185 -114l-61 90zM284 495q96 0 158 -58.5t74 -137.5h-163q-5 25 -24.5 40t-46.5 15q-44 0 -64.5 -32t-20.5 -82t22 -82.5t66 -32.5q28 0 47.5 16.5t26.5 42.5h166q-22 -91 -83.5 -146t-159.5 -55q-107 0 -181.5 71t-74.5 187q0 108 70 181t188 73z" />
    <glyph glyph-name="Ccircumflex" unicode="&#x108;" horiz-adv-x="765" 
d="M569 812l-40 -84l-141 61l-142 -61l-39 84l181 106zM385 704q136 0 227.5 -80.5t105.5 -184.5h-191q-7 46 -46.5 80t-96.5 34q-81 0 -126.5 -60.5t-45.5 -150.5q0 -87 48.5 -150t124.5 -63q63 0 99.5 37.5t47.5 87.5h198q-26 -118 -117 -197t-232 -79q-157 0 -254 103.5
t-97 261.5q0 156 100 258.5t255 102.5z" />
    <glyph glyph-name="ccircumflex" unicode="&#x109;" horiz-adv-x="553" 
d="M459 631l-53 -83l-126 75l-126 -75l-53 83l179 127zM284 495q96 0 158 -58.5t74 -137.5h-163q-5 25 -24.5 40t-46.5 15q-44 0 -64.5 -32t-20.5 -82t22 -82.5t66 -32.5q28 0 47.5 16.5t26.5 42.5h166q-22 -91 -83.5 -146t-159.5 -55q-107 0 -181.5 71t-74.5 187
q0 108 70 181t188 73z" />
    <glyph glyph-name="Cdotaccent" unicode="&#x10a;" horiz-adv-x="765" 
d="M321 898h134v-129h-134v129zM385 704q136 0 227.5 -80.5t105.5 -184.5h-191q-7 46 -46.5 80t-96.5 34q-81 0 -126.5 -60.5t-45.5 -150.5q0 -87 48.5 -150t124.5 -63q63 0 99.5 37.5t47.5 87.5h198q-26 -118 -117 -197t-232 -79q-157 0 -254 103.5t-97 261.5
q0 156 100 258.5t255 102.5z" />
    <glyph glyph-name="cdotaccent" unicode="&#x10b;" horiz-adv-x="553" 
d="M213 713h134v-129h-134v129zM284 495q96 0 158 -58.5t74 -137.5h-163q-5 25 -24.5 40t-46.5 15q-44 0 -64.5 -32t-20.5 -82t22 -82.5t66 -32.5q28 0 47.5 16.5t26.5 42.5h166q-22 -91 -83.5 -146t-159.5 -55q-107 0 -181.5 71t-74.5 187q0 108 70 181t188 73z" />
    <glyph glyph-name="Ccaron" unicode="&#x10c;" horiz-adv-x="765" 
d="M209 834l40 84l141 -61l142 61l39 -84l-181 -106zM385 704q136 0 227.5 -80.5t105.5 -184.5h-191q-7 46 -46.5 80t-96.5 34q-81 0 -126.5 -60.5t-45.5 -150.5q0 -87 48.5 -150t124.5 -63q63 0 99.5 37.5t47.5 87.5h198q-26 -118 -117 -197t-232 -79q-157 0 -254 103.5
t-97 261.5q0 156 100 258.5t255 102.5z" />
    <glyph glyph-name="ccaron" unicode="&#x10d;" horiz-adv-x="553" 
d="M101 675l53 83l126 -75l126 75l53 -83l-179 -127zM284 495q96 0 158 -58.5t74 -137.5h-163q-5 25 -24.5 40t-46.5 15q-44 0 -64.5 -32t-20.5 -82t22 -82.5t66 -32.5q28 0 47.5 16.5t26.5 42.5h166q-22 -91 -83.5 -146t-159.5 -55q-107 0 -181.5 71t-74.5 187
q0 108 70 181t188 73z" />
    <glyph glyph-name="Dcaron" unicode="&#x10e;" horiz-adv-x="713" 
d="M132 834l40 84l141 -61l142 61l39 -84l-181 -106zM306 682q178 0 277.5 -97.5t99.5 -243.5q0 -144 -102.5 -242.5t-276.5 -98.5h-239v682h241zM296 156q102 0 153.5 52t51.5 133q0 85 -52 135t-153 50h-52v-370h52z" />
    <glyph glyph-name="dcaron" unicode="&#x10f;" horiz-adv-x="739" 
d="M538 0h-161v45h-5q-60 -62 -144 -62q-22 0 -47.5 7.5t-53.5 26.5t-50 47.5t-36.5 74t-14.5 101.5q0 114 65.5 184.5t153.5 70.5q80 0 124 -63h5v288h164v-720zM603 720h130v-69q0 -77 -41 -133h-71q29 45 29 98h-47v104zM197 239q0 -47 23.5 -78.5t68.5 -31.5q36 0 62 31
t26 78q0 49 -25 81.5t-63 32.5q-44 0 -68 -34t-24 -79z" />
    <glyph glyph-name="Dcroat" unicode="&#x110;" horiz-adv-x="740" 
d="M15 412h77v270h241q178 0 277.5 -97.5t99.5 -243.5q0 -144 -102.5 -242.5t-276.5 -98.5h-239v286h-77v126zM323 151q102 0 153.5 54t51.5 136q0 85 -52 137.5t-153 52.5h-52v-119h120v-126h-120v-135h52z" />
    <glyph glyph-name="dcroat" unicode="&#x111;" horiz-adv-x="599" 
d="M538 547v-547h-161v45h-5q-60 -62 -144 -62q-22 0 -47.5 7.5t-53.5 26.5t-50 47.5t-36.5 74t-14.5 101.5q0 114 65.5 184.5t153.5 70.5q80 0 124 -63h5v115h-130v105h130v68h164v-68h61v-105h-61zM197 239q0 -47 23.5 -78.5t68.5 -31.5q36 0 62 31t26 78q0 49 -25 81.5
t-63 32.5q-44 0 -68 -34t-24 -79z" />
    <glyph glyph-name="Emacron" unicode="&#x112;" horiz-adv-x="556" 
d="M122 766v105h308v-105h-308zM492 529h-249v-106h240v-143h-240v-127h259v-153h-438v682h428v-153z" />
    <glyph glyph-name="emacron" unicode="&#x113;" horiz-adv-x="557" 
d="M120 586v105h308v-105h-308zM278 495q110 0 179 -70.5t69 -183.5q0 -22 -2 -40h-336q0 -41 28 -69.5t69 -28.5q56 0 79 45h156q-25 -75 -84 -120t-154 -45q-107 0 -181.5 71t-74.5 187q0 110 66.5 182t185.5 72zM276 386q-37 0 -60 -22.5t-27 -55.5h174q-4 34 -27.5 56
t-59.5 22z" />
    <glyph glyph-name="Ebreve" unicode="&#x114;" horiz-adv-x="556" 
d="M445 899q-4 -71 -53 -111.5t-121 -40.5q-79 0 -124.5 40.5t-49.5 111.5h104q2 -22 21 -34.5t49 -12.5q31 0 50 12.5t20 34.5h104zM492 529h-249v-106h240v-143h-240v-127h259v-153h-438v682h428v-153z" />
    <glyph glyph-name="ebreve" unicode="&#x115;" horiz-adv-x="557" 
d="M450 734q-4 -79 -53 -123t-121 -44q-78 0 -124 43t-50 124h104q3 -26 21 -41.5t49 -15.5t49.5 16t20.5 41h104zM278 495q110 0 179 -70.5t69 -183.5q0 -22 -2 -40h-336q0 -41 28 -69.5t69 -28.5q56 0 79 45h156q-25 -75 -84 -120t-154 -45q-107 0 -181.5 71t-74.5 187
q0 110 66.5 182t185.5 72zM276 386q-37 0 -60 -22.5t-27 -55.5h174q-4 34 -27.5 56t-59.5 22z" />
    <glyph glyph-name="Edotaccent" unicode="&#x116;" horiz-adv-x="556" 
d="M209 898h134v-129h-134v129zM492 529h-249v-106h240v-143h-240v-127h259v-153h-438v682h428v-153z" />
    <glyph glyph-name="edotaccent" unicode="&#x117;" horiz-adv-x="557" 
d="M209 713h134v-129h-134v129zM278 495q110 0 179 -70.5t69 -183.5q0 -22 -2 -40h-336q0 -41 28 -69.5t69 -28.5q56 0 79 45h156q-25 -75 -84 -120t-154 -45q-107 0 -181.5 71t-74.5 187q0 110 66.5 182t185.5 72zM276 386q-37 0 -60 -22.5t-27 -55.5h174q-4 34 -27.5 56
t-59.5 22z" />
    <glyph glyph-name="Eogonek" unicode="&#x118;" horiz-adv-x="556" 
d="M483 -228q-25 -7 -71 -7q-60 0 -92 33.5t-32 83.5q0 36 22.5 68.5t56.5 49.5h-303v682h428v-153h-249v-106h240v-143h-240v-127h259v-153h-15q-29 0 -56 -24.5t-27 -60.5q0 -40 46 -40q15 0 33 4v-107z" />
    <glyph glyph-name="eogonek" unicode="&#x119;" horiz-adv-x="557" 
d="M429 -228q-24 -7 -71 -7q-60 0 -92 33.5t-32 83.5q0 59 52 101h-4q-107 0 -181.5 71t-74.5 187q0 110 66.5 182t185.5 72q110 0 179 -70.5t69 -183.5q0 -22 -2 -40h-336q0 -41 28 -69.5t69 -28.5q56 0 79 45h156q-26 -80 -103 -135q-67 -48 -67 -98q0 -40 46 -40
q15 0 33 4v-107zM276 386q-37 0 -60 -22.5t-27 -55.5h174q-4 34 -27.5 56t-59.5 22z" />
    <glyph glyph-name="Ecaron" unicode="&#x11a;" horiz-adv-x="556" 
d="M95 834l40 84l141 -61l142 61l39 -84l-181 -106zM492 529h-249v-106h240v-143h-240v-127h259v-153h-438v682h428v-153z" />
    <glyph glyph-name="ecaron" unicode="&#x11b;" horiz-adv-x="557" 
d="M97 675l53 83l126 -75l126 75l53 -83l-179 -127zM278 495q110 0 179 -70.5t69 -183.5q0 -22 -2 -40h-336q0 -41 28 -69.5t69 -28.5q56 0 79 45h156q-25 -75 -84 -120t-154 -45q-107 0 -181.5 71t-74.5 187q0 110 66.5 182t185.5 72zM276 386q-37 0 -60 -22.5t-27 -55.5
h174q-4 34 -27.5 56t-59.5 22z" />
    <glyph glyph-name="Gcircumflex" unicode="&#x11c;" horiz-adv-x="767" 
d="M572 812l-40 -84l-141 61l-142 -61l-39 84l181 106zM737 390v-47q0 -48 -11.5 -96t-38 -96.5t-65.5 -86t-100 -60.5t-136 -23q-155 0 -255.5 101t-100.5 253q0 163 100 264.5t255 101.5q122 0 210 -57.5t123 -163.5h-193q-41 70 -134 70q-73 0 -126.5 -55t-53.5 -157
q0 -97 51 -151.5t137 -54.5q57 0 97.5 33.5t49.5 81.5h-196v143h387z" />
    <glyph glyph-name="gcircumflex" unicode="&#x11d;" horiz-adv-x="599" 
d="M467 631l-53 -83l-126 75l-126 -75l-53 83l179 127zM540 15q0 -137 -63.5 -204.5t-199.5 -67.5q-102 0 -166.5 52.5t-77.5 145.5h168q11 -63 86 -63q98 0 98 115v60h-3q-55 -60 -140 -60q-92 0 -153 68t-61 181q0 107 64 179t161 72q83 0 126 -65h6v51h155v-464zM199 244
q0 -43 22.5 -73.5t67.5 -30.5q39 0 64.5 29t25.5 74q0 47 -25.5 76t-63.5 29q-42 0 -66.5 -31t-24.5 -73z" />
    <glyph glyph-name="Gbreve" unicode="&#x11e;" horiz-adv-x="767" 
d="M562 899q-4 -71 -53 -111.5t-121 -40.5q-79 0 -124.5 40.5t-49.5 111.5h104q2 -22 21 -34.5t49 -12.5q31 0 50 12.5t20 34.5h104zM737 390v-47q0 -48 -11.5 -96t-38 -96.5t-65.5 -86t-100 -60.5t-136 -23q-155 0 -255.5 101t-100.5 253q0 163 100 264.5t255 101.5
q122 0 210 -57.5t123 -163.5h-193q-41 70 -134 70q-73 0 -126.5 -55t-53.5 -157q0 -97 51 -151.5t137 -54.5q57 0 97.5 33.5t49.5 81.5h-196v143h387z" />
    <glyph glyph-name="gbreve" unicode="&#x11f;" horiz-adv-x="599" 
d="M452 734q-4 -79 -53 -123t-121 -44q-78 0 -124 43t-50 124h104q3 -26 21 -41.5t49 -15.5t49.5 16t20.5 41h104zM540 15q0 -137 -63.5 -204.5t-199.5 -67.5q-102 0 -166.5 52.5t-77.5 145.5h168q11 -63 86 -63q98 0 98 115v60h-3q-55 -60 -140 -60q-92 0 -153 68t-61 181
q0 107 64 179t161 72q83 0 126 -65h6v51h155v-464zM199 244q0 -43 22.5 -73.5t67.5 -30.5q39 0 64.5 29t25.5 74q0 47 -25.5 76t-63.5 29q-42 0 -66.5 -31t-24.5 -73z" />
    <glyph glyph-name="Gdotaccent" unicode="&#x120;" horiz-adv-x="767" 
d="M321 898h134v-129h-134v129zM737 390v-47q0 -48 -11.5 -96t-38 -96.5t-65.5 -86t-100 -60.5t-136 -23q-155 0 -255.5 101t-100.5 253q0 163 100 264.5t255 101.5q122 0 210 -57.5t123 -163.5h-193q-41 70 -134 70q-73 0 -126.5 -55t-53.5 -157q0 -97 51 -151.5t137 -54.5
q57 0 97.5 33.5t49.5 81.5h-196v143h387z" />
    <glyph glyph-name="gdotaccent" unicode="&#x121;" horiz-adv-x="599" 
d="M211 713h134v-129h-134v129zM540 15q0 -137 -63.5 -204.5t-199.5 -67.5q-102 0 -166.5 52.5t-77.5 145.5h168q11 -63 86 -63q98 0 98 115v60h-3q-55 -60 -140 -60q-92 0 -153 68t-61 181q0 107 64 179t161 72q83 0 126 -65h6v51h155v-464zM199 244q0 -43 22.5 -73.5
t67.5 -30.5q39 0 64.5 29t25.5 74q0 47 -25.5 76t-63.5 29q-42 0 -66.5 -31t-24.5 -73z" />
    <glyph glyph-name="Gcommaaccent" unicode="&#x122;" horiz-adv-x="767" 
d="M737 390v-47q0 -48 -11.5 -96t-38 -96.5t-65.5 -86t-100 -60.5t-136 -23q-155 0 -255.5 101t-100.5 253q0 163 100 264.5t255 101.5q122 0 210 -57.5t123 -163.5h-193q-41 70 -134 70q-73 0 -126.5 -55t-53.5 -157q0 -97 51 -151.5t137 -54.5q57 0 97.5 33.5t49.5 81.5
h-196v143h387zM324 -52h130v-69q0 -77 -41 -133h-71q29 45 29 98h-47v104z" />
    <glyph glyph-name="gcommaaccent" unicode="&#x123;" horiz-adv-x="599" 
d="M348 551h-130v69q0 77 41 133h71q-29 -45 -29 -98h47v-104zM540 15q0 -137 -63.5 -204.5t-199.5 -67.5q-102 0 -166.5 52.5t-77.5 145.5h168q11 -63 86 -63q98 0 98 115v60h-3q-55 -60 -140 -60q-92 0 -153 68t-61 181q0 107 64 179t161 72q83 0 126 -65h6v51h155v-464z
M199 244q0 -43 22.5 -73.5t67.5 -30.5q39 0 64.5 29t25.5 74q0 47 -25.5 76t-63.5 29q-42 0 -66.5 -31t-24.5 -73z" />
    <glyph glyph-name="Hcircumflex" unicode="&#x124;" horiz-adv-x="700" 
d="M532 812l-40 -84l-141 61l-142 -61l-39 84l181 106zM456 275h-212v-275h-179v682h179v-254h212v254h179v-682h-179v275z" />
    <glyph glyph-name="hcircumflex" unicode="&#x125;" horiz-adv-x="598" 
d="M326 846l-53 -83l-126 75l-126 -75l-53 83l179 127zM58 720h169v-301h4q41 75 136 75q88 0 133 -58t45 -164v-272h-169v262q0 84 -71 84q-33 0 -55.5 -24.5t-22.5 -69.5v-252h-169v720z" />
    <glyph glyph-name="Hbar" unicode="&#x126;" horiz-adv-x="700" 
d="M635 504v-504h-178v265h-213v-265h-179v504h-60v105h60v73h179v-73h213v73h178v-73h60v-105h-60zM457 408v96h-213v-96h213z" />
    <glyph glyph-name="hbar" unicode="&#x127;" horiz-adv-x="598" 
d="M227 547v-128h4q41 75 136 75q88 0 133 -58t45 -164v-272h-169v262q0 84 -71 84q-33 0 -55.5 -24.5t-22.5 -69.5v-252h-169v547h-58v105h58v68h169v-68h130v-105h-130z" />
    <glyph glyph-name="Itilde" unicode="&#x128;" horiz-adv-x="307" 
d="M-27 764q3 70 33.5 110t82.5 40q37 0 74 -25q38 -25 59 -25q28 0 29 40h90q-6 -150 -118 -150q-42 0 -79 25t-53 25q-11 0 -19 -10.5t-9 -29.5h-90zM64 682h179v-682h-179v682z" />
    <glyph glyph-name="itilde" unicode="&#x129;" horiz-adv-x="285" 
d="M-41 584q3 70 33.5 110t82.5 40q37 0 74 -25t59 -25q28 0 29 40h90q-6 -150 -118 -150q-42 0 -79 25t-53 25q-11 0 -19 -10.5t-9 -29.5h-90zM58 479h169v-479h-169v479z" />
    <glyph glyph-name="Imacron" unicode="&#x12a;" horiz-adv-x="307" 
d="M-2 766v105h308v-105h-308zM64 682h179v-682h-179v682z" />
    <glyph glyph-name="imacron" unicode="&#x12b;" horiz-adv-x="285" 
d="M-11 586v105h308v-105h-308zM58 479h169v-479h-169v479z" />
    <glyph glyph-name="Ibreve" unicode="&#x12c;" horiz-adv-x="307" 
d="M328 899q-4 -71 -53 -111.5t-121 -40.5q-79 0 -124.5 40.5t-49.5 111.5h104q2 -22 21 -34.5t49 -12.5q31 0 50 12.5t20 34.5h104zM64 682h179v-682h-179v682z" />
    <glyph glyph-name="ibreve" unicode="&#x12d;" horiz-adv-x="285" 
d="M317 734q-4 -79 -53 -123t-121 -44q-78 0 -124 43t-50 124h104q3 -26 21 -41.5t49 -15.5t49.5 16t20.5 41h104zM58 479h169v-479h-169v479z" />
    <glyph glyph-name="Iogonek" unicode="&#x12e;" horiz-adv-x="307" 
d="M64 682h179v-682q-31 -4 -55 -29.5t-24 -55.5q0 -40 46 -40q15 0 33 4v-107q-24 -7 -71 -7q-60 0 -92 33.5t-32 83.5q0 36 22.5 68.5t56.5 49.5h-63v682z" />
    <glyph glyph-name="iogonek" unicode="&#x12f;" horiz-adv-x="285" 
d="M58 721h169v-151h-169v151zM58 479h169v-479q-34 -5 -56.5 -28t-22.5 -57q0 -40 46 -40q15 0 33 4v-107q-25 -7 -71 -7q-60 0 -92 33.5t-32 83.5q0 36 22.5 68.5t56.5 49.5h-53v479z" />
    <glyph glyph-name="Idotaccent" unicode="&#x130;" horiz-adv-x="307" 
d="M84 898h134v-129h-134v129zM64 682h179v-682h-179v682z" />
    <glyph glyph-name="dotlessi" unicode="&#x131;" horiz-adv-x="285" 
d="M58 479h169v-479h-169v479z" />
    <glyph glyph-name="Jcircumflex" unicode="&#x134;" 
d="M439 812l-40 -84l-141 61l-142 -61l-39 84l181 106zM170 682h181v-455q0 -136 -56 -193t-178 -57q-60 0 -113 20v147q43 -16 85 -16q44 0 62.5 21t18.5 67v466z" />
    <glyph glyph-name="jcircumflex" unicode="&#x135;" horiz-adv-x="285" 
d="M322 631l-53 -83l-126 75l-126 -75l-53 83l179 127zM227 -28q0 -223 -200 -223q-60 0 -99 13v143q23 -7 59 -7t53.5 19t17.5 66v496h169v-507z" />
    <glyph glyph-name="Kcommaaccent" unicode="&#x136;" horiz-adv-x="684" 
d="M268 269l-24 -25v-244h-179v682h179v-226l212 226h221l-288 -298l320 -384h-223zM293 -52h130v-69q0 -77 -41 -133h-71q29 45 29 98h-47v104z" />
    <glyph glyph-name="kcommaaccent" unicode="&#x137;" horiz-adv-x="576" 
d="M248 178l-21 -21v-157h-169v720h169v-379l123 138h203l-188 -198l215 -281h-202zM237 -52h130v-69q0 -77 -41 -133h-71q29 45 29 98h-47v104z" />
    <glyph glyph-name="kgreenlandic" unicode="&#x138;" horiz-adv-x="576" 
d="M248 178l-21 -21v-157h-169v479h169v-138l123 138h203l-188 -198l215 -281h-202z" />
    <glyph glyph-name="Lacute" unicode="&#x139;" horiz-adv-x="506" 
d="M289 804l-204 -74l-42 100l198 92zM64 682h179v-529h259v-153h-438v682z" />
    <glyph glyph-name="lacute" unicode="&#x13a;" horiz-adv-x="285" 
d="M198 988l71 -106l-185 -114l-61 90zM58 720h169v-720h-169v720z" />
    <glyph glyph-name="Lcommaaccent" unicode="&#x13b;" horiz-adv-x="506" 
d="M64 682h179v-529h259v-153h-438v682zM211 -52h130v-69q0 -77 -41 -133h-71q29 45 29 98h-47v104z" />
    <glyph glyph-name="lcommaaccent" unicode="&#x13c;" horiz-adv-x="285" 
d="M58 720h169v-720h-169v720zM77 -52h130v-69q0 -77 -41 -133h-71q29 45 29 98h-47v104z" />
    <glyph glyph-name="Lcaron" unicode="&#x13d;" horiz-adv-x="506" 
d="M64 682h179v-529h259v-153h-438v682zM341 682h130v-69q0 -77 -41 -133h-71q29 45 29 98h-47v104z" />
    <glyph glyph-name="lcaron" unicode="&#x13e;" horiz-adv-x="425" 
d="M58 720h169v-720h-169v720zM289 720h130v-69q0 -77 -41 -133h-71q29 45 29 98h-47v104z" />
    <glyph glyph-name="Ldot" unicode="&#x13f;" horiz-adv-x="556" 
d="M64 682h179v-529h259v-153h-438v682zM366 433h134v-129h-134v129z" />
    <glyph glyph-name="ldot" unicode="&#x140;" horiz-adv-x="453" 
d="M58 720h169v-720h-169v720zM302 443h134v-129h-134v129z" />
    <glyph glyph-name="Lslash" unicode="&#x141;" horiz-adv-x="518" 
d="M12 274l64 42v366h179v-259l138 91v-130l-138 -91v-140h259v-153h-438v186l-64 -42v130z" />
    <glyph glyph-name="lslash" unicode="&#x142;" horiz-adv-x="305" 
d="M0 331l68 52v337h169v-216l68 53v-130l-68 -53v-374h-169v253l-68 -52v130z" />
    <glyph glyph-name="Nacute" unicode="&#x143;" horiz-adv-x="683" 
d="M479 804l-204 -74l-42 100l198 92zM210 419q4 -116 4 -122v-297h-150v682h151l170 -272q24 -37 40 -66.5t27.5 -53.5t16.5 -33h3q-3 90 -3 110v315h150v-682h-150l-145 231q-42 67 -74.5 125t-35.5 63h-4z" />
    <glyph glyph-name="nacute" unicode="&#x144;" horiz-adv-x="598" 
d="M367 773l71 -106l-185 -114l-61 90zM58 479h166v-60h4q20 36 56.5 55.5t80.5 19.5q89 0 134.5 -58t45.5 -164v-272h-169v262q0 84 -71 84q-33 0 -55.5 -24.5t-22.5 -69.5v-252h-169v479z" />
    <glyph glyph-name="Ncommaaccent" unicode="&#x145;" horiz-adv-x="683" 
d="M210 419q4 -116 4 -122v-297h-150v682h151l170 -272q24 -37 40 -66.5t27.5 -53.5t16.5 -33h3q-3 90 -3 110v315h150v-682h-150l-145 231q-42 67 -74.5 125t-35.5 63h-4zM274 -52h130v-69q0 -77 -41 -133h-71q29 45 29 98h-47v104z" />
    <glyph glyph-name="ncommaaccent" unicode="&#x146;" horiz-adv-x="598" 
d="M58 479h166v-60h4q20 36 56.5 55.5t80.5 19.5q89 0 134.5 -58t45.5 -164v-272h-169v262q0 84 -71 84q-33 0 -55.5 -24.5t-22.5 -69.5v-252h-169v479zM236 -52h130v-69q0 -77 -41 -133h-71q29 45 29 98h-47v104z" />
    <glyph glyph-name="Ncaron" unicode="&#x147;" horiz-adv-x="683" 
d="M159 834l40 84l141 -61l142 61l39 -84l-181 -106zM210 419q4 -116 4 -122v-297h-150v682h151l170 -272q24 -37 40 -66.5t27.5 -53.5t16.5 -33h3q-3 90 -3 110v315h150v-682h-150l-145 231q-42 67 -74.5 125t-35.5 63h-4z" />
    <glyph glyph-name="ncaron" unicode="&#x148;" horiz-adv-x="598" 
d="M122 675l53 83l126 -75l126 75l53 -83l-179 -127zM58 479h166v-60h4q20 36 56.5 55.5t80.5 19.5q89 0 134.5 -58t45.5 -164v-272h-169v262q0 84 -71 84q-33 0 -55.5 -24.5t-22.5 -69.5v-252h-169v479z" />
    <glyph glyph-name="Eng" unicode="&#x14a;" horiz-adv-x="683" 
d="M210 419q4 -116 4 -122v-297h-150v682h151l170 -272q24 -37 40 -66.5t27.5 -53.5t16.5 -33h3q-3 90 -3 110v315h150v-680q0 -223 -200 -223q-57 0 -96 13v133q23 -7 66 -7q80 0 80 70v12l-145 231q-42 67 -74.5 125t-35.5 63h-4z" />
    <glyph glyph-name="eng" unicode="&#x14b;" horiz-adv-x="598" 
d="M58 479h166v-60h4q20 36 56.5 55.5t80.5 19.5q89 0 134.5 -58t45.5 -164v-290q0 -233 -195 -233q-55 0 -94 13v133q23 -7 54 -7q34 0 50 18.5t16 66.5v289q0 84 -71 84q-33 0 -55.5 -24.5t-22.5 -69.5v-252h-169v479z" />
    <glyph glyph-name="Omacron" unicode="&#x14c;" horiz-adv-x="783" 
d="M240 766v105h308v-105h-308zM30 341q0 149 104 256t260 107q162 0 260.5 -107t98.5 -256q0 -150 -103.5 -256.5t-257.5 -106.5q-90 0 -161.5 32.5t-114 86t-64.5 116.5t-22 128zM212 341q0 -86 51.5 -144t127.5 -58q77 0 128.5 58t51.5 144t-49 144t-129 58
q-77 0 -129 -58t-52 -144z" />
    <glyph glyph-name="omacron" unicode="&#x14d;" horiz-adv-x="564" 
d="M128 586v105h308v-105h-308zM26 240q0 111 72.5 183t183.5 72q113 0 184.5 -72.5t71.5 -182.5q0 -108 -72.5 -182.5t-183.5 -74.5q-110 0 -183 74t-73 183zM195 239q0 -47 24 -77t63 -30q41 0 64 30t23 77q0 46 -22.5 76.5t-64.5 30.5t-64.5 -29.5t-22.5 -77.5z" />
    <glyph glyph-name="Obreve" unicode="&#x14e;" horiz-adv-x="783" 
d="M568 899q-4 -71 -53 -111.5t-121 -40.5q-79 0 -124.5 40.5t-49.5 111.5h104q2 -22 21 -34.5t49 -12.5q31 0 50 12.5t20 34.5h104zM30 341q0 149 104 256t260 107q162 0 260.5 -107t98.5 -256q0 -150 -103.5 -256.5t-257.5 -106.5q-90 0 -161.5 32.5t-114 86t-64.5 116.5
t-22 128zM212 341q0 -86 51.5 -144t127.5 -58q77 0 128.5 58t51.5 144t-49 144t-129 58q-77 0 -129 -58t-52 -144z" />
    <glyph glyph-name="obreve" unicode="&#x14f;" horiz-adv-x="564" 
d="M456 734q-4 -79 -53 -123t-121 -44q-78 0 -124 43t-50 124h104q3 -26 21 -41.5t49 -15.5t49.5 16t20.5 41h104zM26 240q0 111 72.5 183t183.5 72q113 0 184.5 -72.5t71.5 -182.5q0 -108 -72.5 -182.5t-183.5 -74.5q-110 0 -183 74t-73 183zM195 239q0 -47 24 -77t63 -30
q41 0 64 30t23 77q0 46 -22.5 76.5t-64.5 30.5t-64.5 -29.5t-22.5 -77.5z" />
    <glyph glyph-name="Ohungarumlaut" unicode="&#x150;" horiz-adv-x="783" 
d="M451 836l-158 -112l-66 82l145 123zM665 835l-159 -111l-66 82l146 123zM30 341q0 149 104 256t260 107q162 0 260.5 -107t98.5 -256q0 -150 -103.5 -256.5t-257.5 -106.5q-90 0 -161.5 32.5t-114 86t-64.5 116.5t-22 128zM212 341q0 -86 51.5 -144t127.5 -58
q77 0 128.5 58t51.5 144t-49 144t-129 58q-77 0 -129 -58t-52 -144z" />
    <glyph glyph-name="ohungarumlaut" unicode="&#x151;" horiz-adv-x="564" 
d="M307 691l-110 -158l-90 54l94 166zM497 691l-110 -158l-90 54l94 166zM26 240q0 111 72.5 183t183.5 72q113 0 184.5 -72.5t71.5 -182.5q0 -108 -72.5 -182.5t-183.5 -74.5q-110 0 -183 74t-73 183zM195 239q0 -47 24 -77t63 -30q41 0 64 30t23 77q0 46 -22.5 76.5
t-64.5 30.5t-64.5 -29.5t-22.5 -77.5z" />
    <glyph glyph-name="OE" unicode="&#x152;" horiz-adv-x="1038" 
d="M974 529h-249v-106h240v-143h-240v-127h259v-153h-423v59q-83 -81 -194 -81q-85 0 -151.5 32.5t-106 86.5t-59.5 116t-20 128q0 148 97 255.5t242 107.5q111 0 192 -76v54h413v-153zM212 341q0 -86 50 -144t129 -58q77 0 128.5 58t51.5 144t-49 144t-129 58
q-79 0 -130 -57.5t-51 -144.5z" />
    <glyph glyph-name="oe" unicode="&#x153;" horiz-adv-x="897" 
d="M26 240q0 111 70 183t176 72q107 0 178 -73q65 73 178 73q99 0 168.5 -69t69.5 -185q0 -20 -2 -38h-331q0 -41 28 -70.5t69 -29.5q51 0 74 45h156q-25 -75 -84 -120t-154 -45q-106 0 -173 75q-70 -75 -177 -75q-106 0 -176 74t-70 183zM622 386q-37 0 -60.5 -23.5
t-27.5 -56.5h169q-2 34 -24.5 57t-56.5 23zM194 239q0 -47 24.5 -77t63.5 -30q42 0 65 30t23 77q0 46 -23 76.5t-65 30.5t-65 -29.5t-23 -77.5z" />
    <glyph glyph-name="Racute" unicode="&#x154;" horiz-adv-x="631" 
d="M411 804l-204 -74l-42 100l198 92zM642 0h-208l-173 258h-18v-258h-179v682h222q275 0 275 -213q0 -70 -35 -117t-92 -67zM378 460q0 39 -22.5 61t-63.5 22h-49v-163h50q38 0 61.5 21t23.5 59z" />
    <glyph glyph-name="racute" unicode="&#x155;" horiz-adv-x="441" 
d="M295 773l71 -106l-185 -114l-61 90zM419 330q-38 6 -74 6q-62 0 -90 -31.5t-28 -84.5v-220h-169v479h163v-82h5q54 95 147 95q27 0 46 -4v-158z" />
    <glyph glyph-name="Rcommaaccent" unicode="&#x156;" horiz-adv-x="631" 
d="M642 0h-208l-173 258h-18v-258h-179v682h222q275 0 275 -213q0 -70 -35 -117t-92 -67zM378 460q0 39 -22.5 61t-63.5 22h-49v-163h50q38 0 61.5 21t23.5 59zM269 -52h130v-69q0 -77 -41 -133h-71q29 45 29 98h-47v104z" />
    <glyph glyph-name="rcommaaccent" unicode="&#x157;" horiz-adv-x="441" 
d="M419 330q-38 6 -74 6q-62 0 -90 -31.5t-28 -84.5v-220h-169v479h163v-82h5q54 95 147 95q27 0 46 -4v-158zM77 -52h130v-69q0 -77 -41 -133h-71q29 45 29 98h-47v104z" />
    <glyph glyph-name="Rcaron" unicode="&#x158;" horiz-adv-x="631" 
d="M91 834l40 84l141 -61l142 61l39 -84l-181 -106zM642 0h-208l-173 258h-18v-258h-179v682h222q275 0 275 -213q0 -70 -35 -117t-92 -67zM378 460q0 39 -22.5 61t-63.5 22h-49v-163h50q38 0 61.5 21t23.5 59z" />
    <glyph glyph-name="rcaron" unicode="&#x159;" horiz-adv-x="441" 
d="M61 675l53 83l126 -75l126 75l53 -83l-179 -127zM419 330q-38 6 -74 6q-62 0 -90 -31.5t-28 -84.5v-220h-169v479h163v-82h5q54 95 147 95q27 0 46 -4v-158z" />
    <glyph glyph-name="Sacute" unicode="&#x15a;" horiz-adv-x="572" 
d="M426 804l-204 -74l-42 100l198 92zM356 481q0 37 -18 58.5t-50 21.5q-24 0 -40 -14.5t-16 -39.5q0 -29 26.5 -47t84.5 -38q186 -65 186 -228q0 -85 -61.5 -150.5t-180.5 -65.5q-112 0 -178.5 65t-66.5 177h171q0 -99 77 -99q29 0 47.5 17t18.5 46q0 33 -24.5 53.5
t-84.5 41.5q-186 64 -186 224q0 93 66 147t163 54q105 0 167 -59.5t62 -163.5h-163z" />
    <glyph glyph-name="sacute" unicode="&#x15b;" horiz-adv-x="451" 
d="M296 773l71 -106l-185 -114l-61 90zM271 341q0 48 -42 48q-15 0 -24 -8.5t-9 -19.5q0 -20 18 -32.5t76 -32.5q72 -24 104.5 -61t32.5 -92q0 -70 -52 -115t-146 -45q-97 0 -145 44t-48 121h146q0 -59 49 -59q17 0 28.5 11.5t11.5 27.5q0 20 -19.5 34.5t-67.5 30.5
q-70 23 -105 59t-35 93q0 70 52.5 110t134.5 40q81 0 129.5 -42t53.5 -112h-143z" />
    <glyph glyph-name="Scircumflex" unicode="&#x15c;" horiz-adv-x="572" 
d="M468 812l-40 -84l-141 61l-142 -61l-39 84l181 106zM356 481q0 37 -18 58.5t-50 21.5q-24 0 -40 -14.5t-16 -39.5q0 -29 26.5 -47t84.5 -38q186 -65 186 -228q0 -85 -61.5 -150.5t-180.5 -65.5q-112 0 -178.5 65t-66.5 177h171q0 -99 77 -99q29 0 47.5 17t18.5 46
q0 33 -24.5 53.5t-84.5 41.5q-186 64 -186 224q0 93 66 147t163 54q105 0 167 -59.5t62 -163.5h-163z" />
    <glyph glyph-name="scircumflex" unicode="&#x15d;" horiz-adv-x="451" 
d="M409 631l-53 -83l-126 75l-126 -75l-53 83l179 127zM271 341q0 48 -42 48q-15 0 -24 -8.5t-9 -19.5q0 -20 18 -32.5t76 -32.5q72 -24 104.5 -61t32.5 -92q0 -70 -52 -115t-146 -45q-97 0 -145 44t-48 121h146q0 -59 49 -59q17 0 28.5 11.5t11.5 27.5q0 20 -19.5 34.5
t-67.5 30.5q-70 23 -105 59t-35 93q0 70 52.5 110t134.5 40q81 0 129.5 -42t53.5 -112h-143z" />
    <glyph glyph-name="Scedilla" unicode="&#x15e;" horiz-adv-x="572" 
d="M356 481q0 37 -18 58.5t-50 21.5q-24 0 -40 -14.5t-16 -39.5q0 -26 22.5 -41.5t88.5 -43.5q96 -41 141 -96.5t45 -131.5q0 -75 -53 -137.5t-153 -75.5l-8 -20q46 -6 71.5 -35.5t25.5 -67.5q0 -52 -35.5 -83.5t-107.5 -31.5q-55 0 -118 21l30 86q35 -15 77 -15q44 0 44 25
q0 36 -93 36l32 84q-94 11 -146.5 74t-52.5 166h171q0 -99 77 -99q29 0 47.5 17t18.5 44q0 33 -25 52.5t-87 45.5q-99 42 -141 98t-42 129q0 92 68 144.5t161 52.5q105 0 167 -59.5t62 -163.5h-163z" />
    <glyph glyph-name="scedilla" unicode="&#x15f;" horiz-adv-x="451" 
d="M265 341q0 48 -42 48q-15 0 -24 -8.5t-9 -19.5q0 -20 18 -32.5t76 -32.5q72 -24 104.5 -61t32.5 -92q0 -63 -43.5 -106.5t-122.5 -51.5l-9 -24q46 -6 71.5 -35.5t25.5 -67.5q0 -52 -35.5 -83.5t-107.5 -31.5q-55 0 -118 21l30 86q35 -15 77 -15q44 0 44 25q0 36 -93 36
l34 91q-72 10 -108 52t-36 109h146q0 -59 49 -59q17 0 28.5 11.5t11.5 27.5q0 20 -19.5 34.5t-67.5 30.5q-70 23 -105 59t-35 93q0 70 52.5 110t134.5 40q81 0 129.5 -42t53.5 -112h-143z" />
    <glyph glyph-name="Scaron" unicode="&#x160;" horiz-adv-x="572" 
d="M91 834l40 84l141 -61l142 61l39 -84l-181 -106zM356 481q0 37 -18 58.5t-50 21.5q-24 0 -40 -14.5t-16 -39.5q0 -29 26.5 -47t84.5 -38q186 -65 186 -228q0 -85 -61.5 -150.5t-180.5 -65.5q-112 0 -178.5 65t-66.5 177h171q0 -99 77 -99q29 0 47.5 17t18.5 46
q0 33 -24.5 53.5t-84.5 41.5q-186 64 -186 224q0 93 66 147t163 54q105 0 167 -59.5t62 -163.5h-163z" />
    <glyph glyph-name="scaron" unicode="&#x161;" horiz-adv-x="451" 
d="M47 675l53 83l126 -75l126 75l53 -83l-179 -127zM271 341q0 48 -42 48q-15 0 -24 -8.5t-9 -19.5q0 -20 18 -32.5t76 -32.5q72 -24 104.5 -61t32.5 -92q0 -70 -52 -115t-146 -45q-97 0 -145 44t-48 121h146q0 -59 49 -59q17 0 28.5 11.5t11.5 27.5q0 20 -19.5 34.5
t-67.5 30.5q-70 23 -105 59t-35 93q0 70 52.5 110t134.5 40q81 0 129.5 -42t53.5 -112h-143z" />
    <glyph glyph-name="uni0162" unicode="&#x162;" horiz-adv-x="494" 
d="M157 529h-153v153h486v-153h-153v-529h-180v529zM180 -52h130v-69q0 -77 -41 -133h-71q29 45 29 98h-47v104z" />
    <glyph glyph-name="uni0163" unicode="&#x163;" horiz-adv-x="359" 
d="M8 479h55v153h169v-153h105v-142h-105v-147q0 -32 11 -43t41 -11q25 0 57 8v-136q-52 -15 -105 -15q-90 0 -131.5 44t-41.5 130v170h-55v142zM144 -52h130v-69q0 -77 -41 -133h-71q29 45 29 98h-47v104z" />
    <glyph glyph-name="Tcaron" unicode="&#x164;" horiz-adv-x="494" 
d="M65 834l40 84l141 -61l142 61l39 -84l-181 -106zM157 529h-153v153h486v-153h-153v-529h-180v529z" />
    <glyph glyph-name="tcaron" unicode="&#x165;" horiz-adv-x="399" 
d="M276 720h130v-69q0 -77 -41 -133h-71q29 45 29 98h-47v104zM8 479h55v153h169v-153h105v-142h-105v-147q0 -32 11 -43t41 -11q25 0 57 8v-136q-52 -15 -105 -15q-90 0 -131.5 44t-41.5 130v170h-55v142z" />
    <glyph glyph-name="Tbar" unicode="&#x166;" horiz-adv-x="494" 
d="M337 279v-279h-180v279h-95v126h95v124h-153v153h486v-153h-153v-124h95v-126h-95z" />
    <glyph glyph-name="tbar" unicode="&#x167;" horiz-adv-x="359" 
d="M232 194q0 -35 10.5 -46.5t41.5 -11.5q25 0 57 8v-136q-52 -15 -105 -15q-90 0 -131.5 44t-41.5 130v27h-50v95h50v48h-55v142h55v153h169v-153h105v-142h-105v-48h100v-95h-100z" />
    <glyph glyph-name="Utilde" unicode="&#x168;" horiz-adv-x="641" 
d="M135 764q3 70 33.5 110t82.5 40q37 0 74 -25t59 -25q28 0 29 40h90q-6 -150 -118 -150q-42 0 -79 25t-53 25q-11 0 -19 -10.5t-9 -29.5h-90zM321 -22q-124 0 -195.5 69t-71.5 222v413h179v-423q0 -130 87 -130q89 0 89 130v423h178v-411q0 -150 -70 -221.5t-196 -71.5z
" />
    <glyph glyph-name="utilde" unicode="&#x169;" horiz-adv-x="588" 
d="M106 584q3 70 33.5 110t82.5 40q36 0 74 -25t59 -25q28 0 29 40h90q-6 -150 -118 -150q-42 0 -79 25t-53 25q-11 0 -19 -10.5t-9 -29.5h-90zM530 0h-166v60h-4q-50 -75 -137 -75q-31 0 -59 10t-54 32t-41.5 64.5t-15.5 100.5v287h169v-262q0 -40 18 -62t48 -22
q34 0 53.5 24t19.5 70v252h169v-479z" />
    <glyph glyph-name="Umacron" unicode="&#x16a;" horiz-adv-x="641" 
d="M168 766v105h308v-105h-308zM321 -22q-124 0 -195.5 69t-71.5 222v413h179v-423q0 -130 87 -130q89 0 89 130v423h178v-411q0 -150 -70 -221.5t-196 -71.5z" />
    <glyph glyph-name="umacron" unicode="&#x16b;" horiz-adv-x="588" 
d="M138 586v105h308v-105h-308zM530 0h-166v60h-4q-50 -75 -137 -75q-31 0 -59 10t-54 32t-41.5 64.5t-15.5 100.5v287h169v-262q0 -40 18 -62t48 -22q34 0 53.5 24t19.5 70v252h169v-479z" />
    <glyph glyph-name="Ubreve" unicode="&#x16c;" horiz-adv-x="641" 
d="M494 899q-4 -71 -53 -111.5t-121 -40.5q-79 0 -124.5 40.5t-49.5 111.5h104q2 -22 21 -34.5t49 -12.5q31 0 50 12.5t20 34.5h104zM321 -22q-124 0 -195.5 69t-71.5 222v413h179v-423q0 -130 87 -130q89 0 89 130v423h178v-411q0 -150 -70 -221.5t-196 -71.5z" />
    <glyph glyph-name="ubreve" unicode="&#x16d;" horiz-adv-x="588" 
d="M467 734q-4 -79 -53 -123t-121 -44q-78 0 -124 43t-50 124h104q3 -26 21 -41.5t49 -15.5t49.5 16t20.5 41h104zM530 0h-166v60h-4q-50 -75 -137 -75q-31 0 -59 10t-54 32t-41.5 64.5t-15.5 100.5v287h169v-262q0 -40 18 -62t48 -22q34 0 53.5 24t19.5 70v252h169v-479z
" />
    <glyph glyph-name="Uring" unicode="&#x16e;" horiz-adv-x="641" 
d="M186 848q0 56 38.5 95t95.5 39q56 0 95 -39t39 -95t-39 -95t-95 -39q-57 0 -95.5 39t-38.5 95zM271 848q0 -20 14.5 -34.5t34.5 -14.5t34.5 14.5t14.5 34.5t-14.5 34.5t-34.5 14.5t-34.5 -14.5t-14.5 -34.5zM321 -22q-124 0 -195.5 69t-71.5 222v413h179v-423
q0 -130 87 -130q89 0 89 130v423h178v-411q0 -150 -70 -221.5t-196 -71.5z" />
    <glyph glyph-name="uring" unicode="&#x16f;" horiz-adv-x="588" 
d="M158 663q0 56 38.5 95t95.5 39q56 0 95 -39.5t39 -94.5t-39 -94.5t-95 -39.5q-57 0 -95.5 39t-38.5 95zM243 663q0 -20 14.5 -34.5t34.5 -14.5t34.5 14.5t14.5 34.5t-14.5 34.5t-34.5 14.5t-34.5 -14.5t-14.5 -34.5zM530 0h-166v60h-4q-50 -75 -137 -75q-31 0 -59 10
t-54 32t-41.5 64.5t-15.5 100.5v287h169v-262q0 -40 18 -62t48 -22q34 0 53.5 24t19.5 70v252h169v-479z" />
    <glyph glyph-name="Uhungarumlaut" unicode="&#x170;" horiz-adv-x="641" 
d="M365 836l-158 -112l-66 82l145 123zM579 835l-159 -111l-66 82l146 123zM321 -22q-124 0 -195.5 69t-71.5 222v413h179v-423q0 -130 87 -130q89 0 89 130v423h178v-411q0 -150 -70 -221.5t-196 -71.5z" />
    <glyph glyph-name="uhungarumlaut" unicode="&#x171;" horiz-adv-x="588" 
d="M315 691l-110 -158l-90 54l94 166zM505 691l-110 -158l-90 54l94 166zM530 0h-166v60h-4q-50 -75 -137 -75q-31 0 -59 10t-54 32t-41.5 64.5t-15.5 100.5v287h169v-262q0 -40 18 -62t48 -22q34 0 53.5 24t19.5 70v252h169v-479z" />
    <glyph glyph-name="Uogonek" unicode="&#x172;" horiz-adv-x="641" 
d="M321 -22q-124 0 -195.5 69t-71.5 222v413h179v-423q0 -130 87 -130q89 0 89 130v423h178v-411q0 -182 -102 -249q-50 -34 -62 -49q-24 -32 -24 -58q0 -40 46 -40q15 0 33 4v-107q-24 -7 -71 -7q-60 0 -92 33.5t-32 83.5q0 54 42 96h-4z" />
    <glyph glyph-name="uogonek" unicode="&#x173;" horiz-adv-x="588" 
d="M530 -228q-24 -7 -71 -7q-60 0 -92 33.5t-32 83.5q0 36 22.5 68.5t56.5 49.5h-50v60h-4q-50 -75 -137 -75q-31 0 -59 10t-54 32t-41.5 64.5t-15.5 100.5v287h169v-262q0 -40 18 -62t48 -22q34 0 53.5 24t19.5 70v252h169v-479q-27 0 -53 -25t-26 -60q0 -40 46 -40
q15 0 33 4v-107z" />
    <glyph glyph-name="Wcircumflex" unicode="&#x174;" horiz-adv-x="894" 
d="M627 812l-40 -84l-141 61l-142 -61l-39 84l181 106zM469 314q-14 71 -19 145h-4q-10 -100 -19 -142l-62 -317h-194l-167 682h175l70 -330q10 -48 22 -126h4q4 26 26 135l65 321h168l75 -328q5 -20 23 -128h4q7 63 20 127l64 329h170l-161 -682h-192z" />
    <glyph glyph-name="wcircumflex" unicode="&#x175;" horiz-adv-x="746" 
d="M555 631l-53 -83l-126 75l-126 -75l-53 83l179 127zM390 167q-18 86 -19 104h-3q-4 -34 -23 -124l-32 -147h-187l-118 479h164l45 -196q8 -36 17 -95h4q8 64 17 100l49 191h144l48 -195q9 -40 13 -96h4q6 58 15 95l46 196h164l-124 -479h-189z" />
    <glyph glyph-name="Ycircumflex" unicode="&#x176;" horiz-adv-x="637" 
d="M504 812l-40 -84l-141 61l-142 -61l-39 84l181 106zM230 268l-226 414h193l90 -175q23 -44 36 -89h2q13 41 36 88l84 176h188l-224 -413v-269h-179v268z" />
    <glyph glyph-name="ycircumflex" unicode="&#x177;" horiz-adv-x="488" 
d="M436 631l-53 -83l-126 75l-126 -75l-53 83l179 127zM239 -235h-159l89 241l-173 473h175l50 -166q23 -74 33 -127h4q9 54 30 127l48 166h164z" />
    <glyph glyph-name="Ydieresis" unicode="&#x178;" horiz-adv-x="637" 
d="M165 894h128v-126h-128v126zM355 894h128v-126h-128v126zM230 268l-226 414h193l90 -175q23 -44 36 -89h2q13 41 36 88l84 176h188l-224 -413v-269h-179v268z" />
    <glyph glyph-name="Zacute" unicode="&#x179;" horiz-adv-x="630" 
d="M441 804l-204 -74l-42 100l198 92zM53 682h525v-144l-314 -385h330v-153h-558v143l314 386h-297v153z" />
    <glyph glyph-name="zacute" unicode="&#x17a;" horiz-adv-x="488" 
d="M311 773l71 -106l-185 -114l-61 90zM40 479h406v-135l-203 -205h215v-139h-430v135l204 205h-192v139z" />
    <glyph glyph-name="Zdotaccent" unicode="&#x17b;" horiz-adv-x="630" 
d="M225 898h134v-129h-134v129zM53 682h525v-144l-314 -385h330v-153h-558v143l314 386h-297v153z" />
    <glyph glyph-name="zdotaccent" unicode="&#x17c;" horiz-adv-x="488" 
d="M174 713h134v-129h-134v129zM40 479h406v-135l-203 -205h215v-139h-430v135l204 205h-192v139z" />
    <glyph glyph-name="Zcaron" unicode="&#x17d;" horiz-adv-x="630" 
d="M116 834l40 84l141 -61l142 61l39 -84l-181 -106zM53 682h525v-144l-314 -385h330v-153h-558v143l314 386h-297v153z" />
    <glyph glyph-name="zcaron" unicode="&#x17e;" horiz-adv-x="488" 
d="M62 675l53 83l126 -75l126 75l53 -83l-179 -127zM40 479h406v-135l-203 -205h215v-139h-430v135l204 205h-192v139z" />
    <glyph glyph-name="longs" unicode="&#x17f;" horiz-adv-x="298" 
d="M62 545q0 89 47 135t137 46q56 0 97 -12v-138q-30 8 -54 8q-32 0 -45 -14.5t-13 -45.5v-524h-169v545z" />
    <glyph glyph-name="florin" unicode="&#x192;" horiz-adv-x="580" 
d="M201 340h-67v142h87l6 41q14 91 58.5 136t131.5 45q46 0 91 -9v-139q-27 6 -51 6q-54 0 -64 -62l-3 -18h82v-142h-102l-64 -403q-15 -94 -60 -144.5t-130 -50.5q-52 0 -93 9v140q26 -7 54 -7q26 0 40.5 14t19.5 47z" />
    <glyph glyph-name="Scommaaccent" unicode="&#x218;" horiz-adv-x="572" 
d="M356 481q0 37 -18 58.5t-50 21.5q-24 0 -40 -14.5t-16 -39.5q0 -29 26.5 -47t84.5 -38q186 -65 186 -228q0 -85 -61.5 -150.5t-180.5 -65.5q-112 0 -178.5 65t-66.5 177h171q0 -99 77 -99q29 0 47.5 17t18.5 46q0 33 -24.5 53.5t-84.5 41.5q-186 64 -186 224q0 93 66 147
t163 54q105 0 167 -59.5t62 -163.5h-163zM217 -52h130v-69q0 -77 -41 -133h-71q29 45 29 98h-47v104z" />
    <glyph glyph-name="scommaaccent" unicode="&#x219;" horiz-adv-x="451" 
d="M265 341q0 48 -42 48q-15 0 -24 -8.5t-9 -19.5q0 -20 18 -32.5t76 -32.5q72 -24 104.5 -61t32.5 -92q0 -70 -52 -115t-146 -45q-97 0 -145 44t-48 121h146q0 -59 49 -59q17 0 28.5 11.5t11.5 27.5q0 20 -19.5 34.5t-67.5 30.5q-70 23 -105 59t-35 93q0 70 52.5 110
t134.5 40q81 0 129.5 -42t53.5 -112h-143zM153 -52h130v-69q0 -77 -41 -133h-71q29 45 29 98h-47v104z" />
    <glyph glyph-name="uni021A" unicode="&#x21a;" horiz-adv-x="494" 
d="M157 529h-153v153h486v-153h-153v-529h-180v529zM180 -52h130v-69q0 -77 -41 -133h-71q29 45 29 98h-47v104z" />
    <glyph glyph-name="uni021B" unicode="&#x21b;" horiz-adv-x="359" 
d="M8 479h55v153h169v-153h105v-142h-105v-147q0 -32 11 -43t41 -11q25 0 57 8v-136q-52 -15 -105 -15q-90 0 -131.5 44t-41.5 130v170h-55v142zM144 -52h130v-69q0 -77 -41 -133h-71q29 45 29 98h-47v104z" />
    <glyph glyph-name="uni0237" unicode="&#x237;" horiz-adv-x="285" 
d="M227 -18q0 -119 -52.5 -176t-147.5 -57q-60 0 -99 13v143q23 -7 59 -7t53.5 19t17.5 66v496h169v-497z" />
    <glyph glyph-name="circumflex" unicode="&#x2c6;" horiz-adv-x="318" 
d="M338 631l-53 -83l-126 75l-126 -75l-53 83l179 127z" />
    <glyph glyph-name="caron" unicode="&#x2c7;" horiz-adv-x="318" 
d="M-20 675l53 83l126 -75l126 75l53 -83l-179 -127z" />
    <glyph glyph-name="uni02C9" unicode="&#x2c9;" horiz-adv-x="318" 
d="M5 586v105h308v-105h-308z" />
    <glyph glyph-name="breve" unicode="&#x2d8;" horiz-adv-x="318" 
d="M333 734q-4 -79 -53 -123t-121 -44q-78 0 -124 43t-50 124h104q3 -26 21 -41.5t49 -15.5t49.5 16t20.5 41h104z" />
    <glyph glyph-name="dotaccent" unicode="&#x2d9;" horiz-adv-x="318" 
d="M92 713h134v-129h-134v129z" />
    <glyph glyph-name="ring" unicode="&#x2da;" horiz-adv-x="318" 
d="M27 663q0 56 38.5 95t95.5 39q55 0 94.5 -39.5t39.5 -94.5t-39.5 -94.5t-94.5 -39.5q-57 0 -95.5 39t-38.5 95zM112 663q0 -20 14.5 -34.5t34.5 -14.5t34.5 14.5t14.5 34.5t-14.5 34.5t-34.5 14.5t-34.5 -14.5t-14.5 -34.5z" />
    <glyph glyph-name="ogonek" unicode="&#x2db;" horiz-adv-x="318" 
d="M239 -228q-25 -7 -71 -7q-60 0 -92 33.5t-32 83.5q0 36 22.5 68.5t56.5 49.5h90q-53 -50 -53 -85q0 -40 46 -40q15 0 33 4v-107z" />
    <glyph glyph-name="tilde" unicode="&#x2dc;" horiz-adv-x="318" 
d="M-25 584q3 70 33.5 110t82.5 40q37 0 74 -25t59 -25q28 0 29 40h90q-6 -150 -118 -150q-42 0 -79 25t-53 25q-11 0 -19 -10.5t-9 -29.5h-90z" />
    <glyph glyph-name="hungarumlaut" unicode="&#x2dd;" horiz-adv-x="318" 
d="M184 691l-110 -158l-90 54l94 166zM374 691l-110 -158l-90 54l94 166z" />
    <glyph glyph-name="uni0326" unicode="&#x326;" horiz-adv-x="0" 
d="M-223 -52h130v-69q0 -77 -41 -133h-71q29 45 29 98h-47v104z" />
    <glyph glyph-name="uni0394" unicode="&#x394;" horiz-adv-x="681" 
d="M265 682h169l240 -682h-667zM226 138h225l-86 264q-11 32 -23 83h-5q-16 -60 -24 -84z" />
    <glyph glyph-name="uni03A9" unicode="&#x3a9;" horiz-adv-x="766" 
d="M728 397q0 -83 -39.5 -144t-105.5 -88v-12h148v-153h-315v213q60 16 95 60.5t35 108.5q0 78 -43.5 124t-120.5 46q-74 0 -119 -45.5t-45 -124.5q0 -64 35 -108.5t95 -60.5v-213h-313v153h145v12q-61 25 -102 84t-41 148q0 129 94.5 218t252.5 89q161 0 252.5 -86
t91.5 -221z" />
    <glyph glyph-name="uni03BC" unicode="&#x3bc;" horiz-adv-x="605" 
d="M53 479h169v-262q0 -84 61 -84q78 0 78 104v242h169v-283q0 -30 8 -40.5t25 -10.5q10 0 22 3v-148q-34 -12 -77 -12q-109 0 -134 72h-4q-29 -75 -102 -75q-12 0 -29.5 5t-24.5 10l-3 -2q11 -44 11 -122v-89h-169v692z" />
    <glyph glyph-name="pi" unicode="&#x3c0;" horiz-adv-x="666" 
d="M627 8q-32 -15 -98 -15q-150 0 -150 168v176h-98v-202q0 -77 -17 -135h-170q18 57 18 141v196q-50 0 -102 -24v139q54 27 140 27h496v-142h-98v-151q0 -51 38 -51q21 0 41 6v-133z" />
    <glyph glyph-name="uni0400" unicode="&#x400;" horiz-adv-x="556" 
d="M190 922l198 -92l-42 -100l-204 74zM492 529h-249v-106h240v-143h-240v-127h259v-153h-438v682h428v-153z" />
    <glyph glyph-name="uni0401" unicode="&#x401;" horiz-adv-x="556" 
d="M116 894h128v-126h-128v126zM306 894h128v-126h-128v126zM492 529h-249v-106h240v-143h-240v-127h259v-153h-438v682h428v-153z" />
    <glyph glyph-name="uni0402" unicode="&#x402;" horiz-adv-x="698" 
d="M465 206q0 84 -66 84q-33 0 -53 -24.5t-20 -69.5v-196h-179v529h-143v153h467l-1 -153h-144v-158h4q39 72 134 72q89 0 134.5 -58t45.5 -164v-221q0 -221 -200 -221q-57 0 -96 13v133q23 -7 51 -7q66 0 66 70v218z" />
    <glyph glyph-name="uni0403" unicode="&#x403;" horiz-adv-x="506" 
d="M418 804l-204 -74l-42 100l198 92zM64 682h438v-153h-266v-529h-172v682z" />
    <glyph glyph-name="uni0404" unicode="&#x404;" horiz-adv-x="759" 
d="M385 704q129 0 217 -66.5t111 -162.5h-193q-15 37 -51 61.5t-85 24.5q-65 0 -106 -38t-57 -100h262v-143h-265q14 -69 57.5 -114t109.5 -45q55 0 90 27.5t50 69.5h199q-32 -106 -120.5 -173t-222.5 -67q-157 0 -254 103.5t-97 261.5q0 156 100 258.5t255 102.5z" />
    <glyph glyph-name="uni0405" unicode="&#x405;" horiz-adv-x="572" 
d="M356 481q0 37 -18 58.5t-50 21.5q-24 0 -40 -14.5t-16 -39.5q0 -29 26.5 -47t84.5 -38q186 -65 186 -228q0 -85 -61.5 -150.5t-180.5 -65.5q-112 0 -178.5 65t-66.5 177h171q0 -99 77 -99q29 0 47.5 17t18.5 46q0 33 -24.5 53.5t-84.5 41.5q-186 64 -186 224q0 93 66 147
t163 54q105 0 167 -59.5t62 -163.5h-163z" />
    <glyph glyph-name="uni0406" unicode="&#x406;" horiz-adv-x="309" 
d="M65 682h179v-682h-179v682z" />
    <glyph glyph-name="uni0407" unicode="&#x407;" horiz-adv-x="309" 
d="M-5 894h128v-126h-128v126zM185 894h128v-126h-128v126zM65 682h179v-682h-179v682z" />
    <glyph glyph-name="uni0408" unicode="&#x408;" 
d="M170 682h181v-455q0 -136 -56 -193t-178 -57q-60 0 -113 20v147q43 -16 85 -16q44 0 62.5 21t18.5 67v466z" />
    <glyph glyph-name="uni0409" unicode="&#x409;" horiz-adv-x="955" 
d="M299 529l-26 -325q-9 -114 -52.5 -163t-141.5 -49q-42 0 -74 10v147q16 -6 39 -6q28 0 41 12.5t16 48.5l37 478h472v-254h73q119 0 182.5 -57.5t63.5 -154.5q0 -98 -68.5 -157t-180.5 -59h-249v529h-132zM749 216q0 39 -25 61.5t-68 22.5h-46v-172h46q44 0 68.5 22.5
t24.5 65.5z" />
    <glyph glyph-name="uni040A" unicode="&#x40a;" horiz-adv-x="948" 
d="M603 428h73q119 0 182.5 -57.5t63.5 -154.5q0 -98 -68.5 -157t-180.5 -59h-249v275h-180v-275h-179v682h179v-254h180v254h179v-254zM742 216q0 39 -25 61.5t-68 22.5h-46v-172h46q44 0 68.5 22.5t24.5 65.5z" />
    <glyph glyph-name="uni040B" unicode="&#x40b;" horiz-adv-x="698" 
d="M326 371h4q39 72 134 72q89 0 134.5 -58t45.5 -164v-221h-179v206q0 84 -66 84q-33 0 -53 -24.5t-20 -69.5v-196h-179v529h-143v153h467l-1 -153h-144v-158z" />
    <glyph glyph-name="uni040C" unicode="&#x40c;" horiz-adv-x="684" 
d="M488 804l-204 -74l-42 100l198 92zM244 296v-296h-179v682h179v-296l242 296h216l-293 -329l300 -353h-223z" />
    <glyph glyph-name="uni040D" unicode="&#x40d;" horiz-adv-x="700" 
d="M250 922l198 -92l-42 -100l-204 74zM237 682v-315q0 -65 -3 -110h3q25 59 79 153l155 272h164v-682h-172v297q0 6 4 122h-4q-19 -42 -103 -188l-132 -231h-163v682h172z" />
    <glyph glyph-name="uni040E" unicode="&#x40e;" horiz-adv-x="641" 
d="M511 899q-4 -71 -53 -111.5t-121 -40.5q-79 0 -124.5 40.5t-49.5 111.5h104q2 -22 21 -34.5t49 -12.5q31 0 50 12.5t20 34.5h104zM409 161q-79 -169 -212 -169q-38 0 -79 13v147q24 -9 54 -9q28 0 45 11t36 46l9 18l-258 464h193l115 -221q20 -40 33 -74h2q7 28 25 73
l91 222h188z" />
    <glyph glyph-name="uni040F" unicode="&#x40f;" horiz-adv-x="700" 
d="M65 682h172v-529h226v529h172v-682h-196v-175h-178v175h-196v682z" />
    <glyph glyph-name="uni0410" unicode="&#x410;" horiz-adv-x="681" 
d="M265 682h169l240 -682h-180l-44 137h-222l-44 -137h-177zM266 256h146l-47 146q-11 32 -23 83h-5q-16 -60 -24 -84z" />
    <glyph glyph-name="uni0411" unicode="&#x411;" horiz-adv-x="593" 
d="M484 682v-152h-240v-102h73q119 0 182.5 -57.5t63.5 -154.5q0 -98 -68.5 -157t-180.5 -59h-249v682h419zM383 216q0 39 -25 61.5t-68 22.5h-46v-172h46q44 0 68.5 22.5t24.5 65.5z" />
    <glyph glyph-name="uni0412" unicode="&#x412;" horiz-adv-x="579" 
d="M65 682h211q112 0 178 -42.5t66 -128.5q0 -54 -36.5 -92.5t-91.5 -49.5v-2q74 -12 115.5 -59t41.5 -107q0 -92 -68.5 -146.5t-176.5 -54.5h-239v682zM345 493q0 29 -20 46.5t-60 17.5h-34v-136h39q41 0 58 18t17 54zM370 216q0 36 -25 59.5t-68 23.5h-46v-171h46
q44 0 68.5 22.5t24.5 65.5z" />
    <glyph glyph-name="uni0413" unicode="&#x413;" horiz-adv-x="506" 
d="M64 682h438v-153h-266v-529h-172v682z" />
    <glyph glyph-name="uni0414" unicode="&#x414;" horiz-adv-x="822" 
d="M20 153h31q39 0 62 31t29 109l29 389h516v-529h105v-328h-179v175h-414v-175h-179v328zM508 529h-175l-18 -236q-8 -101 -41 -140h234v376z" />
    <glyph glyph-name="uni0415" unicode="&#x415;" horiz-adv-x="556" 
d="M492 529h-249v-106h240v-143h-240v-127h259v-153h-438v682h428v-153z" />
    <glyph glyph-name="uni0416" unicode="&#x416;" horiz-adv-x="987" 
d="M184 0h-209l260 348l-249 334h210l208 -296v296h179v-296l208 296h210l-249 -334l260 -348h-209l-220 301v-301h-179v301z" />
    <glyph glyph-name="uni0417" unicode="&#x417;" horiz-adv-x="571" 
d="M200 209q2 -38 22.5 -62.5t57.5 -24.5t59.5 23.5t22.5 65.5q0 40 -25.5 64t-71.5 24h-48v133h45q37 0 58 18.5t21 52.5q0 23 -17.5 40.5t-44.5 17.5q-34 0 -48 -22.5t-14 -52.5h-180q7 101 73 159.5t167 58.5q117 0 179.5 -49.5t62.5 -134.5q0 -49 -30 -88t-73 -55v-3
q57 -15 91 -61t34 -111q0 -99 -71.5 -161t-190.5 -62q-122 0 -188 64.5t-71 165.5h180z" />
    <glyph glyph-name="uni0418" unicode="&#x418;" horiz-adv-x="700" 
d="M237 682v-315q0 -65 -3 -110h3q25 59 79 153l155 272h164v-682h-172v297q0 6 4 122h-4q-19 -42 -103 -188l-132 -231h-163v682h172z" />
    <glyph glyph-name="uni0419" unicode="&#x419;" horiz-adv-x="700" 
d="M519 899q-4 -71 -53 -111.5t-121 -40.5q-79 0 -124.5 40.5t-49.5 111.5h104q2 -22 21 -34.5t49 -12.5q31 0 50 12.5t20 34.5h104zM237 682v-315q0 -65 -3 -110h3q25 59 79 153l155 272h164v-682h-172v297q0 6 4 122h-4q-19 -42 -103 -188l-132 -231h-163v682h172z" />
    <glyph glyph-name="uni041A" unicode="&#x41a;" horiz-adv-x="684" 
d="M244 296v-296h-179v682h179v-296l242 296h216l-293 -329l300 -353h-223z" />
    <glyph glyph-name="uni041B" unicode="&#x41b;" horiz-adv-x="723" 
d="M273 204q-9 -114 -52.5 -163t-141.5 -49q-42 0 -74 10v147q16 -6 39 -6q28 0 41 12.5t16 48.5l37 478h520v-682h-172v529h-187z" />
    <glyph glyph-name="uni041C" unicode="&#x41c;" horiz-adv-x="827" 
d="M797 0h-172l-30 297q-10 104 -12 131h-8q-5 -18 -15 -64t-16 -67l-78 -297h-118l-81 298q-22 82 -30 130h-10q-1 -57 -9 -128l-30 -300h-158l81 682h192l72 -252q30 -99 36 -125h3l35 125l68 252h191z" />
    <glyph glyph-name="uni041D" unicode="&#x41d;" horiz-adv-x="700" 
d="M456 275h-212v-275h-179v682h179v-254h212v254h179v-682h-179v275z" />
    <glyph glyph-name="uni041E" unicode="&#x41e;" horiz-adv-x="783" 
d="M30 341q0 149 104 256t260 107q162 0 260.5 -107t98.5 -256q0 -150 -103.5 -256.5t-257.5 -106.5q-90 0 -161.5 32.5t-114 86t-64.5 116.5t-22 128zM212 341q0 -86 51.5 -144t127.5 -58q77 0 128.5 58t51.5 144t-49 144t-129 58q-77 0 -129 -58t-52 -144z" />
    <glyph glyph-name="uni041F" unicode="&#x41f;" horiz-adv-x="700" 
d="M463 529h-226v-529h-172v682h570v-682h-172v529z" />
    <glyph glyph-name="uni0420" unicode="&#x420;" horiz-adv-x="578" 
d="M64 682h230q116 0 190 -57.5t74 -167.5q0 -107 -67.5 -167t-199.5 -60h-48v-230h-179v682zM378 455q0 37 -22.5 62.5t-70.5 25.5h-42v-174h40q95 0 95 86z" />
    <glyph glyph-name="uni0421" unicode="&#x421;" horiz-adv-x="765" 
d="M385 704q136 0 227.5 -80.5t105.5 -184.5h-191q-7 46 -46.5 80t-96.5 34q-81 0 -126.5 -60.5t-45.5 -150.5q0 -87 48.5 -150t124.5 -63q63 0 99.5 37.5t47.5 87.5h198q-26 -118 -117 -197t-232 -79q-157 0 -254 103.5t-97 261.5q0 156 100 258.5t255 102.5z" />
    <glyph glyph-name="uni0422" unicode="&#x422;" horiz-adv-x="494" 
d="M157 529h-153v153h486v-153h-153v-529h-180v529z" />
    <glyph glyph-name="uni0423" unicode="&#x423;" horiz-adv-x="641" 
d="M409 161q-79 -169 -212 -169q-38 0 -79 13v147q24 -9 54 -9q28 0 45 11t36 46l9 18l-258 464h193l115 -221q20 -40 33 -74h2q7 28 25 73l91 222h188z" />
    <glyph glyph-name="uni0424" unicode="&#x424;" horiz-adv-x="865" 
d="M343 -10v72q-149 7 -233.5 83t-84.5 200q0 125 86 200t232 80v66h179v-66q149 -8 233.5 -81.5t84.5 -198.5t-85 -200.5t-233 -82.5v-72h-179zM343 489q-62 0 -99.5 -39t-37.5 -106t40 -106.5t97 -39.5v291zM522 198q57 0 97 39.5t40 106.5t-38 106t-99 39v-291z" />
    <glyph glyph-name="uni0425" unicode="&#x425;" horiz-adv-x="646" 
d="M278 558q6 -9 48 -82h3q36 66 48 84l76 122h188l-225 -325l235 -357h-195l-82 133q-3 5 -54 95h-2q-10 -15 -28 -48.5t-28 -48.5l-79 -131h-188l234 351l-226 331h196z" />
    <glyph glyph-name="uni0426" unicode="&#x426;" horiz-adv-x="770" 
d="M65 0v682h179v-529h212v529h179v-529h105v-328h-179v175h-496z" />
    <glyph glyph-name="uni0427" unicode="&#x427;" horiz-adv-x="665" 
d="M421 0v310h-4q-25 -33 -69.5 -52.5t-86.5 -19.5q-95 0 -151 57t-56 163v224h179v-187q0 -51 24 -77.5t68 -26.5q43 0 69.5 29t26.5 77v185h179v-682h-179z" />
    <glyph glyph-name="uni0428" unicode="&#x428;" horiz-adv-x="966" 
d="M65 682h172v-529h160v529h172v-529h160v529h172v-682h-836v682z" />
    <glyph glyph-name="uni0429" unicode="&#x429;" horiz-adv-x="1036" 
d="M65 0v682h172v-529h160v529h172v-529h160v529h172v-529h105v-328h-179v175h-762z" />
    <glyph glyph-name="uni042A" unicode="&#x42a;" horiz-adv-x="681" 
d="M4 529v153h332v-254h73q119 0 182.5 -57.5t63.5 -154.5q0 -98 -68.5 -157t-180.5 -59h-249v529h-153zM475 216q0 39 -25 61.5t-68 22.5h-46v-172h46q44 0 68.5 22.5t24.5 65.5z" />
    <glyph glyph-name="uni042B" unicode="&#x42b;" horiz-adv-x="879" 
d="M64 682h179v-254h73q119 0 182.5 -57.5t63.5 -154.5q0 -98 -68.5 -157t-180.5 -59h-249v682zM636 682h179v-682h-179v682zM382 216q0 39 -25 61.5t-68 22.5h-46v-172h46q44 0 68.5 22.5t24.5 65.5z" />
    <glyph glyph-name="uni042C" unicode="&#x42c;" horiz-adv-x="589" 
d="M65 682h179v-254h73q119 0 182.5 -57.5t63.5 -154.5q0 -98 -68.5 -157t-180.5 -59h-249v682zM383 216q0 39 -25 61.5t-68 22.5h-46v-172h46q44 0 68.5 22.5t24.5 65.5z" />
    <glyph glyph-name="uni042D" unicode="&#x42d;" horiz-adv-x="759" 
d="M374 704q155 0 255 -102.5t100 -258.5q0 -158 -97 -261.5t-254 -103.5q-134 0 -222.5 67t-120.5 173h199q15 -42 50 -69.5t90 -27.5q66 0 109 44.5t57 114.5h-272v143h269q-16 61 -58.5 99.5t-103.5 38.5q-49 0 -85 -24.5t-51 -61.5h-193q23 96 111 162.5t217 66.5z" />
    <glyph glyph-name="uni042E" unicode="&#x42e;" horiz-adv-x="1067" 
d="M676 -22q-153 0 -244 86.5t-112 210.5h-76v-275h-179v682h179v-254h80q29 120 125.5 198t228.5 78q162 0 260.5 -107t98.5 -256q0 -150 -103.5 -256.5t-257.5 -106.5zM496 341q0 -86 51.5 -144t127.5 -58q77 0 128.5 58t51.5 144t-49 144t-129 58q-77 0 -129 -58
t-52 -144z" />
    <glyph glyph-name="uni042F" unicode="&#x42f;" horiz-adv-x="631" 
d="M197 285q-57 20 -92 67t-35 117q0 213 275 213h222v-682h-179v258h-18l-173 -258h-208zM253 460q0 -38 23.5 -59t61.5 -21h50v163h-49q-41 0 -63.5 -22t-22.5 -61z" />
    <glyph glyph-name="uni0430" unicode="&#x430;" horiz-adv-x="599" 
d="M538 0h-160v57h-6q-53 -73 -144 -73q-30 0 -62 13t-65 40.5t-54 80.5t-21 122q0 113 64 182t151 69q89 0 131 -69h6v57h160v-479zM197 239q0 -47 23.5 -78t68.5 -31q36 0 62 30.5t26 77.5q0 49 -25 79.5t-63 30.5q-44 0 -68 -32.5t-24 -76.5z" />
    <glyph glyph-name="uni0431" unicode="&#x431;" horiz-adv-x="568" 
d="M370 548q-147 -14 -159 -81h3q39 21 96 21q103 0 167.5 -69.5t64.5 -178.5q0 -108 -72.5 -182.5t-183.5 -74.5q-118 0 -187 78.5t-69 212.5q0 188 73.5 285t218.5 122q83 15 142 46l63 -135q-69 -36 -157 -44zM199 239q0 -47 24 -77t63 -30q41 0 64 30t23 77
q0 46 -22.5 76.5t-64.5 30.5t-64.5 -29.5t-22.5 -77.5z" />
    <glyph glyph-name="uni0432" unicode="&#x432;" horiz-adv-x="524" 
d="M58 479h236q83 0 124.5 -29t41.5 -82q0 -86 -88 -107q59 -11 87.5 -43.5t28.5 -74.5q0 -65 -46.5 -104t-132.5 -39h-251v479zM217 379v-81h30q55 0 55 43q0 38 -51 38h-34zM217 203v-103h54q58 0 58 51q0 21 -16 36.5t-48 15.5h-48z" />
    <glyph glyph-name="uni0433" unicode="&#x433;" horiz-adv-x="441" 
d="M429 337h-202v-337h-169v479h371v-142z" />
    <glyph glyph-name="uni0434" unicode="&#x434;" horiz-adv-x="668" 
d="M15 142h9q48 0 77.5 42t40.5 146l15 149h427v-337h69v-297h-164v155h-310v-155h-164v297zM415 338h-122l-5 -47q-8 -69 -18.5 -98.5t-30.5 -50.5h176v196z" />
    <glyph glyph-name="uni0435" unicode="&#x435;" horiz-adv-x="557" 
d="M278 495q110 0 179 -70.5t69 -183.5q0 -22 -2 -40h-336q0 -41 28 -69.5t69 -28.5q56 0 79 45h156q-25 -75 -84 -120t-154 -45q-107 0 -181.5 71t-74.5 187q0 110 66.5 182t185.5 72zM276 386q-37 0 -60 -22.5t-27 -55.5h174q-4 34 -27.5 56t-59.5 22z" />
    <glyph glyph-name="uni0436" unicode="&#x436;" horiz-adv-x="841" 
d="M341 222l-144 -222h-192l176 247l-172 232h187l145 -211v211h159v-211l145 211h187l-172 -232l176 -247h-192l-144 222v-222h-159v222z" />
    <glyph glyph-name="uni0437" unicode="&#x437;" horiz-adv-x="463" 
d="M162 147q0 -22 16.5 -36t45.5 -14q26 0 41.5 12t15.5 32q0 50 -63 50h-30v105h39q48 0 48 43q0 19 -14 30.5t-37 11.5q-49 0 -55 -39h-143q5 70 58.5 111.5t147.5 41.5q95 0 145 -37t50 -97q0 -45 -26 -75.5t-69 -40.5q47 -6 76 -35t29 -73q0 -68 -53 -111t-168 -43
q-89 0 -140.5 43t-59.5 121h146z" />
    <glyph glyph-name="uni0438" unicode="&#x438;" horiz-adv-x="603" 
d="M58 479h159v-126q0 -89 -3 -148h2q22 41 64 103l116 171h149v-479h-159v124q0 92 3 150h-2q-23 -43 -64 -103l-116 -171h-149v479z" />
    <glyph glyph-name="uni0439" unicode="&#x439;" horiz-adv-x="603" 
d="M478 734q-4 -79 -53 -123t-121 -44q-78 0 -124 43t-50 124h104q3 -26 21 -41.5t49 -15.5t49.5 16t20.5 41h104zM58 479h159v-126q0 -89 -3 -148h2q22 41 64 103l116 171h149v-479h-159v124q0 92 3 150h-2q-23 -43 -64 -103l-116 -171h-149v479z" />
    <glyph glyph-name="uni043A" unicode="&#x43a;" horiz-adv-x="587" 
d="M58 479h169v-201l160 201h191l-191 -232l195 -247h-196l-159 212v-212h-169v479z" />
    <glyph glyph-name="uni043B" unicode="&#x43b;" horiz-adv-x="595" 
d="M119 479h418v-479h-169v338h-113l-19 -191q-8 -84 -46 -119.5t-118 -35.5q-27 0 -57 8v139q18 -4 30 -4q40 0 44 45z" />
    <glyph glyph-name="uni043C" unicode="&#x43c;" horiz-adv-x="702" 
d="M682 0h-156l-27 169q-12 79 -13 101h-3q-9 -54 -22 -101l-44 -169h-128l-47 170q-18 63 -24 100h-3q-3 -29 -14 -99l-27 -171h-154l89 479h172l48 -178q11 -37 23 -98h3q7 35 24 103l44 173h172z" />
    <glyph glyph-name="uni043D" unicode="&#x43d;" horiz-adv-x="603" 
d="M545 0h-169v180h-149v-180h-169v479h169v-157h149v157h169v-479z" />
    <glyph glyph-name="uni043E" unicode="&#x43e;" horiz-adv-x="564" 
d="M26 240q0 111 72.5 183t183.5 72q113 0 184.5 -72.5t71.5 -182.5q0 -108 -72.5 -182.5t-183.5 -74.5q-110 0 -183 74t-73 183zM195 239q0 -47 24 -77t63 -30q41 0 64 30t23 77q0 46 -22.5 76.5t-64.5 30.5t-64.5 -29.5t-22.5 -77.5z" />
    <glyph glyph-name="uni043F" unicode="&#x43f;" horiz-adv-x="603" 
d="M545 0h-169v337h-149v-337h-169v479h487v-479z" />
    <glyph glyph-name="uni0440" unicode="&#x440;" horiz-adv-x="599" 
d="M59 479h161v-50h5q51 62 139 62q23 0 48.5 -7.5t54 -26.5t51.5 -47t38 -73.5t15 -101.5q0 -113 -65.5 -182t-153.5 -69q-80 0 -124 63h-5v-282h-164v714zM400 236q0 47 -23.5 78t-68.5 31q-36 0 -62 -30.5t-26 -77.5q0 -49 25 -79.5t63 -30.5q44 0 68 32.5t24 76.5z" />
    <glyph glyph-name="uni0441" unicode="&#x441;" horiz-adv-x="553" 
d="M284 495q96 0 158 -58.5t74 -137.5h-163q-5 25 -24.5 40t-46.5 15q-44 0 -64.5 -32t-20.5 -82t22 -82.5t66 -32.5q28 0 47.5 16.5t26.5 42.5h166q-22 -91 -83.5 -146t-159.5 -55q-107 0 -181.5 71t-74.5 187q0 108 70 181t188 73z" />
    <glyph glyph-name="uni0442" unicode="&#x442;" horiz-adv-x="433" 
d="M421 337h-120v-337h-169v337h-120v142h409v-142z" />
    <glyph glyph-name="uni0443" unicode="&#x443;" horiz-adv-x="488" 
d="M239 -235h-159l89 241l-173 473h175l50 -166q23 -74 33 -127h4q9 54 30 127l48 166h164z" />
    <glyph glyph-name="uni0444" unicode="&#x444;" horiz-adv-x="874" 
d="M356 428v292h164v-291h5q47 62 127 62q24 0 48.5 -7.5t51 -26.5t46.5 -47t33 -73.5t13 -101.5q0 -114 -58 -182.5t-140 -68.5q-80 0 -121 63h-5v-282h-164v281h-5q-53 -62 -128 -62q-84 0 -138.5 69t-54.5 187q0 115 59 183t145 68q39 0 70 -18.5t47 -44.5h5zM194 239
q0 -52 21.5 -85t61.5 -33q35 0 58.5 33t23.5 84q0 52 -23 84t-59 32q-39 0 -61 -33.5t-22 -81.5zM680 236q0 51 -21.5 84.5t-60.5 33.5q-35 0 -58 -33t-23 -84q0 -52 22.5 -84t58.5 -32q39 0 60.5 33.5t21.5 81.5z" />
    <glyph glyph-name="uni0445" unicode="&#x445;" horiz-adv-x="517" 
d="M167 239l-163 240h186l47 -85q12 -22 22 -52h4q14 42 18 50l43 87h185l-162 -237l167 -242h-193l-46 85q-17 33 -19 54h-4q-6 -22 -22 -55l-46 -84h-189z" />
    <glyph glyph-name="uni0446" unicode="&#x446;" horiz-adv-x="629" 
d="M614 142v-297h-169v155h-387v479h169v-337h149v337h169v-337h69z" />
    <glyph glyph-name="uni0447" unicode="&#x447;" horiz-adv-x="598" 
d="M540 0h-169v211h-4q-41 -75 -136 -75q-88 0 -133 58t-45 164v121h169v-111q0 -84 71 -84q33 0 55.5 24.5t22.5 69.5v101h169v-479z" />
    <glyph glyph-name="uni0448" unicode="&#x448;" horiz-adv-x="885" 
d="M58 0v479h169v-337h131v337h169v-337h131v337h169v-479h-769z" />
    <glyph glyph-name="uni0449" unicode="&#x449;" horiz-adv-x="911" 
d="M58 0v479h169v-337h131v337h169v-337h131v337h169v-337h69v-297h-169v155h-669z" />
    <glyph glyph-name="uni044A" unicode="&#x44a;" horiz-adv-x="589" 
d="M307 322h60q196 0 196 -162q0 -74 -50.5 -117t-138.5 -43h-236v337h-126v142h295v-157zM307 204v-86h33q54 0 54 44q0 42 -54 42h-33z" />
    <glyph glyph-name="uni044B" unicode="&#x44b;" horiz-adv-x="784" 
d="M287 322q196 0 196 -162q0 -74 -50.5 -117t-138.5 -43h-236v479h169v-157h60zM557 479h169v-479h-169v479zM227 204v-86h33q54 0 54 44q0 42 -54 42h-33z" />
    <glyph glyph-name="uni044C" unicode="&#x44c;" horiz-adv-x="509" 
d="M287 322q196 0 196 -162q0 -74 -50.5 -117t-138.5 -43h-236v479h169v-157h60zM227 204v-86h33q54 0 54 44q0 42 -54 42h-33z" />
    <glyph glyph-name="uni044D" unicode="&#x44d;" horiz-adv-x="543" 
d="M267 495q111 0 180.5 -72t69.5 -186q0 -108 -70 -181t-188 -73q-98 0 -161.5 49.5t-76.5 124.5h163q16 -54 73 -54q36 0 58 23t27 65h-146v107h144q-15 77 -82 77q-57 0 -74 -43h-166q22 75 84 119t165 44z" />
    <glyph glyph-name="uni044E" unicode="&#x44e;" horiz-adv-x="824" 
d="M227 316h69q23 81 89.5 130t156.5 49q113 0 184.5 -72.5t71.5 -182.5q0 -108 -72.5 -182.5t-183.5 -74.5q-96 0 -165 56.5t-86 146.5h-64v-186h-169v479h169v-163zM455 239q0 -47 24 -77t63 -30q41 0 64 30t23 77q0 46 -22.5 76.5t-64.5 30.5t-64.5 -29.5t-22.5 -77.5z
" />
    <glyph glyph-name="uni044F" unicode="&#x44f;" horiz-adv-x="535" 
d="M295 163l-91 -163h-189l127 185q-39 14 -64.5 47.5t-25.5 84.5q0 75 52.5 118.5t150.5 43.5h222v-479h-169v163h-13zM308 267v98h-29q-58 0 -58 -50q0 -48 59 -48h28z" />
    <glyph glyph-name="uni0450" unicode="&#x450;" horiz-adv-x="557" 
d="M204 773l175 -130l-61 -90l-185 114zM278 495q110 0 179 -70.5t69 -183.5q0 -22 -2 -40h-336q0 -41 28 -69.5t69 -28.5q56 0 79 45h156q-25 -75 -84 -120t-154 -45q-107 0 -181.5 71t-74.5 187q0 110 66.5 182t185.5 72zM276 386q-37 0 -60 -22.5t-27 -55.5h174
q-4 34 -27.5 56t-59.5 22z" />
    <glyph glyph-name="uni0451" unicode="&#x451;" horiz-adv-x="557" 
d="M115 714h128v-126h-128v126zM305 714h128v-126h-128v126zM278 495q110 0 179 -70.5t69 -183.5q0 -22 -2 -40h-336q0 -41 28 -69.5t69 -28.5q56 0 79 45h156q-25 -75 -84 -120t-154 -45q-107 0 -181.5 71t-74.5 187q0 110 66.5 182t185.5 72zM276 386q-37 0 -60 -22.5
t-27 -55.5h174q-4 34 -27.5 56t-59.5 22z" />
    <glyph glyph-name="uni0452" unicode="&#x452;" horiz-adv-x="598" 
d="M376 262q0 84 -71 84q-33 0 -55.5 -24.5t-22.5 -69.5v-252h-169v547h-58v105h58v68h169v-68h130v-105h-130v-128h4q41 75 136 75q88 0 133 -58t45 -164v-290q0 -233 -195 -233q-55 0 -94 13v133q23 -7 54 -7q34 0 50 18.5t16 66.5v289z" />
    <glyph glyph-name="uni0453" unicode="&#x453;" horiz-adv-x="441" 
d="M308 773l71 -106l-185 -114l-61 90zM429 337h-202v-337h-169v479h371v-142z" />
    <glyph glyph-name="uni0454" unicode="&#x454;" horiz-adv-x="555" 
d="M284 495q98 0 161 -47t77 -116h-163q-17 43 -73 43q-67 0 -84 -77h140v-107h-142q15 -88 85 -88q28 0 47.5 15t26.5 39h166q-22 -81 -83 -127.5t-160 -46.5q-107 0 -181.5 71t-74.5 187q0 108 70 181t188 73z" />
    <glyph glyph-name="uni0455" unicode="&#x455;" horiz-adv-x="451" 
d="M265 341q0 48 -42 48q-15 0 -24 -8.5t-9 -19.5q0 -20 18 -32.5t76 -32.5q72 -24 104.5 -61t32.5 -92q0 -70 -52 -115t-146 -45q-97 0 -145 44t-48 121h146q0 -59 49 -59q17 0 28.5 11.5t11.5 27.5q0 20 -19.5 34.5t-67.5 30.5q-70 23 -105 59t-35 93q0 70 52.5 110
t134.5 40q81 0 129.5 -42t53.5 -112h-143z" />
    <glyph glyph-name="uni0456" unicode="&#x456;" horiz-adv-x="285" 
d="M58 721h169v-151h-169v151zM58 479h169v-479h-169v479z" />
    <glyph glyph-name="uni0457" unicode="&#x457;" horiz-adv-x="285" 
d="M-16 714h128v-126h-128v126zM174 714h128v-126h-128v126zM58 479h169v-479h-169v479z" />
    <glyph glyph-name="uni0458" unicode="&#x458;" horiz-adv-x="285" 
d="M58 721h169v-151h-169v151zM227 -18q0 -119 -52.5 -176t-147.5 -57q-60 0 -99 13v143q23 -7 59 -7t53.5 19t17.5 66v496h169v-497z" />
    <glyph glyph-name="uni0459" unicode="&#x459;" horiz-adv-x="809" 
d="M527 479v-157h60q196 0 196 -162q0 -74 -50.5 -117t-138.5 -43h-236v338h-104l-18 -190q-8 -84 -46 -120t-118 -36q-27 0 -57 8v139q14 -4 30 -4q40 0 44 45l30 299h408zM527 204v-86h33q54 0 54 44q0 42 -54 42h-33z" />
    <glyph glyph-name="uni045A" unicode="&#x45a;" horiz-adv-x="809" 
d="M587 322q196 0 196 -162q0 -74 -50.5 -117t-138.5 -43h-236v180h-131v-180h-169v479h169v-157h131v157h169v-157h60zM527 204v-86h33q54 0 54 44q0 42 -54 42h-33z" />
    <glyph glyph-name="uni045B" unicode="&#x45b;" horiz-adv-x="598" 
d="M227 547v-128h4q41 75 136 75q88 0 133 -58t45 -164v-272h-169v262q0 84 -71 84q-33 0 -55.5 -24.5t-22.5 -69.5v-252h-169v547h-58v105h58v68h169v-68h130v-105h-130z" />
    <glyph glyph-name="uni045C" unicode="&#x45c;" horiz-adv-x="587" 
d="M365 773l71 -106l-185 -114l-61 90zM58 479h169v-201l160 201h191l-191 -232l195 -247h-196l-159 212v-212h-169v479z" />
    <glyph glyph-name="uni045D" unicode="&#x45d;" horiz-adv-x="603" 
d="M240 773l175 -130l-61 -90l-185 114zM58 479h159v-126q0 -89 -3 -148h2q22 41 64 103l116 171h149v-479h-159v124q0 92 3 150h-2q-23 -43 -64 -103l-116 -171h-149v479z" />
    <glyph glyph-name="uni045E" unicode="&#x45e;" horiz-adv-x="488" 
d="M427 734q-4 -79 -53 -123t-121 -44q-78 0 -124 43t-50 124h104q3 -26 21 -41.5t49 -15.5t49.5 16t20.5 41h104zM239 -235h-159l89 241l-173 473h175l50 -166q23 -74 33 -127h4q9 54 30 127l48 166h164z" />
    <glyph glyph-name="uni045F" unicode="&#x45f;" horiz-adv-x="603" 
d="M386 0v-155h-169v155h-159v479h169v-337h149v337h169v-479h-159z" />
    <glyph glyph-name="uni0490" unicode="&#x490;" horiz-adv-x="506" 
d="M330 840h172v-311h-266v-529h-172v682h266v158z" />
    <glyph glyph-name="uni0491" unicode="&#x491;" horiz-adv-x="449" 
d="M429 337h-202v-337h-169v479h202v135h169v-277z" />
    <glyph glyph-name="Wgrave" unicode="&#x1e80;" horiz-adv-x="894" 
d="M365 922l198 -92l-42 -100l-204 74zM469 314q-14 71 -19 145h-4q-10 -100 -19 -142l-62 -317h-194l-167 682h175l70 -330q10 -48 22 -126h4q4 26 26 135l65 321h168l75 -328q5 -20 23 -128h4q7 63 20 127l64 329h170l-161 -682h-192z" />
    <glyph glyph-name="wgrave" unicode="&#x1e81;" horiz-adv-x="746" 
d="M303 773l175 -130l-61 -90l-185 114zM390 167q-18 86 -19 104h-3q-4 -34 -23 -124l-32 -147h-187l-118 479h164l45 -196q8 -36 17 -95h4q8 64 17 100l49 191h144l48 -195q9 -40 13 -96h4q6 58 15 95l46 196h164l-124 -479h-189z" />
    <glyph glyph-name="Wacute" unicode="&#x1e82;" horiz-adv-x="894" 
d="M575 804l-204 -74l-42 100l198 92zM469 314q-14 71 -19 145h-4q-10 -100 -19 -142l-62 -317h-194l-167 682h175l70 -330q10 -48 22 -126h4q4 26 26 135l65 321h168l75 -328q5 -20 23 -128h4q7 63 20 127l64 329h170l-161 -682h-192z" />
    <glyph glyph-name="wacute" unicode="&#x1e83;" horiz-adv-x="746" 
d="M433 773l71 -106l-185 -114l-61 90zM390 167q-18 86 -19 104h-3q-4 -34 -23 -124l-32 -147h-187l-118 479h164l45 -196q8 -36 17 -95h4q8 64 17 100l49 191h144l48 -195q9 -40 13 -96h4q6 58 15 95l46 196h164l-124 -479h-189z" />
    <glyph glyph-name="Wdieresis" unicode="&#x1e84;" horiz-adv-x="894" 
d="M292 894h128v-126h-128v126zM482 894h128v-126h-128v126zM469 314q-14 71 -19 145h-4q-10 -100 -19 -142l-62 -317h-194l-167 682h175l70 -330q10 -48 22 -126h4q4 26 26 135l65 321h168l75 -328q5 -20 23 -128h4q7 63 20 127l64 329h170l-161 -682h-192z" />
    <glyph glyph-name="wdieresis" unicode="&#x1e85;" horiz-adv-x="746" 
d="M216 714h128v-126h-128v126zM406 714h128v-126h-128v126zM390 167q-18 86 -19 104h-3q-4 -34 -23 -124l-32 -147h-187l-118 479h164l45 -196q8 -36 17 -95h4q8 64 17 100l49 191h144l48 -195q9 -40 13 -96h4q6 58 15 95l46 196h164l-124 -479h-189z" />
    <glyph glyph-name="Ygrave" unicode="&#x1ef2;" horiz-adv-x="637" 
d="M193 922l198 -92l-42 -100l-204 74zM230 268l-226 414h193l90 -175q23 -44 36 -89h2q13 41 36 88l84 176h188l-224 -413v-269h-179v268z" />
    <glyph glyph-name="ygrave" unicode="&#x1ef3;" horiz-adv-x="488" 
d="M176 773l175 -130l-61 -90l-185 114zM239 -235h-159l89 241l-173 473h175l50 -166q23 -74 33 -127h4q9 54 30 127l48 166h164z" />
    <glyph glyph-name="uni2010" unicode="&#x2010;" horiz-adv-x="461" 
d="M73 204v120h322v-120h-322z" />
    <glyph glyph-name="endash" unicode="&#x2013;" horiz-adv-x="550" 
d="M73 204v120h404v-120h-404z" />
    <glyph glyph-name="emdash" unicode="&#x2014;" horiz-adv-x="1100" 
d="M73 204v120h954v-120h-954z" />
    <glyph glyph-name="underscoredbl" unicode="&#x2017;" horiz-adv-x="550" 
d="M0 -40h550v-75h-550v75zM0 -160h550v-75h-550v75z" />
    <glyph glyph-name="quoteleft" unicode="&#x2018;" horiz-adv-x="304" 
d="M244 427h-184v80q0 116 62 213h90q-38 -58 -45 -125h77v-168z" />
    <glyph glyph-name="quoteright" unicode="&#x2019;" horiz-adv-x="304" 
d="M60 720h184v-80q0 -116 -62 -213h-90q38 58 45 125h-77v168z" />
    <glyph glyph-name="quotesinglbase" unicode="&#x201a;" horiz-adv-x="304" 
d="M60 168h184v-80q0 -116 -62 -213h-90q38 58 45 125h-77v168z" />
    <glyph glyph-name="quotereversed" unicode="&#x201b;" horiz-adv-x="304" 
d="M244 552h-77q7 -67 45 -125h-90q-62 97 -62 213v80h184v-168z" />
    <glyph glyph-name="quotedblleft" unicode="&#x201c;" horiz-adv-x="544" 
d="M244 427h-184v80q0 116 62 213h90q-38 -58 -45 -125h77v-168zM484 427h-184v80q0 116 62 213h90q-38 -58 -45 -125h77v-168z" />
    <glyph glyph-name="quotedblright" unicode="&#x201d;" horiz-adv-x="544" 
d="M60 720h184v-80q0 -116 -62 -213h-90q38 58 45 125h-77v168zM300 720h184v-80q0 -116 -62 -213h-90q38 58 45 125h-77v168z" />
    <glyph glyph-name="quotedblbase" unicode="&#x201e;" horiz-adv-x="544" 
d="M60 168h184v-80q0 -116 -62 -213h-90q38 58 45 125h-77v168zM300 168h184v-80q0 -116 -62 -213h-90q38 58 45 125h-77v168z" />
    <glyph glyph-name="dagger" unicode="&#x2020;" horiz-adv-x="488" 
d="M302 411l21 -99l-21 -312h-117l-21 312l21 99l-141 -21v159l141 -21l-21 154h159l-21 -154l142 21v-159z" />
    <glyph glyph-name="daggerdbl" unicode="&#x2021;" horiz-adv-x="488" 
d="M297 0h-107l-16 120l16 73l-146 -16v139l146 -16l-16 73l16 73l-146 -16v139l146 -16l-16 129h139l-16 -129l147 16v-139l-147 16l16 -73l-16 -73l147 16v-139l-147 16l16 -73z" />
    <glyph glyph-name="bullet" unicode="&#x2022;" horiz-adv-x="454" 
d="M63 304q0 68 47.5 116t114.5 48q68 0 117 -48.5t49 -115.5q0 -68 -49 -116t-117 -48q-67 0 -114.5 48t-47.5 116z" />
    <glyph glyph-name="ellipsis" unicode="&#x2026;" horiz-adv-x="1000" 
d="M70 178h194v-178h-194v178zM403 178h194v-178h-194v178zM736 178h194v-178h-194v178z" />
    <glyph glyph-name="perthousand" unicode="&#x2030;" horiz-adv-x="1251" 
d="M30 509q0 93 54.5 143.5t123.5 50.5q30 0 59 -11t55 -32.5t42 -60t16 -88.5q0 -54 -17.5 -95t-45 -62.5t-56 -31.5t-56.5 -10q-68 0 -121.5 49t-53.5 148zM721 682l-477 -682h-109l477 682h109zM265 508q0 46 -16 72.5t-44 26.5q-26 0 -43 -25.5t-17 -72.5
q0 -49 16.5 -75t44.5 -26q25 0 42 26t17 74zM476 176q0 93 54.5 143.5t123.5 50.5q30 0 59 -11t55 -32.5t42 -60t16 -88.5q0 -54 -17.5 -95t-45 -62.5t-56 -31.5t-56.5 -10q-68 0 -121.5 49t-53.5 148zM871 176q0 93 54.5 143.5t123.5 50.5q30 0 59 -11t55 -32.5t42 -60
t16 -88.5q0 -54 -17.5 -95t-45 -62.5t-56 -31.5t-56.5 -10q-68 0 -121.5 49t-53.5 148zM711 175q0 46 -16 72.5t-44 26.5q-26 0 -43 -25.5t-17 -72.5q0 -49 16.5 -75t44.5 -26q25 0 42 26t17 74zM1106 175q0 46 -16 72.5t-44 26.5q-26 0 -43 -25.5t-17 -72.5q0 -49 16.5 -75
t44.5 -26q25 0 42 26t17 74z" />
    <glyph glyph-name="minute" unicode="&#x2032;" horiz-adv-x="249" 
d="M209 667l-95 -256l-74 20l74 267z" />
    <glyph glyph-name="second" unicode="&#x2033;" horiz-adv-x="453" 
d="M209 667l-95 -256l-74 20l74 267zM413 667l-95 -256l-74 20l74 267z" />
    <glyph glyph-name="guilsinglleft" unicode="&#x2039;" horiz-adv-x="304" 
d="M170 463l99 -54l-83 -161l83 -161l-99 -54l-133 215z" />
    <glyph glyph-name="guilsinglright" unicode="&#x203a;" horiz-adv-x="304" 
d="M134 33l-99 54l83 161l-83 161l99 54l133 -215z" />
    <glyph glyph-name="exclamdbl" unicode="&#x203c;" horiz-adv-x="608" 
d="M244 682l-18 -457h-148l-18 457h184zM548 682l-18 -457h-148l-18 457h184zM65 153h174v-153h-174v153zM369 153h174v-153h-174v153z" />
    <glyph glyph-name="uni203E" unicode="&#x203e;" horiz-adv-x="550" 
d="M0 852h550v-110h-550v110z" />
    <glyph glyph-name="fraction" unicode="&#x2044;" horiz-adv-x="196" 
d="M391 682l-477 -682h-109l477 682h109z" />
    <glyph glyph-name="zero.superior" unicode="&#x2070;" 
d="M24 643q0 117 54.5 173t132.5 56q72 0 124 -54t52 -173q0 -67 -17.5 -116t-46.5 -73.5t-58 -35t-59 -10.5q-75 0 -128.5 54.5t-53.5 178.5zM260 643q0 64 -15 95.5t-39 31.5q-22 0 -38 -30t-16 -95q0 -131 55 -131q21 0 37 30.5t16 98.5z" />
    <glyph glyph-name="four.superior" unicode="&#x2074;" 
d="M327 483v-58h-120v58h-193v87l190 289h123v-288h61v-88h-61zM102 571h105v117q0 12 2 48h-3q-10 -22 -39 -66z" />
    <glyph glyph-name="five.superior" unicode="&#x2075;" 
d="M191 713l17 1q73 0 115 -40.5t42 -107.5q0 -64 -45.5 -109.5t-118.5 -45.5q-77 0 -118 39.5t-44 97.5h125q3 -31 34 -31q15 0 25.5 12.5t10.5 31.5q0 51 -69 51q-59 0 -100 -7l24 254h241v-104h-133z" />
    <glyph glyph-name="six.superior" unicode="&#x2076;" 
d="M27 570q0 79 69 168l94 121h129l-97 -130l15 -1q67 -4 107 -47.5t40 -110.5t-48 -113t-132 -46q-83 0 -130 44.5t-47 114.5zM149 570q0 -26 16.5 -42t39.5 -16q24 0 40.5 16t16.5 42q0 27 -16.5 43.5t-40.5 16.5t-40 -17t-16 -43z" />
    <glyph glyph-name="seven.superior" unicode="&#x2077;" 
d="M359 766l-151 -341h-138l157 330h-182v104h314v-93z" />
    <glyph glyph-name="eight.superior" unicode="&#x2078;" 
d="M375 549q0 -57 -43 -97.5t-126 -40.5q-84 0 -127 38t-43 96q0 83 75 114v1q-62 28 -62 88q0 54 41 89t116 35q72 0 113.5 -34t41.5 -81q0 -73 -64 -97v-1q78 -28 78 -110zM161 738q0 -21 13 -34.5t31 -13.5q20 0 32.5 13.5t12.5 34.5q0 20 -13 32.5t-32 12.5t-31.5 -12.5
t-12.5 -32.5zM154 557q0 -24 14.5 -39.5t38.5 -15.5q23 0 37.5 15.5t14.5 39.5q0 25 -14.5 41t-37.5 16t-38 -16t-15 -41z" />
    <glyph glyph-name="nine.superior" unicode="&#x2079;" 
d="M384 713q0 -75 -70 -167l-93 -121h-129l98 130l-16 1q-69 5 -108 47t-39 110t49.5 113.5t130.5 45.5t129 -43.5t48 -115.5zM262 713q0 28 -16.5 43.5t-39.5 15.5q-24 0 -40.5 -15.5t-16.5 -43.5q0 -27 16 -42.5t41 -15.5t40.5 14.5t15.5 43.5z" />
    <glyph glyph-name="uni207F" unicode="&#x207f;" horiz-adv-x="456" 
d="M52 682h125v-44h3q30 56 99 56q64 0 96.5 -43t32.5 -122v-201h-127v189q0 29 -12 45t-33 16q-25 0 -41 -18t-16 -50v-182h-127v354z" />
    <glyph glyph-name="zero.inferior" unicode="&#x2080;" 
d="M24 43q0 117 54.5 173t132.5 56q72 0 124 -54t52 -173q0 -67 -17.5 -116t-46.5 -73.5t-58 -35t-59 -10.5q-75 0 -128.5 54.5t-53.5 178.5zM260 43q0 64 -15 95.5t-39 31.5q-22 0 -38 -30t-16 -95q0 -131 55 -131q21 0 37 30.5t16 98.5z" />
    <glyph glyph-name="one.inferior" unicode="&#x2081;" 
d="M151 155h-69v104h194v-434h-125v330z" />
    <glyph glyph-name="two.inferior" unicode="&#x2082;" 
d="M51 -96l130 139q55 61 55 93q0 15 -9.5 24.5t-23.5 9.5q-38 0 -38 -49h-121q0 66 40.5 108.5t124.5 42.5q68 0 112.5 -37.5t44.5 -95.5q0 -39 -21 -73.5t-80 -94.5l-42 -42h149v-104h-321v79z" />
    <glyph glyph-name="three.inferior" unicode="&#x2083;" 
d="M44 134q0 64 42 101t116 37q76 0 117 -31.5t41 -83.5q0 -34 -20 -59.5t-49 -32.5v-3q40 -11 61.5 -40t21.5 -69q0 -60 -45.5 -101t-128.5 -41q-165 0 -170 149h120q2 -53 50 -53q20 0 33.5 15t13.5 40q0 21 -14.5 34.5t-42.5 13.5h-32v92h34q41 0 41 39q0 14 -9 24.5
t-25 10.5q-35 0 -35 -42h-120z" />
    <glyph glyph-name="four.inferior" unicode="&#x2084;" 
d="M327 -117v-58h-120v58h-193v87l190 289h123v-288h61v-88h-61zM102 -29h105v117q0 12 2 48h-3q-10 -22 -39 -66z" />
    <glyph glyph-name="five.inferior" unicode="&#x2085;" 
d="M191 113l17 1q73 0 115 -40.5t42 -107.5q0 -64 -45.5 -109.5t-118.5 -45.5q-77 0 -118 39.5t-44 97.5h125q3 -31 34 -31q15 0 25.5 12.5t10.5 31.5q0 51 -69 51q-59 0 -100 -7l24 254h241v-104h-133z" />
    <glyph glyph-name="six.inferior" unicode="&#x2086;" 
d="M27 -30q0 79 69 168l94 121h129l-97 -130l15 -1q67 -4 107 -47.5t40 -110.5t-48 -113t-132 -46q-83 0 -130 44.5t-47 114.5zM149 -30q0 -26 16.5 -42t39.5 -16q24 0 40.5 16t16.5 42q0 27 -16.5 43.5t-40.5 16.5t-40 -17t-16 -43z" />
    <glyph glyph-name="seven.inferior" unicode="&#x2087;" 
d="M359 166l-151 -341h-138l157 330h-182v104h314v-93z" />
    <glyph glyph-name="eight.inferior" unicode="&#x2088;" 
d="M375 -51q0 -57 -43 -97.5t-126 -40.5q-84 0 -127 38t-43 96q0 83 75 114v1q-62 28 -62 88q0 54 41 89t116 35q72 0 113.5 -34t41.5 -81q0 -73 -64 -97v-1q78 -28 78 -110zM161 138q0 -21 13 -34.5t31 -13.5q20 0 32.5 13.5t12.5 34.5q0 20 -13 32.5t-32 12.5t-31.5 -12.5
t-12.5 -32.5zM154 -43q0 -24 14.5 -39.5t38.5 -15.5q23 0 37.5 15.5t14.5 39.5q0 25 -14.5 41t-37.5 16t-38 -16t-15 -41z" />
    <glyph glyph-name="nine.inferior" unicode="&#x2089;" 
d="M384 113q0 -75 -70 -167l-93 -121h-129l98 130l-16 1q-69 5 -108 47t-39 110t49.5 113.5t130.5 45.5t129 -43.5t48 -115.5zM262 113q0 28 -16.5 43.5t-39.5 15.5q-24 0 -40.5 -15.5t-16.5 -43.5q0 -27 16 -42.5t41 -15.5t40.5 14.5t15.5 43.5z" />
    <glyph glyph-name="franc" unicode="&#x20a3;" horiz-adv-x="580" 
d="M274 89v-89h-170v89h-79v120h79v473h429v-153h-259v-106h249v-143h-249v-71h119v-120h-119z" />
    <glyph glyph-name="lira" unicode="&#x20a4;" horiz-adv-x="580" 
d="M298 238v-4q0 -49 -31 -77q19 0 50 -11q43 -16 54 -16q39 0 40 40h159q-2 -104 -51 -148t-137 -44q-41 0 -119 26q-70 24 -104 24q-62 0 -126 -41v147q52 9 77 36.5t25 60.5v7h-99v90h77l-15 56h-62v90h40q-2 22 -2 35q0 81 57.5 138.5t169.5 57.5q101 0 162.5 -50.5
t66.5 -132.5h-169q-1 19 -16 31t-38 12q-64 0 -64 -74q0 -12 1 -17h145v-90h-125l15 -56h110v-90h-91z" />
    <glyph glyph-name="peseta" unicode="&#x20a7;" horiz-adv-x="1333" 
d="M64 682h220q110 0 182.5 -51.5t80.5 -151.5h54v153h169v-153h105v-142h-105v-147q0 -32 11 -43t41 -11q25 0 57 8v-136q-52 -15 -105 -15q-90 0 -131.5 44t-41.5 130v170h-82q-61 -107 -238 -107h-38v-230h-179v682zM368 455q0 37 -22.5 62.5t-70.5 25.5h-32v-174h30
q95 0 95 86zM1153 341q0 48 -42 48q-15 0 -24 -8.5t-9 -19.5q0 -20 18 -32.5t76 -32.5q72 -24 104.5 -61t32.5 -92q0 -70 -52 -115t-146 -45q-97 0 -145 44t-48 121h146q0 -59 49 -59q17 0 28.5 11.5t11.5 27.5q0 20 -19.5 34.5t-67.5 30.5q-70 23 -105 59t-35 93
q0 70 52.5 110t134.5 40q81 0 129.5 -42t53.5 -112h-143z" />
    <glyph glyph-name="Euro" unicode="&#x20ac;" horiz-adv-x="580" 
d="M559 -7q-54 -15 -112 -15q-267 0 -334 226h-98l31 114h50q0 4 -0.5 12.5t-0.5 12.5q0 21 1 31h-69l31 114h60q36 100 117 158t201 58q76 0 132 -17l-39 -139q-45 12 -88 12q-100 0 -142 -72h214l-31 -114h-213q-2 -20 -2 -31q0 -9 2 -25h198l-31 -114h-142
q42 -82 163 -82q51 0 102 14v-143z" />
    <glyph glyph-name="uni2113" unicode="&#x2113;" horiz-adv-x="580" 
d="M492 46q-72 -64 -164 -64q-163 0 -163 178v29l-47 -37l-50 60l97 83v178q0 110 47.5 170.5t129.5 60.5q67 0 99.5 -42.5t32.5 -98.5q0 -65 -30 -118t-92 -119q-5 -4 -11.5 -10.5l-13 -13.5t-8.5 -9v-96q0 -93 57 -93q30 0 62 30zM388 547q0 40 -30 40q-39 0 -39 -77v-102
q11 11 13 14q56 64 56 125z" />
    <glyph glyph-name="uni2116" unicode="&#x2116;" horiz-adv-x="1104" 
d="M210 419q4 -116 4 -122v-297h-150v682h151l170 -272q24 -37 40 -66.5t27.5 -53.5t16.5 -33h3q-3 90 -3 110v315h150v-682h-150l-145 231q-42 67 -74.5 125t-35.5 63h-4zM674 345q0 88 57.5 141t141.5 53q86 0 142.5 -54t56.5 -140q0 -83 -57 -139t-142 -56
q-84 0 -141.5 53.5t-57.5 141.5zM795 344q0 -36 22.5 -59.5t55.5 -23.5q34 0 56 23t22 60q0 36 -22 60t-56 24q-35 0 -56.5 -22t-21.5 -62zM689 0v105h361v-105h-361z" />
    <glyph glyph-name="trademark" unicode="&#x2122;" horiz-adv-x="641" 
d="M25 682h215v-76h-65v-166h-85v166h-65v76zM591 440h-86l-7 97q-1 22 -1 34h-3q-6 -22 -10 -34l-33 -97h-54l-29 90q-8 25 -11 41h-2q0 -14 -2 -37l-7 -94h-88l19 242h117l21 -71q9 -26 10 -35h1q9 30 11 36l21 70h115z" />
    <glyph glyph-name="uni2126" unicode="&#x2126;" horiz-adv-x="766" 
d="M728 397q0 -83 -39.5 -144t-105.5 -88v-12h148v-153h-315v213q60 16 95 60.5t35 108.5q0 78 -43.5 124t-120.5 46q-74 0 -119 -45.5t-45 -124.5q0 -64 35 -108.5t95 -60.5v-213h-313v153h145v12q-61 25 -102 84t-41 148q0 129 94.5 218t252.5 89q161 0 252.5 -86
t91.5 -221z" />
    <glyph glyph-name="estimated" unicode="&#x212e;" horiz-adv-x="660" 
d="M166 298v-205q69 -67 163 -67q138 0 221 136l37 -23q-50 -75 -109.5 -113t-148.5 -38q-130 0 -210 89.5t-80 220.5q0 133 79.5 222t212.5 89q134 0 212.5 -88.5t82.5 -222.5h-460zM495 503q-70 68 -165 68q-98 0 -164 -66v-169h329v167z" />
    <glyph glyph-name="uni2153" unicode="&#x2153;" horiz-adv-x="998" 
d="M151 580h-69v104h194v-434h-125v330zM782 682l-477 -682h-109l477 682h109zM631 309q0 64 42 101t116 37q76 0 117 -31.5t41 -83.5q0 -34 -20 -59.5t-49 -32.5v-3q40 -11 61.5 -40t21.5 -69q0 -60 -45.5 -101t-128.5 -41q-165 0 -170 149h120q2 -53 50 -53q20 0 33.5 15
t13.5 40q0 21 -14.5 34.5t-42.5 13.5h-32v92h34q41 0 41 39q0 14 -9 24.5t-25 10.5q-35 0 -35 -42h-120z" />
    <glyph glyph-name="uni2154" unicode="&#x2154;" horiz-adv-x="1038" 
d="M51 329l130 139q55 61 55 93q0 15 -9.5 24.5t-23.5 9.5q-38 0 -38 -49h-121q0 66 40.5 108.5t124.5 42.5q68 0 112.5 -37.5t44.5 -95.5q0 -39 -21 -73.5t-80 -94.5l-42 -42h149v-104h-321v79zM822 682l-477 -682h-109l477 682h109zM671 309q0 64 42 101t116 37
q76 0 117 -31.5t41 -83.5q0 -34 -20 -59.5t-49 -32.5v-3q40 -11 61.5 -40t21.5 -69q0 -60 -45.5 -101t-128.5 -41q-165 0 -170 149h120q2 -53 50 -53q20 0 33.5 15t13.5 40q0 21 -14.5 34.5t-42.5 13.5h-32v92h34q41 0 41 39q0 14 -9 24.5t-25 10.5q-35 0 -35 -42h-120z" />
    <glyph glyph-name="oneeighth" unicode="&#x215b;" horiz-adv-x="998" 
d="M151 580h-69v104h194v-434h-125v330zM782 682l-477 -682h-109l477 682h109zM962 124q0 -57 -43 -97.5t-126 -40.5q-84 0 -127 38t-43 96q0 83 75 114v1q-62 28 -62 88q0 54 41 89t116 35q72 0 113.5 -34t41.5 -81q0 -73 -64 -97v-1q78 -28 78 -110zM748 313
q0 -21 13 -34.5t31 -13.5q20 0 32.5 13.5t12.5 34.5q0 20 -13 32.5t-32 12.5t-31.5 -12.5t-12.5 -32.5zM741 132q0 -24 14.5 -39.5t38.5 -15.5q23 0 37.5 15.5t14.5 39.5q0 25 -14.5 41t-37.5 16t-38 -16t-15 -41z" />
    <glyph glyph-name="threeeighths" unicode="&#x215c;" horiz-adv-x="1018" 
d="M44 559q0 64 42 101t116 37q76 0 117 -31.5t41 -83.5q0 -34 -20 -59.5t-49 -32.5v-3q40 -11 61.5 -40t21.5 -69q0 -60 -45.5 -101t-128.5 -41q-165 0 -170 149h120q2 -53 50 -53q20 0 33.5 15t13.5 40q0 21 -14.5 34.5t-42.5 13.5h-32v92h34q41 0 41 39q0 14 -9 24.5
t-25 10.5q-35 0 -35 -42h-120zM802 682l-477 -682h-109l477 682h109zM982 124q0 -57 -43 -97.5t-126 -40.5q-84 0 -127 38t-43 96q0 83 75 114v1q-62 28 -62 88q0 54 41 89t116 35q72 0 113.5 -34t41.5 -81q0 -73 -64 -97v-1q78 -28 78 -110zM768 313q0 -21 13 -34.5
t31 -13.5q20 0 32.5 13.5t12.5 34.5q0 20 -13 32.5t-32 12.5t-31.5 -12.5t-12.5 -32.5zM761 132q0 -24 14.5 -39.5t38.5 -15.5q23 0 37.5 15.5t14.5 39.5q0 25 -14.5 41t-37.5 16t-38 -16t-15 -41z" />
    <glyph glyph-name="fiveeighths" unicode="&#x215d;" horiz-adv-x="1018" 
d="M191 538l17 1q73 0 115 -40.5t42 -107.5q0 -65 -45.5 -110t-118.5 -45q-77 0 -118 39.5t-44 97.5h125q3 -31 34 -31q15 0 25.5 12.5t10.5 31.5q0 51 -69 51q-59 0 -100 -7l24 254h241v-104h-133zM802 682l-477 -682h-109l477 682h109zM982 124q0 -57 -43 -97.5
t-126 -40.5q-84 0 -127 38t-43 96q0 83 75 114v1q-62 28 -62 88q0 54 41 89t116 35q72 0 113.5 -34t41.5 -81q0 -73 -64 -97v-1q78 -28 78 -110zM768 313q0 -21 13 -34.5t31 -13.5q20 0 32.5 13.5t12.5 34.5q0 20 -13 32.5t-32 12.5t-31.5 -12.5t-12.5 -32.5zM761 132
q0 -24 14.5 -39.5t38.5 -15.5q23 0 37.5 15.5t14.5 39.5q0 25 -14.5 41t-37.5 16t-38 -16t-15 -41z" />
    <glyph glyph-name="seveneighths" unicode="&#x215e;" horiz-adv-x="998" 
d="M359 591l-151 -341h-138l157 330h-182v104h314v-93zM772 682l-477 -682h-109l477 682h109zM962 124q0 -57 -43 -97.5t-126 -40.5q-84 0 -127 38t-43 96q0 83 75 114v1q-62 28 -62 88q0 54 41 89t116 35q72 0 113.5 -34t41.5 -81q0 -73 -64 -97v-1q78 -28 78 -110z
M748 313q0 -21 13 -34.5t31 -13.5q20 0 32.5 13.5t12.5 34.5q0 20 -13 32.5t-32 12.5t-31.5 -12.5t-12.5 -32.5zM741 132q0 -24 14.5 -39.5t38.5 -15.5q23 0 37.5 15.5t14.5 39.5q0 25 -14.5 41t-37.5 16t-38 -16t-15 -41z" />
    <glyph glyph-name="partialdiff" unicode="&#x2202;" horiz-adv-x="659" 
d="M611 453q0 -103 -25 -186q-38 -130 -117 -204.5t-193 -74.5q-100 0 -162.5 59.5t-62.5 151.5q0 138 80.5 214.5t182.5 76.5q49 0 87 -18t57 -47h2q2 14 2 43q0 69 -34.5 110.5t-99.5 41.5q-57 0 -108 -31l-32 98q63 46 169 46q123 0 188.5 -77t65.5 -203zM440 320
q-21 67 -90 67q-60 0 -102.5 -57.5t-42.5 -135.5q0 -41 21.5 -66t58.5 -25q56 0 97 62t58 155z" />
    <glyph glyph-name="uni2206" unicode="&#x2206;" horiz-adv-x="681" 
d="M265 682h169l240 -682h-667zM226 138h225l-86 264q-11 32 -23 83h-5q-16 -60 -24 -84z" />
    <glyph glyph-name="product" unicode="&#x220f;" horiz-adv-x="757" 
d="M515 -235v764h-273v-764h-174v917h621v-917h-174z" />
    <glyph glyph-name="summation" unicode="&#x2211;" horiz-adv-x="662" 
d="M21 -235v133l259 332l-236 314v138h555v-153h-330l220 -297l-244 -314h380v-153h-604z" />
    <glyph glyph-name="minus" unicode="&#x2212;" horiz-adv-x="672" 
d="M77 204v119h518v-119h-518z" />
    <glyph glyph-name="uni2215" unicode="&#x2215;" horiz-adv-x="196" 
d="M391 682l-477 -682h-109l477 682h109z" />
    <glyph glyph-name="uni2219" unicode="&#x2219;" horiz-adv-x="304" 
d="M55 438h194v-178h-194v178z" />
    <glyph glyph-name="radical" unicode="&#x221a;" horiz-adv-x="625" 
d="M620 720l-235 -732h-103l-142 304l-63 -38l-40 72l163 101l133 -293l186 586h101z" />
    <glyph glyph-name="infinity" unicode="&#x221e;" horiz-adv-x="910" 
d="M852 295q0 -85 -55 -139t-141 -54q-60 0 -113 29.5t-89 81.5h-2q-36 -48 -89.5 -79.5t-113.5 -31.5q-88 0 -143.5 51.5t-55.5 136.5q0 86 56 138t141 52q124 0 204 -112h2q33 46 84.5 79t115.5 33q88 0 143.5 -51.5t55.5 -133.5zM393 292q-61 88 -137 88q-42 0 -67 -25.5
t-25 -63.5q0 -39 26.5 -64t68.5 -25q74 0 134 90zM739 292q0 37 -24 62t-70 25q-76 0 -135 -88q58 -88 137 -88q44 0 68 26t24 63z" />
    <glyph glyph-name="integral" unicode="&#x222b;" horiz-adv-x="512" 
d="M455 577q-26 11 -54 11q-33 0 -46 -16.5t-13 -52.5v-519q0 -115 -49 -172.5t-137 -57.5q-74 0 -128 20l30 145q36 -12 58 -12q55 0 55 64v532q0 111 46.5 166.5t144.5 55.5q58 0 122 -20z" />
    <glyph glyph-name="approxequal" unicode="&#x2248;" horiz-adv-x="672" 
d="M623 389q-72 -98 -175 -98q-62 0 -122 33q-60 34 -99 34q-51 0 -91 -56l-87 78q74 98 174 98q61 0 120 -32q65 -35 102 -35q51 0 91 57zM623 148q-72 -97 -175 -97q-64 0 -122 32q-64 35 -99 35q-50 0 -91 -56l-87 78q74 98 174 98q57 0 120 -33q64 -34 102 -34
q52 0 91 57z" />
    <glyph glyph-name="notequal" unicode="&#x2260;" horiz-adv-x="672" 
d="M546 544l-59 -108h108v-119h-162l-56 -103h218v-120h-273l-58 -108h-136l58 108h-109v120h164l56 103h-220v119h274l59 108h136z" />
    <glyph glyph-name="lessequal" unicode="&#x2264;" horiz-adv-x="672" 
d="M77 338v104l518 198v-130l-325 -119v-2l325 -118v-131zM77 0v119h518v-119h-518z" />
    <glyph glyph-name="greaterequal" unicode="&#x2265;" horiz-adv-x="672" 
d="M77 140v131l325 118v2l-325 119v130l518 -198v-104zM77 0v119h518v-119h-518z" />
    <glyph glyph-name="lozenge" unicode="&#x25ca;" horiz-adv-x="593" 
d="M551 341l-239 -341h-44l-238 340l238 342h44zM429 341l-139 203l-138 -203l138 -203z" />
    <glyph glyph-name="f_i" unicode="&#xf001;" horiz-adv-x="638" 
d="M8 479h67v66q0 89 47 135t137 46q56 0 97 -12v-138q-30 8 -54 8q-32 0 -45 -14.5t-13 -45.5v-45h100v-142h-100v-337h-169v337h-67v142zM411 721h169v-151h-169v151zM411 479h169v-479h-169v479z" />
    <glyph glyph-name="f_l" unicode="&#xf002;" horiz-adv-x="638" 
d="M8 479h67v66q0 89 47 135t137 46q56 0 97 -12v-138q-30 8 -54 8q-32 0 -45 -14.5t-13 -45.5v-45h100v-142h-100v-337h-169v337h-67v142zM411 720h169v-720h-169v720z" />
    <glyph glyph-name="uniF8FF" unicode="&#xf8ff;" horiz-adv-x="500" 
d="M12 665h475v-665h-475v665zM250 375l161 243h-323zM60 91l40 61l80 120l41 61l-161 242v-484zM278 333l162 -243v485zM250 290l-162 -242h323z" />
    <glyph glyph-name="zero.denominator" 
d="M24 218q0 117 54.5 173t132.5 56q72 0 124 -54t52 -173q0 -67 -17.5 -116t-46.5 -73.5t-58 -35t-59 -10.5q-75 0 -128.5 54.5t-53.5 178.5zM260 218q0 64 -15 95.5t-39 31.5q-22 0 -38 -30t-16 -95q0 -131 55 -131q21 0 37 30.5t16 98.5z" />
    <glyph glyph-name="one.denominator" 
d="M151 330h-69v104h194v-434h-125v330z" />
    <glyph glyph-name="two.denominator" 
d="M51 79l130 139q55 61 55 93q0 15 -9.5 24.5t-23.5 9.5q-38 0 -38 -49h-121q0 66 40.5 108.5t124.5 42.5q68 0 112.5 -37.5t44.5 -95.5q0 -39 -21 -73.5t-80 -94.5l-42 -42h149v-104h-321v79z" />
    <glyph glyph-name="three.denominator" 
d="M44 309q0 64 42 101t116 37q76 0 117 -31.5t41 -83.5q0 -34 -20 -59.5t-49 -32.5v-3q40 -11 61.5 -40t21.5 -69q0 -60 -45.5 -101t-128.5 -41q-165 0 -170 149h120q2 -53 50 -53q20 0 33.5 15t13.5 40q0 21 -14.5 34.5t-42.5 13.5h-32v92h34q41 0 41 39q0 14 -9 24.5
t-25 10.5q-35 0 -35 -42h-120z" />
    <glyph glyph-name="four.denominator" 
d="M327 58v-58h-120v58h-193v87l190 289h123v-288h61v-88h-61zM102 146h105v117q0 12 2 48h-3q-10 -23 -39 -66z" />
    <glyph glyph-name="five.denominator" 
d="M191 288l17 1q73 0 115 -40.5t42 -107.5q0 -65 -45.5 -110t-118.5 -45q-77 0 -118 39.5t-44 97.5h125q3 -31 34 -31q15 0 25.5 12.5t10.5 31.5q0 51 -69 51q-59 0 -100 -7l24 254h241v-104h-133z" />
    <glyph glyph-name="six.denominator" 
d="M27 145q0 79 69 168l94 121h129l-97 -130l15 -1q67 -4 107 -47.5t40 -110.5t-48 -113t-132 -46q-83 0 -130 44.5t-47 114.5zM149 145q0 -26 16.5 -42t39.5 -16q24 0 40.5 16t16.5 42q0 27 -16.5 43.5t-40.5 16.5t-40 -17t-16 -43z" />
    <glyph glyph-name="seven.denominator" 
d="M359 341l-151 -341h-138l157 330h-182v104h314v-93z" />
    <glyph glyph-name="eight.denominator" 
d="M375 124q0 -57 -43 -97.5t-126 -40.5q-84 0 -127 38t-43 96q0 83 75 114v1q-62 28 -62 88q0 54 41 89t116 35q72 0 113.5 -34t41.5 -81q0 -73 -64 -97v-1q78 -28 78 -110zM161 313q0 -21 13 -34.5t31 -13.5q20 0 32.5 13.5t12.5 34.5q0 20 -13 32.5t-32 12.5t-31.5 -12.5
t-12.5 -32.5zM154 132q0 -24 14.5 -39.5t38.5 -15.5q23 0 37.5 15.5t14.5 39.5q0 25 -14.5 41t-37.5 16t-38 -16t-15 -41z" />
    <glyph glyph-name="nine.denominator" 
d="M384 288q0 -75 -70 -167l-93 -121h-129l98 130l-16 1q-69 5 -108 47t-39 110t49.5 113.5t130.5 45.5t129 -43.5t48 -115.5zM262 288q0 28 -16.5 43.5t-39.5 15.5q-24 0 -40.5 -15.5t-16.5 -43.5q0 -27 16 -42.5t41 -15.5t40.5 14.5t15.5 43.5z" />
    <glyph glyph-name="zero.numerator" 
d="M24 468q0 117 54.5 173t132.5 56q72 0 124 -54t52 -173q0 -67 -17.5 -116t-46.5 -73.5t-58 -35t-59 -10.5q-75 0 -128.5 54.5t-53.5 178.5zM260 468q0 64 -15 95.5t-39 31.5q-22 0 -38 -30t-16 -95q0 -131 55 -131q21 0 37 30.5t16 98.5z" />
    <glyph glyph-name="one.numerator" 
d="M151 580h-69v104h194v-434h-125v330z" />
    <glyph glyph-name="two.numerator" 
d="M51 329l130 139q55 61 55 93q0 15 -9.5 24.5t-23.5 9.5q-38 0 -38 -49h-121q0 66 40.5 108.5t124.5 42.5q68 0 112.5 -37.5t44.5 -95.5q0 -39 -21 -73.5t-80 -94.5l-42 -42h149v-104h-321v79z" />
    <glyph glyph-name="three.numerator" 
d="M44 559q0 64 42 101t116 37q76 0 117 -31.5t41 -83.5q0 -34 -20 -59.5t-49 -32.5v-3q40 -11 61.5 -40t21.5 -69q0 -60 -45.5 -101t-128.5 -41q-165 0 -170 149h120q2 -53 50 -53q20 0 33.5 15t13.5 40q0 21 -14.5 34.5t-42.5 13.5h-32v92h34q41 0 41 39q0 14 -9 24.5
t-25 10.5q-35 0 -35 -42h-120z" />
    <glyph glyph-name="four.numerator" 
d="M327 308v-58h-120v58h-193v87l190 289h123v-288h61v-88h-61zM102 396h105v117q0 12 2 48h-3q-10 -23 -39 -66z" />
    <glyph glyph-name="five.numerator" 
d="M191 538l17 1q73 0 115 -40.5t42 -107.5q0 -65 -45.5 -110t-118.5 -45q-77 0 -118 39.5t-44 97.5h125q3 -31 34 -31q15 0 25.5 12.5t10.5 31.5q0 51 -69 51q-59 0 -100 -7l24 254h241v-104h-133z" />
    <glyph glyph-name="six.numerator" 
d="M27 395q0 79 69 168l94 121h129l-97 -130l15 -1q67 -4 107 -47.5t40 -110.5t-48 -113t-132 -46q-83 0 -130 44.5t-47 114.5zM149 395q0 -26 16.5 -42t39.5 -16q24 0 40.5 16t16.5 42q0 27 -16.5 43.5t-40.5 16.5t-40 -17t-16 -43z" />
    <glyph glyph-name="seven.numerator" 
d="M359 591l-151 -341h-138l157 330h-182v104h314v-93z" />
    <glyph glyph-name="eight.numerator" 
d="M375 374q0 -57 -43 -97.5t-126 -40.5q-84 0 -127 38t-43 96q0 83 75 114v1q-62 28 -62 88q0 54 41 89t116 35q72 0 113.5 -34t41.5 -81q0 -73 -64 -97v-1q78 -28 78 -110zM161 563q0 -21 13 -34.5t31 -13.5q20 0 32.5 13.5t12.5 34.5q0 20 -13 32.5t-32 12.5t-31.5 -12.5
t-12.5 -32.5zM154 382q0 -24 14.5 -39.5t38.5 -15.5q23 0 37.5 15.5t14.5 39.5q0 25 -14.5 41t-37.5 16t-38 -16t-15 -41z" />
    <glyph glyph-name="nine.numerator" 
d="M384 538q0 -75 -70 -167l-93 -121h-129l98 130l-16 1q-69 5 -108 47t-39 110t49.5 113.5t130.5 45.5t129 -43.5t48 -115.5zM262 538q0 28 -16.5 43.5t-39.5 15.5q-24 0 -40.5 -15.5t-16.5 -43.5q0 -27 16 -42.5t41 -15.5t40.5 14.5t15.5 43.5z" />
    <glyph glyph-name="acute.cap" horiz-adv-x="318" 
d="M288 804l-204 -74l-42 100l198 92z" />
    <glyph glyph-name="breve.cap" horiz-adv-x="318" 
d="M333 899q-4 -71 -53 -111.5t-121 -40.5q-79 0 -124.5 40.5t-49.5 111.5h104q2 -22 21 -34.5t49 -12.5q31 0 50 12.5t20 34.5h104z" />
    <glyph glyph-name="caron.alt" horiz-adv-x="425" 
d="M105 720h130v-69q0 -77 -41 -133h-71q29 45 29 98h-47v104z" />
    <glyph glyph-name="caron.cap" horiz-adv-x="318" 
d="M-22 834l40 84l141 -61l142 61l39 -84l-181 -106z" />
    <glyph glyph-name="circumflex.cap" horiz-adv-x="318" 
d="M340 812l-40 -84l-141 61l-142 -61l-39 84l181 106z" />
    <glyph glyph-name="uni0326.alt" horiz-adv-x="0" 
d="M-85 551h-130v69q0 77 41 133h71q-29 -45 -29 -98h47v-104z" />
    <glyph glyph-name="dieresis.cap" horiz-adv-x="318" 
d="M0 894h128v-126h-128v126zM190 894h128v-126h-128v126z" />
    <glyph glyph-name="dotaccent.cap" horiz-adv-x="318" 
d="M92 898h134v-129h-134v129z" />
    <glyph glyph-name="grave.cap" horiz-adv-x="318" 
d="M78 922l198 -92l-42 -100l-204 74z" />
    <glyph glyph-name="hungarumlaut.cap" horiz-adv-x="318" 
d="M216 836l-158 -112l-66 82l145 123zM430 835l-159 -111l-66 82l146 123z" />
    <glyph glyph-name="macron.cap" horiz-adv-x="318" 
d="M5 766v105h308v-105h-308z" />
    <glyph glyph-name="ring.cap" horiz-adv-x="318" 
d="M27 848q0 56 38.5 95t95.5 39q55 0 94.5 -39t39.5 -95t-39.5 -95t-94.5 -39q-57 0 -95.5 39t-38.5 95zM112 848q0 -20 14.5 -34.5t34.5 -14.5t34.5 14.5t14.5 34.5t-14.5 34.5t-34.5 14.5t-34.5 -14.5t-14.5 -34.5z" />
    <glyph glyph-name="tilde.cap" horiz-adv-x="318" 
d="M-25 764q3 70 33.5 110t82.5 40q37 0 74 -25t59 -25q28 0 29 40h90q-6 -150 -118 -150q-42 0 -79 25t-53 25q-11 0 -19 -10.5t-9 -29.5h-90z" />
    <glyph glyph-name="dollar.oldstyle" horiz-adv-x="517" 
d="M326 630v-76q61 -14 95.5 -53.5t39.5 -98.5h-142q0 53 -62 53q-23 0 -35.5 -12.5t-12.5 -28.5q0 -23 19.5 -37t84.5 -36q162 -54 162 -171q0 -61 -38.5 -105t-110.5 -59v-81h-130v79q-150 25 -150 167h144q0 -65 71 -65q57 0 57 53q0 24 -21 39.5t-75 33.5
q-167 55 -167 170q0 61 38 100.5t103 52.5v75h130z" />
    <glyph glyph-name="zero.oldstyle" horiz-adv-x="637" 
d="M30 257q0 120 82 198.5t206 78.5q128 0 208.5 -79t80.5 -198q0 -118 -81.5 -199t-207.5 -81q-124 0 -206 80.5t-82 199.5zM205 255q0 -57 31.5 -93t82.5 -36q54 0 83.5 36t29.5 93q0 56 -29.5 93t-83.5 37t-84 -36t-30 -94z" />
    <glyph glyph-name="one.oldstyle" horiz-adv-x="413" 
d="M142 362h-106v150h277v-512h-171v362z" />
    <glyph glyph-name="two.oldstyle" horiz-adv-x="602" 
d="M55 121l210 125q45 27 62 45.5t17 42.5q0 23 -13.5 37t-35.5 14q-56 0 -56 -60h-172q0 93 57.5 151t174.5 58q102 0 162 -51t60 -125q0 -55 -25 -95t-81 -73l-84 -50h215v-140h-491v121z" />
    <glyph glyph-name="three.oldstyle" horiz-adv-x="573" 
d="M61 324q0 100 61 154t167 54q110 0 170 -51t60 -135q0 -54 -31 -91.5t-77 -50.5v-3q129 -38 129 -174q0 -97 -72.5 -161t-181.5 -64q-118 0 -181.5 58.5t-67.5 162.5h164q1 -38 23 -60.5t60 -22.5q34 0 58 23.5t24 67.5q0 43 -28 68.5t-77 25.5h-39v131h43
q37 0 58.5 19.5t21.5 54.5q0 28 -16 45.5t-44 17.5q-29 0 -44 -20t-15 -49h-165z" />
    <glyph glyph-name="four.oldstyle" horiz-adv-x="618" 
d="M493 4v-178h-165v178h-293v135l295 373h163v-368h88v-140h-88zM196 144h132v109q0 43 3 81h-3q-16 -38 -59 -93z" />
    <glyph glyph-name="five.oldstyle" horiz-adv-x="525" 
d="M223 131q-80 0 -168 -25l39 405h372v-149h-221l-11 -96q10 3 35 3q115 0 180 -60.5t65 -161.5q0 -103 -71.5 -173t-175.5 -70q-112 0 -173.5 60t-65.5 164h164q1 -38 20.5 -62t52.5 -24q30 0 52.5 26t22.5 69t-32 68.5t-85 25.5z" />
    <glyph glyph-name="six.oldstyle" horiz-adv-x="612" 
d="M40 229q0 64 27 124t79 136l132 193h190l-140 -204l20 -1q84 0 154 -67.5t70 -180.5q0 -106 -74 -178.5t-194 -72.5t-192 69.5t-72 181.5zM214 228q0 -46 26.5 -73.5t64.5 -27.5q40 0 66.5 27.5t26.5 73.5q0 45 -26.5 74t-66.5 29q-39 0 -65 -28t-26 -75z" />
    <glyph glyph-name="seven.oldstyle" horiz-adv-x="525" 
d="M480 372l-237 -546h-190l250 536h-277v150h454v-140z" />
    <glyph glyph-name="eight.oldstyle" horiz-adv-x="610" 
d="M66 516q0 85 64.5 136.5t174.5 51.5t174.5 -51.5t64.5 -136.5q0 -42 -23 -78t-58 -52v-2q50 -20 81 -68t31 -107q0 -109 -70.5 -170.5t-199.5 -61.5t-199.5 61.5t-70.5 170.5q0 58 30.5 105.5t80.5 69.5v2q-33 17 -56.5 52.5t-23.5 77.5zM235 501q0 -31 19 -48.5
t51 -17.5t51 18.5t19 48.5t-20 48t-50 18q-29 0 -49.5 -18.5t-20.5 -48.5zM211 217q0 -50 28.5 -76t65.5 -26t65.5 26t28.5 76q0 42 -27 69.5t-67 27.5t-67 -28.5t-27 -68.5z" />
    <glyph glyph-name="nine.oldstyle" horiz-adv-x="612" 
d="M572 283q0 -64 -27 -124t-79 -136l-133 -197h-190l141 208l-25 1q-99 5 -159 73t-60 175q0 106 74 178.5t194 72.5t192 -69.5t72 -181.5zM398 284q0 46 -26.5 73.5t-64.5 27.5q-40 0 -66.5 -27.5t-26.5 -73.5q0 -45 26.5 -74t66.5 -29q39 0 65 28t26 75z" />
    <glyph glyph-name="cent.oldstyle" horiz-adv-x="538" 
d="M212 -66v97q-77 18 -124.5 77.5t-47.5 148.5q0 82 45.5 143t126.5 79v82h120v-81q68 -14 110.5 -61.5t53.5 -116.5h-152q-10 56 -71 56q-74 0 -74 -102q0 -103 74 -103q61 0 71 62h152q-14 -70 -56 -119t-108 -65v-97h-120z" />
    <glyph glyph-name="zero.fitted" horiz-adv-x="594" 
d="M35 344q0 94 24 166.5t64 113t86 60.5t96 20q46 0 88.5 -18t81 -57t61.5 -111.5t23 -170.5q0 -86 -18 -153.5t-45 -107t-63.5 -65.5t-69 -35t-65.5 -9q-48 0 -91.5 18t-83.5 57.5t-64 114.5t-24 177zM385 344q0 103 -24 157t-63 54q-36 0 -62 -51.5t-26 -156.5
q0 -112 25.5 -166.5t64.5 -54.5q34 0 59.5 53.5t25.5 164.5z" />
    <glyph glyph-name="one.fitted" horiz-adv-x="445" 
d="M161 532h-106v150h277v-682h-171v532z" />
    <glyph glyph-name="two.fitted" horiz-adv-x="563" 
d="M54 121l195 220q29 33 45.5 53.5t32.5 51t16 53.5q0 25 -16.5 40.5t-42.5 15.5q-34 0 -50 -25t-16 -63h-172q0 105 58 171t184 66q105 0 168.5 -55.5t63.5 -145.5q0 -62 -35.5 -121t-124.5 -150l-81 -82h251v-150h-476v121z" />
    <glyph glyph-name="three.fitted" horiz-adv-x="580" 
d="M51 486q0 101 63 159.5t170 58.5q112 0 173.5 -51t61.5 -132q0 -52 -30.5 -92.5t-70.5 -52.5v-3q59 -19 90.5 -64t31.5 -108q0 -93 -67.5 -157.5t-190.5 -64.5q-122 0 -185 60.5t-67 170.5h164q1 -43 23.5 -68t63.5 -25q40 0 62.5 25t22.5 71q0 41 -28.5 62.5t-77.5 21.5
h-43v131h52q37 0 56.5 20t19.5 54q0 26 -17.5 44.5t-47.5 18.5q-32 0 -48 -22t-16 -57h-165z" />
    <glyph glyph-name="four.fitted" horiz-adv-x="601" 
d="M483 104v-104h-165v104h-282v135l279 443h168v-438h88v-140h-88zM180 244h138v144q0 59 1 87h-3q-19 -44 -53 -99z" />
    <glyph glyph-name="five.fitted" horiz-adv-x="559" 
d="M253 445l9 1h13q111 0 176.5 -62.5t65.5 -167.5q0 -99 -68 -168.5t-176 -69.5q-113 0 -174 61.5t-65 152.5h178q5 -61 62 -61q26 0 44 21.5t18 56.5q0 41 -29.5 65.5t-86.5 24.5q-69 0 -147 -13l37 396h360v-150h-208z" />
    <glyph glyph-name="six.fitted" horiz-adv-x="592" 
d="M30 229q0 64 27 124t79 136l132 193h190l-141 -205h16q96 0 162.5 -71t66.5 -177t-74 -178.5t-194 -72.5t-192 69.5t-72 181.5zM204 228q0 -46 26.5 -73.5t64.5 -27.5q40 0 66.5 27.5t26.5 73.5q0 45 -26.5 74t-66.5 29q-39 0 -65 -28t-26 -75z" />
    <glyph glyph-name="seven.fitted" horiz-adv-x="518" 
d="M488 542l-236 -542h-190l249 532h-287v150h464v-140z" />
    <glyph glyph-name="eight.fitted" horiz-adv-x="588" 
d="M553 195q0 -88 -67.5 -152.5t-190.5 -64.5q-125 0 -192.5 60.5t-67.5 150.5q0 63 31 109.5t85 69.5v2q-96 43 -96 140q0 83 64 138.5t176 55.5q107 0 172 -53.5t65 -128.5q0 -56 -27 -96t-72 -56v-2q120 -44 120 -173zM222 493q0 -34 21 -56t50 -22q32 0 52 22.5t20 55.5
q0 34 -20.5 54.5t-51.5 20.5q-30 0 -50.5 -20.5t-20.5 -54.5zM211 206q0 -39 24 -64.5t62 -25.5q37 0 60.5 25t23.5 65q0 41 -23.5 66.5t-60.5 25.5t-61.5 -25.5t-24.5 -66.5z" />
    <glyph glyph-name="nine.fitted" horiz-adv-x="592" 
d="M562 453q0 -64 -27 -124t-79 -136l-132 -193h-190l140 204l-25 1q-99 5 -159 73t-60 175q0 106 74 178.5t194 72.5t192 -69.5t72 -181.5zM388 454q0 46 -26.5 73.5t-64.5 27.5q-40 0 -66.5 -27.5t-26.5 -73.5q0 -45 26.5 -74t66.5 -29q39 0 65 28t26 75z" />
    <glyph glyph-name="percent.oldstyle" horiz-adv-x="906" 
d="M30 416q0 75 51.5 122.5t126.5 47.5q74 0 125.5 -47.5t51.5 -122.5q0 -76 -51.5 -123.5t-125.5 -47.5q-75 0 -126.5 47.5t-51.5 123.5zM711 566l-407 -566h-108l407 566h108zM145 417q0 -35 17.5 -54t45.5 -19t45.5 19t17.5 54t-18 54t-45 19t-45 -19t-18 -54zM521 151
q0 75 51.5 122.5t126.5 47.5q74 0 125.5 -47.5t51.5 -122.5q0 -76 -51.5 -123.5t-125.5 -47.5q-75 0 -126.5 47.5t-51.5 123.5zM636 152q0 -35 17.5 -54t45.5 -19t45.5 19t17.5 54t-18 54t-45 19t-45 -19t-18 -54z" />
    <glyph glyph-name="perthousand.oldstyle" horiz-adv-x="1311" 
d="M30 416q0 75 51.5 122.5t126.5 47.5q74 0 125.5 -47.5t51.5 -122.5q0 -76 -51.5 -123.5t-125.5 -47.5q-75 0 -126.5 47.5t-51.5 123.5zM711 566l-407 -566h-108l407 566h108zM145 417q0 -35 17.5 -54t45.5 -19t45.5 19t17.5 54t-18 54t-45 19t-45 -19t-18 -54zM521 151
q0 75 51.5 122.5t126.5 47.5q74 0 125.5 -47.5t51.5 -122.5q0 -76 -51.5 -123.5t-125.5 -47.5q-75 0 -126.5 47.5t-51.5 123.5zM926 151q0 75 51.5 122.5t126.5 47.5q74 0 125.5 -47.5t51.5 -122.5q0 -76 -51.5 -123.5t-125.5 -47.5q-75 0 -126.5 47.5t-51.5 123.5zM636 152
q0 -35 17.5 -54t45.5 -19t45.5 19t17.5 54t-18 54t-45 19t-45 -19t-18 -54zM1041 152q0 -35 17.5 -54t45.5 -19t45.5 19t17.5 54t-18 54t-45 19t-45 -19t-18 -54z" />
    <glyph glyph-name="zero.taboldstyle" horiz-adv-x="580" 
d="M28 257q0 123 74 200t188 77q117 0 189.5 -77.5t72.5 -199.5q0 -120 -73.5 -200t-188.5 -80q-114 0 -188 79t-74 201zM203 255q0 -57 24 -93t63 -36q41 0 64 36t23 93q0 56 -22.5 93t-64.5 37q-41 0 -64 -36t-23 -94z" />
    <glyph glyph-name="one.taboldstyle" horiz-adv-x="580" 
d="M217 362h-107v150h278v-512h-171v362z" />
    <glyph glyph-name="two.taboldstyle" horiz-adv-x="580" 
d="M60 121l197 125q42 27 58 46t16 42t-11 37t-30 14q-46 0 -46 -54h-172q0 91 55 147t168 56q98 0 155.5 -49.5t57.5 -123.5q0 -109 -106 -171l-84 -50h215v-140h-473v121z" />
    <glyph glyph-name="three.taboldstyle" horiz-adv-x="580" 
d="M64 324q0 100 61 154t167 54q110 0 170 -51t60 -135q0 -54 -31 -91.5t-77 -50.5v-3q129 -38 129 -174q0 -97 -72.5 -161t-181.5 -64q-118 0 -181.5 58.5t-67.5 162.5h164q1 -38 23 -60.5t60 -22.5q34 0 58 23.5t24 67.5q0 43 -28 68.5t-77 25.5h-39v131h43
q37 0 58.5 19.5t21.5 54.5q0 28 -16 45.5t-44 17.5q-29 0 -44 -20t-15 -49h-165z" />
    <glyph glyph-name="four.taboldstyle" horiz-adv-x="580" 
d="M490 4v-178h-165v178h-293v135l301 373h157v-368h73v-140h-73zM193 144h132v109q0 43 3 81h-3q-25 -59 -58 -99z" />
    <glyph glyph-name="five.taboldstyle" horiz-adv-x="580" 
d="M237 131q-80 0 -168 -25l39 405h372v-149h-221l-11 -96q10 3 35 3q115 0 180 -60.5t65 -161.5q0 -103 -71.5 -173t-175.5 -70q-112 0 -173.5 60t-65.5 164h164q1 -38 20.5 -62t52.5 -24q30 0 52.5 26t22.5 69t-32 68.5t-85 25.5z" />
    <glyph glyph-name="six.taboldstyle" horiz-adv-x="580" 
d="M24 229q0 64 27 124t79 136l132 193h190l-141 -205h15q97 0 163.5 -69.5t66.5 -178.5q0 -106 -74 -178.5t-194 -72.5t-192 69.5t-72 181.5zM198 228q0 -46 26.5 -73.5t64.5 -27.5q40 0 66.5 27.5t26.5 73.5q0 45 -26.5 74t-66.5 29q-39 0 -65 -28t-26 -75z" />
    <glyph glyph-name="seven.taboldstyle" horiz-adv-x="580" 
d="M505 372l-236 -545h-190l249 535h-277v150h454v-140z" />
    <glyph glyph-name="eight.taboldstyle" horiz-adv-x="580" 
d="M51 516q0 85 64.5 136.5t174.5 51.5t174.5 -51.5t64.5 -136.5q0 -42 -23 -78t-58 -52v-2q50 -20 81 -68t31 -107q0 -109 -70.5 -170.5t-199.5 -61.5t-199.5 61.5t-70.5 170.5q0 58 30.5 105.5t80.5 69.5v2q-33 17 -56.5 52.5t-23.5 77.5zM220 501q0 -31 19 -48.5
t51 -17.5t51 18.5t19 48.5t-20 48t-50 18q-29 0 -49.5 -18.5t-20.5 -48.5zM196 217q0 -50 28.5 -76t65.5 -26t65.5 26t28.5 76q0 42 -27 69.5t-67 27.5t-67 -28.5t-27 -68.5z" />
    <glyph glyph-name="nine.taboldstyle" horiz-adv-x="580" 
d="M556 283q0 -64 -27 -124t-79 -136l-133 -197h-190l141 208l-25 1q-99 5 -159 73t-60 175q0 106 74 178.5t194 72.5t192 -69.5t72 -181.5zM382 284q0 46 -26.5 73.5t-64.5 27.5q-40 0 -66.5 -27.5t-26.5 -73.5q0 -45 26.5 -74t66.5 -29q39 0 65 28t26 75z" />
    <glyph glyph-name="parenleft.cap" horiz-adv-x="385" 
d="M209 -161q-72 99 -110.5 226.5t-38.5 251.5q0 125 38 252.5t111 227.5h159q-144 -189 -144 -480q0 -129 35 -255.5t109 -222.5h-159z" />
    <glyph glyph-name="parenright.cap" horiz-adv-x="385" 
d="M17 -161q74 96 109 222.5t35 255.5q0 291 -144 480h159q73 -100 111 -227.5t38 -252.5q0 -124 -38.5 -251.5t-110.5 -226.5h-159z" />
    <glyph glyph-name="bracketleft.cap" horiz-adv-x="385" 
d="M335 652h-105v-668h105v-130h-255v928h255v-130z" />
    <glyph glyph-name="bracketright.cap" horiz-adv-x="385" 
d="M50 782h255v-928h-255v130h105v668h-105v130z" />
    <glyph glyph-name="braceleft.cap" horiz-adv-x="385" 
d="M345 667q-43 0 -62.5 -18t-19.5 -55v-147q0 -47 -23.5 -81.5t-65.5 -47.5v-2q39 -9 64 -42.5t25 -84.5v-147q0 -37 19.5 -55t62.5 -18v-130q-103 0 -167.5 46t-64.5 121v161q0 36 -22 60.5t-61 24.5v130q39 0 61 24.5t22 59.5v162q0 169 232 169v-130z" />
    <glyph glyph-name="braceright.cap" horiz-adv-x="385" 
d="M40 797q232 0 232 -169v-162q0 -35 22 -59.5t61 -24.5v-130q-39 0 -61 -24.5t-22 -60.5v-161q0 -75 -64.5 -121t-167.5 -46v130q43 0 62.5 18t19.5 55v147q0 51 25 84.5t64 42.5v2q-42 13 -65.5 47.5t-23.5 81.5v147q0 37 -19.5 55t-62.5 18v130z" />
    <glyph glyph-name="exclamdown.cap" horiz-adv-x="304" 
d="M239 529h-174v153h174v-153zM60 0l18 457h148l18 -457h-184z" />
    <glyph glyph-name="questiondown.cap" horiz-adv-x="486" 
d="M337 529h-174v153h174v-153zM135 353q41 34 41 104h148q0 -59 -9 -93t-37 -64q-32 -34 -43.5 -47.5t-20.5 -33.5t-9 -43q0 -20 14.5 -34.5t32.5 -14.5q24 0 38.5 18t14.5 52h161q-2 -104 -58.5 -161.5t-160.5 -57.5q-96 0 -156.5 52.5t-60.5 137.5q0 51 24 94.5t81 90.5z
" />
    <glyph glyph-name="guillemotleft.cap" horiz-adv-x="524" 
d="M170 543l99 -54l-83 -161l83 -161l-99 -54l-133 215zM390 543l99 -54l-83 -161l83 -161l-99 -54l-133 215z" />
    <glyph glyph-name="guillemotright.cap" horiz-adv-x="524" 
d="M134 113l-99 54l83 161l-83 161l99 54l133 -215zM354 113l-99 54l83 161l-83 161l99 54l133 -215z" />
    <glyph glyph-name="guilsinglleft.cap" horiz-adv-x="304" 
d="M170 543l99 -54l-83 -161l83 -161l-99 -54l-133 215z" />
    <glyph glyph-name="guilsinglright.cap" horiz-adv-x="304" 
d="M134 113l-99 54l83 161l-83 161l99 54l133 -215z" />
    <glyph glyph-name="hyphen.cap" horiz-adv-x="461" 
d="M73 304v120h322v-120h-322z" />
    <glyph glyph-name="endash.cap" horiz-adv-x="550" 
d="M73 304v120h404v-120h-404z" />
    <glyph glyph-name="emdash.cap" horiz-adv-x="1100" 
d="M73 304v120h954v-120h-954z" />
    <glyph glyph-name="periodcentered.cap" horiz-adv-x="304" 
d="M55 438h194v-178h-194v178z" />
    <glyph glyph-name="at.cap" horiz-adv-x="927" 
d="M887 380q0 -116 -60 -191t-148 -75q-126 0 -138 98h-3q-46 -98 -146 -98q-75 0 -113 50t-38 125q0 100 56 178.5t151 78.5q63 0 93 -59h5l8 51h129l-33 -221q-7 -51 -7 -59q0 -48 47 -48q40 0 63.5 45.5t23.5 119.5q0 257 -304 257q-78 0 -141 -26.5t-102 -72t-59.5 -102
t-20.5 -119.5q0 -128 86 -205.5t231 -77.5q127 0 202 36l34 -78q-84 -54 -244 -54q-186 0 -302.5 104t-116.5 276q0 177 122.5 296t315.5 119q188 0 298.5 -95.5t110.5 -252.5zM526 376q0 30 -13.5 49t-39.5 19q-40 0 -68 -42.5t-28 -103.5q0 -40 13 -61t35 -21
q49 0 75 45.5t26 114.5z" />
    <glyph glyph-name="sterling.oldstyle" horiz-adv-x="592" 
d="M289 240q1 -6 1 -16q0 -49 -31 -77q29 0 60 -11q43 -16 54 -16q39 0 40 58h149q-2 -114 -46 -157t-132 -43q-41 0 -119 26q-70 24 -104 24q-62 0 -126 -41v142q52 9 77 34.5t25 57.5q0 3 -0.5 9t-0.5 10h-88v106h65q-4 28 -4 44q0 83 51.5 139.5t158.5 56.5
q98 0 154.5 -53t61.5 -145h-154q-3 58 -55 58q-58 0 -58 -69q0 -15 3 -31h111v-106h-93z" />
    <glyph glyph-name="Euro.oldstyle" horiz-adv-x="525" 
d="M280 163q31 -56 96 -56q23 0 57.5 7t53.5 16v-129q-59 -25 -125 -25q-197 0 -251 187h-81l27 94h39q-1 11 -1 24q0 21 1 32h-66l27 94h57q27 82 90 130.5t162 48.5q73 0 131 -21l-31 -121q-33 14 -92 14q-63 0 -94 -51h177l-22 -94h-180q-1 -10 -1 -30q0 -18 1 -26h166
l-23 -94h-118z" />
    <glyph glyph-name="florin.oldstyle" horiz-adv-x="534" 
d="M68 -76q26 0 40.5 14t19.5 47l37 221h-67v142h87l8 57q14 91 58.5 136t131.5 45q46 0 91 -9v-139q-27 6 -51 6q-53 0 -63 -62l-6 -34h82v-142h-102l-37 -229q-15 -94 -60 -144.5t-130 -50.5q-52 0 -93 9v140q26 -7 54 -7z" />
    <glyph glyph-name="yen.oldstyle" horiz-adv-x="570" 
d="M58 343h97l-120 223h178l39 -79q25 -48 36 -86h2q6 18 36 85l36 80h173l-122 -223h97v-94h-141v-56h141v-94h-141v-99h-169v99h-142v94h142v56h-142v94z" />
    <glyph glyph-name="numbersign.oldstyle" horiz-adv-x="625" 
d="M490 336l-23 -110h98l-21 -102h-99l-26 -124h-115l26 124h-104l-27 -124h-115l27 124h-96l22 102h94l24 110h-97l22 102h98l27 128h115l-27 -128h104l27 128h115l-27 -128h98l-24 -102h-96zM246 226h106l23 110h-105z" />
    <glyph glyph-name="fi.alt01" horiz-adv-x="619" 
d="M243 337v-337h-168v337h-67v142h67v10q0 105 68 170.5t178 65.5q105 0 166.5 -51t73.5 -133h-169q-14 48 -71 48q-36 0 -57 -23t-21 -68v-19h89v-142h-89zM392 479h169v-479h-169v479z" />
    <glyph glyph-name="fl.alt01" horiz-adv-x="622" 
d="M246 337v-337h-169v337h-69v142h69v40q0 206 243 206q106 0 244 -43v-682h-169v570q-33 13 -72 13q-77 0 -77 -82v-22h88v-142h-88z" />
    <glyph glyph-name="f_f.alt01" horiz-adv-x="663" 
d="M246 0h-169v337h-69v142h69v10q0 105 62 170.5t174 65.5q86 0 137 -39q40 40 129 40q56 0 97 -12v-138q-30 8 -54 8q-32 0 -45 -14.5t-13 -45.5v-45h100v-142h-100v-337h-169v337h-149v-337zM395 545q0 16 1 23q-30 21 -72 21q-38 0 -58 -23t-20 -65v-22h149v66z" />
    <glyph glyph-name="f_f_i.alt01" horiz-adv-x="939" 
d="M246 337v-337h-169v337h-69v142h69v10q0 105 63.5 170.5t174.5 65.5q93 0 160 -52q59 52 166 52q105 0 166.5 -51t73.5 -133h-169q-14 48 -71 48q-36 0 -57 -23t-21 -68v-19h89v-142h-89v-337h-168v337h-149zM395 489q0 41 10 72q-34 28 -81 28q-38 0 -58 -23t-20 -65
v-22h149v10zM712 479h169v-479h-169v479z" />
    <glyph glyph-name="f_f_l.alt01" horiz-adv-x="940" 
d="M246 337v-337h-169v337h-69v142h69v40q0 101 62 153.5t174 52.5q85 0 149 -45q64 45 172 45q129 0 248 -38v-687h-169v573q-35 10 -76 10q-73 0 -73 -82v-22h88v-142h-88v-337h-169v337h-149zM395 519q0 29 3 50q-30 20 -73 20q-38 0 -58.5 -23t-20.5 -65v-22h149v40z
" />
    <glyph glyph-name="whiteperiod" horiz-adv-x="304" 
d="M154 -7q-40 0 -68.5 28.5t-28.5 68.5t28.5 68t68.5 28t68 -28t28 -68t-28 -68.5t-68 -28.5zM155 38q21 0 35.5 15t14.5 36q0 20 -14.5 35t-35.5 15t-35.5 -15t-14.5 -35q0 -21 14.5 -36t35.5 -15z" />
    </font>
</defs>
</svg>
